<svg width="35" height="44" viewBox="0 0 35 44" fill="none" xmlns="http://www.w3.org/2000/svg">
<g clip-path="url(#clip0_1250_672)">
<rect x="14" y="8" width="7" height="3" fill="white"/>
<circle cx="17.5" cy="28.5" r="5.5" fill="#D3F3F2"/>
<path d="M17.2861 22.3772C13.8761 22.3772 11.1104 25.1429 11.1104 28.5529C11.1104 31.9629 13.8761 34.7286 17.2861 34.7286C20.6961 34.7286 23.4618 31.9629 23.4618 28.5529C23.4618 25.1429 20.6961 22.3772 17.2861 22.3772ZM17.2861 33.1729C14.7404 33.1729 12.6818 31.0986 12.6818 28.5686C12.6818 26.0386 14.7561 23.9643 17.2861 23.9643C19.8318 23.9643 21.8904 26.0386 21.8904 28.5686C21.8904 31.0986 19.8318 33.1729 17.2861 33.1729Z" fill="black"/>
<path d="M32.9691 28.1757L31.7905 20.7272C30.9576 15.4315 27.1705 11.22 22.0633 9.71146C22.0791 9.60146 22.0948 9.49146 22.0948 9.39717C22.0948 9.00432 22.0005 8.62717 21.8591 8.28146L23.2891 3.69289C23.5405 2.87574 23.4148 2.01146 22.9276 1.30432C22.4405 0.597172 21.6705 0.172886 20.8219 0.110029L19.0462 2.96496e-05C17.8676 -0.0785418 16.6576 -0.0785418 15.4791 2.96496e-05L13.7033 0.110029C12.8548 0.157172 12.0848 0.597172 11.5976 1.30432C11.1105 2.01146 10.9848 2.87574 11.2362 3.69289L12.6662 8.28146C12.5091 8.62717 12.4148 9.00432 12.4148 9.41289C12.4148 9.52289 12.4462 9.63289 12.4462 9.74289C7.33906 11.2357 3.56763 15.4629 2.71906 20.7586L1.54049 28.2072C1.17906 30.5329 1.43049 32.9372 2.24763 35.1686C3.23763 37.7772 4.98191 40.0086 7.2762 41.6272C9.5862 43.23 12.2891 44.0786 15.1176 44.0786H19.3762C25.0648 44.0786 30.2348 40.4958 32.2305 35.1686C32.8119 33.5972 33.1105 31.9786 33.1105 30.3443C33.1419 29.6057 33.0948 28.8829 32.9691 28.1757ZM14.1276 9.90003C14.0491 9.74289 14.0176 9.57003 14.0176 9.39717C14.0176 8.73717 14.5519 8.20289 15.2119 8.20289H19.3605C20.0205 8.20289 20.5548 8.73717 20.5548 9.39717C20.5548 9.57003 20.5076 9.74289 20.4291 9.91574C20.2405 10.34 19.8162 10.6072 19.3605 10.6072H15.2119C14.7562 10.6229 14.3319 10.3557 14.1276 9.90003ZM12.9019 2.20003C13.1062 1.90146 13.4362 1.71289 13.8133 1.68146L15.6048 1.57146C16.7205 1.5086 17.8519 1.5086 18.9833 1.57146L20.7591 1.68146C21.1205 1.69717 21.4505 1.88574 21.6705 2.20003C21.8905 2.51431 21.9376 2.87574 21.8276 3.23717L20.6491 6.97717C20.2562 6.77289 19.8319 6.64717 19.3605 6.64717H15.2119C14.7405 6.64717 14.3162 6.77289 13.9233 6.97717L12.7605 3.23717C12.6348 2.87574 12.6976 2.4986 12.9019 2.20003ZM30.8005 34.5872C29.0248 39.3015 24.4519 42.4757 19.4076 42.4757H15.1491C12.6505 42.4757 10.2462 41.7215 8.21906 40.3072C6.1762 38.8772 4.6362 36.8972 3.77192 34.5872C3.04906 32.6229 2.82906 30.4857 3.14334 28.4272L4.32192 20.9786C5.0762 16.2329 8.47049 12.43 13.0748 11.1415C13.0905 11.1572 13.1062 11.1729 13.1219 11.1886C13.1691 11.2357 13.2162 11.2829 13.2476 11.3143C13.3733 11.44 13.4991 11.55 13.6405 11.66C13.7033 11.7072 13.7662 11.7386 13.8448 11.7857C13.9862 11.8643 14.1433 11.9429 14.3005 11.99C14.3633 12.0215 14.4419 12.0372 14.5048 12.0686C14.7405 12.1315 14.9762 12.1786 15.2119 12.1786H19.3605C19.6119 12.1786 19.8476 12.1315 20.0676 12.0686C20.1462 12.0529 20.2091 12.0215 20.2876 11.99C20.4291 11.9429 20.5862 11.88 20.7119 11.8015C20.7905 11.7543 20.8691 11.7072 20.9476 11.66C21.0733 11.5815 21.1833 11.4715 21.2776 11.3772C21.3405 11.3143 21.4033 11.2515 21.4662 11.1886C21.4819 11.1729 21.4976 11.1572 21.4976 11.1572C26.1019 12.4457 29.4962 16.2486 30.2505 20.9943L31.4291 28.4272C31.5233 29.0557 31.5862 29.6843 31.5862 30.2972C31.5705 31.7586 31.3191 33.1886 30.8005 34.5872Z" fill="black"/>
</g>
<defs>
<clipPath id="clip0_1250_672">
<rect width="34.5714" height="44" fill="white"/>
</clipPath>
</defs>
</svg>
