<svg width="39" height="44" viewBox="0 0 39 44" fill="none" xmlns="http://www.w3.org/2000/svg">
<rect x="2" y="24" width="7" height="18" rx="3.5" fill="white"/>
<path d="M37.7234 33.2071C37.4905 32.2106 36.8304 31.3695 35.9246 30.8906C35.0187 30.4118 33.9446 30.36 32.9999 30.7483L29.8422 32.0165C26.9952 33.1553 23.7599 33.0777 20.9646 31.7965C20.7446 31.693 20.7187 31.4989 20.7057 31.4212C20.6928 31.3436 20.7187 31.1495 20.9128 31.02L23.5269 29.4412C24.8728 28.6259 25.4681 26.9695 24.9504 25.4812C24.4975 24.213 23.3328 23.333 21.9869 23.2683C18.4152 23.0742 14.8693 23.5142 11.4528 24.6012L9.12339 25.3389C8.34692 24.0836 6.97516 23.2424 5.39634 23.2424C2.97634 23.2424 1.00928 25.2095 1.00928 27.6295V38.5777C1.00928 40.9977 2.97634 42.9647 5.39634 42.9647C6.80692 42.9647 8.04928 42.2918 8.85163 41.2565L9.05869 41.3342C10.8834 42.0589 12.7857 42.5506 14.7399 42.7706C15.8657 42.9 16.9916 42.9647 18.1305 42.9647C23.4622 42.9647 28.7422 41.5024 33.3105 38.72L36.1316 37.0118C37.4257 36.2224 38.0728 34.6953 37.7234 33.2071ZM5.39634 41.6706C3.6881 41.6706 2.30339 40.2859 2.30339 38.5777V27.6295C2.30339 25.9212 3.6881 24.5365 5.39634 24.5365C7.10457 24.5365 8.48928 25.9212 8.48928 27.6295V38.5777C8.50222 40.2859 7.10457 41.6706 5.39634 41.6706ZM35.4457 35.9118L32.6246 37.62C27.3316 40.8424 21.0293 42.2142 14.8822 41.4895C13.0446 41.2695 11.2457 40.8165 9.53751 40.1306L9.49869 40.1177C9.67986 39.6389 9.79633 39.1212 9.79633 38.5777V27.6295C9.79633 27.2412 9.73163 26.8789 9.64104 26.5295L11.841 25.8306C15.1152 24.7953 18.5057 24.3683 21.9222 24.5624C22.7505 24.6012 23.4622 25.1447 23.734 25.9212C24.0575 26.8271 23.6822 27.8495 22.8669 28.3412L20.2528 29.92C19.6963 30.2565 19.3857 30.8518 19.4116 31.4989C19.4375 32.1459 19.8257 32.7024 20.421 32.9742C23.5269 34.4106 27.1375 34.5012 30.321 33.22L33.4787 31.9518C34.074 31.7059 34.7599 31.7447 35.3293 32.0424C35.8987 32.34 36.3257 32.8706 36.4681 33.5047C36.6752 34.4365 36.274 35.4071 35.4457 35.9118Z" fill="black"/>
<path d="M29 11.5C29 16.7467 24.7467 21 19.5 21C14.2533 21 10 16.7467 10 11.5C10 6.25329 14.2533 2 19.5 2C24.7467 2 29 6.25329 29 11.5Z" fill="#D3F3F2"/>
<path d="M19.4115 21.2624C24.9891 21.2624 29.5315 16.72 29.5315 11.1424C29.5315 5.56475 24.9891 1.0224 19.4115 1.0224C13.8339 1.0224 9.2915 5.56475 9.2915 11.1424C9.2915 16.72 13.8339 21.2624 19.4115 21.2624ZM19.4115 2.32946C24.2774 2.32946 28.2374 6.28946 28.2374 11.1553C28.2374 16.0212 24.2774 19.9812 19.4115 19.9812C14.5456 19.9812 10.5856 16.0212 10.5856 11.1553C10.5856 6.27652 14.5456 2.32946 19.4115 2.32946Z" fill="black"/>
<path d="M19.4631 13.0189C19.2043 13.0189 19.0102 12.9413 18.8678 12.786C18.7255 12.6307 18.6608 12.4107 18.6608 12.113H17.5996C17.5996 12.6177 17.742 13.0189 18.0137 13.3166C18.2855 13.6142 18.5831 13.7954 19.0749 13.8472V14.2483H19.7996V13.8342C20.2525 13.7824 20.5631 13.6401 20.822 13.3813C21.0808 13.1224 21.2102 12.786 21.2102 12.3719C21.2102 12.1519 21.1714 11.9577 21.1067 11.7895C21.042 11.6213 20.9384 11.4789 20.809 11.3366C20.6796 11.2072 20.5243 11.0907 20.3302 10.9872C20.1361 10.8836 19.9031 10.7672 19.6055 10.6507C19.3078 10.5342 19.1137 10.4177 19.0102 10.3013C18.9067 10.1848 18.8549 10.0424 18.8549 9.84833C18.8549 9.65421 18.9067 9.48598 19.0231 9.38245C19.1267 9.26598 19.282 9.21421 19.489 9.21421C19.6961 9.21421 19.8514 9.29186 19.9808 9.43421C20.0973 9.57657 20.162 9.79656 20.162 10.0942H21.2231C21.2231 9.61539 21.1067 9.22715 20.8608 8.92951C20.6149 8.63186 20.369 8.45068 19.929 8.38598V7.99774H19.1137V8.37303C18.6737 8.41186 18.4667 8.56715 18.2078 8.83892C17.949 9.09774 17.8067 9.43421 17.8067 9.84833C17.8067 10.0942 17.8455 10.2883 17.9231 10.4695C18.0008 10.6377 18.1043 10.793 18.2467 10.9224C18.389 11.0519 18.5443 11.1683 18.7384 11.2589C18.9325 11.3624 19.1655 11.453 19.4243 11.5566C19.6961 11.6601 19.8773 11.7636 19.9937 11.8801C20.1102 11.9966 20.162 12.1519 20.162 12.3589C20.162 12.553 20.0973 12.7083 19.9808 12.8119C19.8643 12.9154 19.6831 13.0189 19.4631 13.0189Z" fill="black"/>
</svg>
