<svg width="40" height="38" viewBox="0 0 40 38" fill="none" xmlns="http://www.w3.org/2000/svg">
<circle cx="25" cy="23" r="15" fill="#F0DDF4"/>
<g clip-path="url(#clip0_1249_621)">
<path d="M13.3576 17.2914C10.7226 17.2914 8.58545 19.4286 8.58545 22.0636C8.58545 24.6986 10.7226 26.8357 13.3576 26.8357C15.9926 26.8357 18.1297 24.6986 18.1297 22.0636C18.1297 19.4286 15.9926 17.2914 13.3576 17.2914ZM13.3576 25.6336C11.3904 25.6336 9.79973 24.0307 9.79973 22.0757C9.79973 20.1207 11.4026 18.5179 13.3576 18.5179C15.3247 18.5179 16.9154 20.1207 16.9154 22.0757C16.9154 24.0307 15.3247 25.6336 13.3576 25.6336Z" fill="black"/>
<path d="M25.4761 21.7721L24.5654 16.0164C23.9218 11.9243 20.9954 8.67 17.049 7.50429C17.0611 7.41929 17.0733 7.33429 17.0733 7.26143C17.0733 6.95786 17.0004 6.66643 16.8911 6.39929L17.9961 2.85358C18.1904 2.22215 18.0933 1.55429 17.7168 1.00786C17.3404 0.461432 16.7454 0.133575 16.0897 0.0850031L14.7175 3.4906e-06C13.8068 -0.0607108 12.8718 -0.0607108 11.9611 3.4906e-06L10.589 0.0850031C9.93326 0.121432 9.33825 0.461432 8.96183 1.00786C8.5854 1.55429 8.48826 2.22215 8.68254 2.85358L9.78754 6.39929C9.66611 6.66643 9.59326 6.95786 9.59326 7.27357C9.59326 7.35857 9.61754 7.44358 9.61754 7.52858C5.67111 8.68215 2.75683 11.9486 2.10111 16.0407L1.1904 21.7964C0.911113 23.5936 1.1054 25.4514 1.73683 27.1757C2.50183 29.1914 3.84968 30.9157 5.62254 32.1664C7.40754 33.405 9.49611 34.0607 11.6818 34.0607H14.9725C19.3683 34.0607 23.3633 31.2921 24.9054 27.1757C25.3547 25.9614 25.5854 24.7107 25.5854 23.4479C25.6097 22.8771 25.5733 22.3186 25.4761 21.7721ZM10.9168 7.65C10.8561 7.52857 10.8318 7.395 10.8318 7.26143C10.8318 6.75143 11.2447 6.33857 11.7547 6.33857H14.9604C15.4704 6.33857 15.8833 6.75143 15.8833 7.26143C15.8833 7.395 15.8468 7.52857 15.7861 7.66215C15.6404 7.99 15.3125 8.19643 14.9604 8.19643H11.7547C11.4025 8.20858 11.0747 8.00215 10.9168 7.65ZM9.96968 1.7C10.1275 1.46929 10.3825 1.32357 10.674 1.29929L12.0583 1.21429C12.9204 1.16572 13.7947 1.16572 14.669 1.21429L16.0411 1.29929C16.3204 1.31143 16.5754 1.45715 16.7454 1.7C16.9154 1.94286 16.9518 2.22215 16.8668 2.50143L15.9561 5.39143C15.6525 5.23358 15.3247 5.13643 14.9604 5.13643H11.7547C11.3904 5.13643 11.0625 5.23358 10.759 5.39143L9.8604 2.50143C9.76326 2.22215 9.81183 1.93072 9.96968 1.7ZM23.8004 26.7264C22.4283 30.3693 18.8947 32.8221 14.9968 32.8221H11.7061C9.7754 32.8221 7.91754 32.2393 6.35111 31.1464C4.77254 30.0414 3.58254 28.5114 2.91468 26.7264C2.35611 25.2086 2.18611 23.5571 2.42897 21.9664L3.33968 16.2107C3.92254 12.5436 6.5454 9.605 10.1033 8.60929C10.1154 8.62143 10.1275 8.63358 10.1397 8.64572C10.1761 8.68215 10.2125 8.71858 10.2368 8.74286C10.334 8.84 10.4311 8.925 10.5404 9.01C10.589 9.04643 10.6375 9.07072 10.6983 9.10715C10.8075 9.16786 10.929 9.22857 11.0504 9.265C11.099 9.28929 11.1597 9.30143 11.2083 9.32572C11.3904 9.37429 11.5725 9.41072 11.7547 9.41072H14.9604C15.1547 9.41072 15.3368 9.37429 15.5068 9.32572C15.5675 9.31358 15.6161 9.28929 15.6768 9.265C15.7861 9.22857 15.9075 9.18 16.0047 9.11929C16.0654 9.08286 16.1261 9.04643 16.1868 9.01C16.284 8.94929 16.369 8.86429 16.4418 8.79143C16.4904 8.74286 16.539 8.69429 16.5875 8.64572C16.5997 8.63358 16.6118 8.62143 16.6118 8.62143C20.1697 9.61715 22.7925 12.5557 23.3754 16.2229L24.2861 21.9664C24.359 22.4521 24.4075 22.9379 24.4075 23.4114C24.3954 24.5407 24.2011 25.6457 23.8004 26.7264Z" fill="black"/>
</g>
<defs>
<clipPath id="clip0_1249_621">
<rect width="26.7143" height="34" fill="white"/>
</clipPath>
</defs>
</svg>
