<svg width="54" height="38" viewBox="0 0 54 38" fill="none" xmlns="http://www.w3.org/2000/svg">
<circle cx="39" cy="23" r="15" fill="#DAF5F8"/>
<g clip-path="url(#clip0_1249_618)">
<path d="M37.6938 8.45364H37.1065V7.7891V6.58364V6.21273L37.0756 6.22819C36.8902 3.24546 34.5102 0.880915 31.5274 0.695461L31.5429 0.664551H31.1874H29.9665H6.93925H5.5947H5.34743V0.695461C2.21015 0.834551 -0.308935 3.38455 -0.339844 6.55273V6.61455V8.16001V18.6845V19.6736V20.2918L-0.278027 20.2764C0.0310638 23.2591 2.5347 25.5927 5.5947 25.5927H5.90379H6.18197V27.4627C6.18197 30.7236 8.84015 33.3818 12.1011 33.3818H37.6783C40.9392 33.3818 43.5974 30.7236 43.5974 27.4627V14.3727C43.6129 11.1118 40.9547 8.45364 37.6938 8.45364ZM31.5429 23.9855C31.5429 23.6918 31.5738 23.3982 31.6202 23.1355C31.6356 23.0427 31.682 22.9655 31.6974 22.8727C31.7438 22.7027 31.7902 22.5173 31.852 22.3627C31.8983 22.2546 31.9602 22.1773 32.0065 22.0691C32.0838 21.93 32.1456 21.7755 32.2383 21.6518C32.3002 21.5591 32.3774 21.4664 32.4547 21.3891C32.5474 21.2655 32.6402 21.1418 32.7483 21.0336C32.8256 20.9564 32.9183 20.8791 33.0111 20.8018C33.1192 20.7091 33.2274 20.6009 33.3511 20.5236C33.4438 20.4618 33.552 20.4 33.6602 20.3536C33.7838 20.2764 33.9229 20.1991 34.062 20.1373C34.1702 20.0909 34.2938 20.06 34.402 20.0136C34.5411 19.9673 34.6802 19.9055 34.8347 19.8745C34.9583 19.8436 35.082 19.8436 35.2056 19.8282C35.3292 19.8127 35.4374 19.7973 35.5611 19.7973C35.4683 22.0073 33.7374 23.8 31.5429 23.9855ZM35.5611 6.49091C35.5302 6.49091 35.4838 6.50637 35.4529 6.50637C33.1347 6.50637 31.2492 4.62091 31.2492 2.30273C31.2492 2.27182 31.2647 2.24091 31.2647 2.21001C33.5983 2.24091 35.4992 4.14182 35.5611 6.49091ZM29.7038 2.19455C29.7038 2.22546 29.7038 2.25637 29.7038 2.28728C29.7038 2.6891 29.7502 3.07546 29.8274 3.44637C30.1211 4.91455 30.9865 6.16637 32.1765 7.00092C32.2074 7.01637 32.2229 7.04728 32.2383 7.06273C32.4392 7.20182 32.6711 7.31 32.8874 7.41819C33.0111 7.48 33.1192 7.55728 33.2274 7.60364C33.382 7.66546 33.5674 7.71182 33.7374 7.75819C33.9383 7.82001 34.1238 7.89728 34.3402 7.92818C34.4947 7.95909 34.6492 7.9591 34.8038 7.97455C35.0202 8.00546 35.2365 8.03637 35.4529 8.03637C35.4683 8.03637 35.4838 8.03637 35.5147 8.03637C35.5302 8.03637 35.5456 8.03637 35.5611 8.03637V18.2209C35.3756 18.2209 35.2056 18.2673 35.0356 18.2827C34.8656 18.2982 34.6802 18.3136 34.5102 18.3445C34.3092 18.3909 34.1238 18.4682 33.9229 18.53C33.7683 18.5764 33.5983 18.6227 33.4438 18.6845C33.2583 18.7618 33.0729 18.87 32.9029 18.9782C32.7638 19.0555 32.6247 19.1327 32.4856 19.21C32.3156 19.3336 32.1611 19.4727 31.9911 19.6118C31.8674 19.72 31.7438 19.7973 31.6356 19.9055C31.4811 20.06 31.3574 20.23 31.2183 20.4155C31.1256 20.5236 31.0174 20.6318 30.9402 20.7555C30.8165 20.9409 30.7083 21.1573 30.6156 21.3582C30.5538 21.4818 30.4765 21.59 30.4147 21.7291C30.322 21.9609 30.2602 22.2082 30.1829 22.4555C30.152 22.5636 30.1056 22.6718 30.0747 22.7955C29.9974 23.1664 29.9511 23.5527 29.9511 23.9391C29.9511 23.9546 29.9511 23.9545 29.9511 23.97H7.72743C7.72743 23.9545 7.72743 23.9546 7.72743 23.9391C7.72743 23.5218 7.68106 23.1355 7.60379 22.7491C7.57288 22.5636 7.49561 22.4091 7.44925 22.2236C7.38743 22.0227 7.34107 21.8373 7.26379 21.6518C7.17107 21.4355 7.04743 21.2346 6.92379 21.0336C6.84652 20.91 6.7847 20.7864 6.70743 20.6782C6.55288 20.4618 6.38288 20.2764 6.21288 20.0755C6.13561 19.9982 6.07379 19.9055 5.98107 19.8282C5.79561 19.6427 5.57925 19.4727 5.36288 19.3182C5.27015 19.2564 5.19288 19.1791 5.10015 19.1173C4.88379 18.9782 4.65197 18.8546 4.42016 18.7464C4.29652 18.6846 4.17288 18.6382 4.04925 18.5918C3.83288 18.5145 3.60106 18.4373 3.36925 18.3755C3.19925 18.3291 3.02925 18.2982 2.85925 18.2673C2.65834 18.2364 2.45743 18.2209 2.24107 18.2055C2.14834 18.2055 2.07107 18.1745 1.97834 18.1745C1.76197 18.1745 1.54561 18.2055 1.31379 18.2209C1.28288 18.2209 1.23652 18.2209 1.20561 18.2209V8.37637C1.26743 8.37637 1.32925 8.36091 1.39106 8.36091C1.43743 8.36091 1.48379 8.37637 1.54561 8.37637C1.70016 8.37637 1.83925 8.34546 1.97834 8.33C2.17925 8.31455 2.3647 8.2991 2.55015 8.26819C2.76652 8.23728 2.96743 8.16 3.16834 8.09819C3.32288 8.05182 3.46197 8.02091 3.61652 7.9591C3.87925 7.85091 4.12652 7.72728 4.37379 7.58819C4.45106 7.54182 4.52834 7.51091 4.59015 7.46455C4.89924 7.2791 5.17743 7.06273 5.44016 6.81546C5.45561 6.8 5.45561 6.8 5.47107 6.78455C6.29016 6.01182 6.87743 5.02273 7.14016 3.89455C7.14016 3.86364 7.15561 3.83273 7.17106 3.80182C7.24834 3.41546 7.2947 3.01364 7.2947 2.61182C7.2947 2.44182 7.2947 2.28728 7.27924 2.11728H29.7038V2.19455ZM5.5947 2.19455H5.68743C5.70288 2.36455 5.74924 2.5191 5.74924 2.6891C5.74924 5.00728 3.86379 6.89273 1.54561 6.89273C1.42197 6.89273 1.31379 6.86182 1.20561 6.84637V6.58364C1.20561 4.17273 3.16834 2.19455 5.5947 2.19455ZM5.5947 24.0009C3.24561 24.0009 1.32925 22.1618 1.20561 19.8436C1.22107 19.8436 1.23652 19.8436 1.25197 19.8282C1.53015 19.7818 1.80834 19.7664 2.08652 19.7664C2.24106 19.7664 2.41106 19.7973 2.56561 19.8127C2.68925 19.8282 2.81288 19.8436 2.92106 19.8745C3.12197 19.9209 3.32288 19.9827 3.50834 20.06C3.57016 20.0755 3.61652 20.1064 3.66288 20.1218C3.87925 20.2146 4.09561 20.3227 4.28106 20.4618C4.29652 20.4773 4.32743 20.4927 4.34288 20.5082C4.54379 20.6473 4.7447 20.8018 4.9147 20.9873C4.93016 21.0027 4.94561 21.0182 4.96106 21.0336C5.13106 21.2036 5.28561 21.3891 5.4247 21.6055C5.45561 21.6518 5.47106 21.6827 5.50197 21.7291C5.62561 21.9146 5.73379 22.1 5.81106 22.3164C5.85743 22.4245 5.88834 22.5327 5.91925 22.6255C5.96561 22.78 6.02743 22.9346 6.07379 23.1046C6.13561 23.3827 6.16652 23.6764 6.16652 23.9855C6.16652 24.0009 6.16652 24.0009 6.16652 24.0164H5.5947V24.0009ZM42.0674 27.4164C42.0674 29.8273 40.1047 31.79 37.6938 31.79H12.1011C9.69016 31.79 7.72743 29.8273 7.72743 27.4164V25.5464H30.2292H31.172H31.8211L31.8056 25.4846C34.6647 25.1755 36.9056 22.8418 37.0756 19.9518H37.1065V19.6273V18.3909V9.99909H37.6938C40.1047 9.99909 42.0674 11.9618 42.0674 14.3727V27.4164Z" fill="black"/>
<path d="M18.3753 19.72C22.0226 19.72 24.9898 16.7527 24.9898 13.1054C24.9898 9.45818 22.0226 6.49091 18.3753 6.49091C14.728 6.49091 11.7607 9.45818 11.7607 13.1054C11.7607 16.7527 14.728 19.72 18.3753 19.72ZM18.3753 8.03636C21.1726 8.03636 23.4444 10.3082 23.4444 13.1054C23.4444 15.9027 21.1726 18.1745 18.3753 18.1745C15.578 18.1745 13.3062 15.9027 13.3062 13.1054C13.3062 10.3082 15.5935 8.03636 18.3753 8.03636Z" fill="black"/>
<path d="M18.3912 14.4654C18.2058 14.4654 18.0667 14.4036 17.9585 14.2954C17.8658 14.1872 17.804 14.0172 17.804 13.8163H17.0312C17.0312 14.1718 17.124 14.4654 17.3249 14.6818C17.5258 14.8981 17.7422 15.0218 18.0976 15.0681V15.3618H18.6231V15.0681C18.9476 15.0372 19.1794 14.929 19.3649 14.7436C19.5503 14.5581 19.6431 14.3109 19.6431 14.0172C19.6431 13.8627 19.6122 13.7081 19.5658 13.6C19.5194 13.4763 19.4422 13.3681 19.3494 13.2754C19.2567 13.1827 19.1485 13.09 19.0094 13.0281C18.8703 12.9509 18.7003 12.8736 18.484 12.7809C18.2676 12.6881 18.1285 12.6109 18.0512 12.5336C17.974 12.4563 17.9276 12.3481 17.9276 12.209C17.9276 12.07 17.974 11.9463 18.0512 11.869C18.1285 11.7918 18.2367 11.7454 18.3912 11.7454C18.5303 11.7454 18.654 11.7918 18.7467 11.9C18.8394 12.0081 18.8703 12.1627 18.8703 12.379H19.6431C19.6431 12.039 19.5503 11.7454 19.3803 11.529C19.2103 11.3127 19.0249 11.189 18.7003 11.1427V10.8645H18.1131V11.1427C17.804 11.1736 17.6494 11.2818 17.464 11.4827C17.2785 11.6681 17.1703 11.9154 17.1703 12.2245C17.1703 12.3945 17.2012 12.549 17.2476 12.6727C17.3094 12.7963 17.3867 12.9045 17.4794 12.9972C17.5722 13.09 17.6958 13.1672 17.8349 13.2445C17.974 13.3218 18.144 13.3836 18.3294 13.4609C18.5149 13.5381 18.654 13.6154 18.7467 13.6927C18.824 13.7854 18.8703 13.8936 18.8703 14.0327C18.8703 14.1718 18.824 14.28 18.7313 14.3727C18.6694 14.419 18.5458 14.4654 18.3912 14.4654Z" fill="black"/>
</g>
<defs>
<clipPath id="clip0_1249_618">
<rect width="43.2727" height="34" fill="white"/>
</clipPath>
</defs>
</svg>
