<svg width="41" height="38" viewBox="0 0 41 38" fill="none" xmlns="http://www.w3.org/2000/svg">
<circle cx="25.5" cy="23" r="15" fill="#DAF5F8"/>
<path d="M18.6771 14.6045C18.9868 14.9142 18.9868 15.4008 18.6771 15.7105L13.0586 21.329C12.9259 21.4617 12.7047 21.5502 12.5277 21.5502C12.4835 21.5502 12.4392 21.5502 12.395 21.5502C12.2623 21.506 12.1295 21.4617 11.9968 21.329L9.60784 18.94C9.29816 18.6303 9.29816 18.1437 9.60784 17.834C9.91753 17.5243 10.4042 17.5243 10.7139 17.834L12.5277 19.6479L17.5711 14.6045C17.8808 14.2948 18.3674 14.2948 18.6771 14.6045ZM26.9501 13.5869V13.7639V13.8081L26.9058 17.834C26.9058 17.834 26.9058 17.834 26.9058 17.8783C26.9058 18.3649 26.9058 18.7631 26.8616 19.2055C26.7731 21.1963 26.0652 23.0986 24.6496 25.0009C23.0569 27.1687 20.8891 28.9383 18.0135 30.4867C17.1287 30.9292 16.2439 31.3273 15.3591 31.7255C15.1379 31.814 14.9167 31.9024 14.7397 31.9909C14.5185 32.0794 14.2973 32.1236 14.0761 32.1236C13.8992 32.1236 13.7222 32.0794 13.5452 32.0352C9.96176 30.708 7.17462 28.9383 4.91836 26.6821C3.14875 24.9125 2.08698 23.0101 1.60034 20.9751C1.37914 20.0903 1.29066 19.2055 1.29066 18.3649C1.24642 15.9317 1.29066 13.4985 1.29066 11.1095C1.29066 10.2689 1.29066 9.38411 1.29066 8.54354C1.29066 7.52601 1.73306 7.03937 2.75059 6.99513C6.20134 6.77393 9.47512 5.49096 13.1028 3.0135C13.9434 2.43837 14.2973 2.43837 15.1821 3.0135C17.925 4.91583 20.3582 6.06609 22.9242 6.64121C23.5878 6.77393 24.2514 6.86241 24.9592 6.95089C25.1804 6.99513 25.4459 6.99513 25.6671 7.03937C26.7289 7.17209 26.9501 7.87994 26.9501 8.45506C26.9501 9.78227 26.9501 11.1537 26.9501 12.4809V13.5869ZM25.4016 12.1713C25.4016 10.8883 25.4016 9.64955 25.4016 8.36658C25.1804 8.32234 25.0035 8.32234 24.7823 8.2781C24.0744 8.18962 23.3223 8.10114 22.5703 7.92418C19.8274 7.30481 17.1287 6.06608 14.2531 4.07527C14.2088 4.03103 14.1646 3.98679 14.1204 3.98679C14.0761 4.03103 14.0319 4.07527 13.9876 4.07527C10.0945 6.72969 6.55526 8.10114 2.83907 8.36658C2.83907 9.20715 2.83907 10.092 2.83907 10.9325C2.83907 13.3215 2.83907 15.7547 2.83907 18.1879C2.83907 18.94 2.92755 19.6921 3.10452 20.4884C3.50268 22.258 4.47596 23.8949 6.02437 25.4876C8.10367 27.6111 10.7581 29.248 14.0761 30.4867H14.1204C14.3416 30.3983 14.5628 30.3098 14.7397 30.2213C15.5803 29.8674 16.4651 29.4692 17.2614 29.0711C19.9158 27.6554 21.9067 26.0185 23.3666 24.0719C24.5611 22.435 25.1804 20.7981 25.2689 19.117C25.2689 18.7188 25.3132 18.3207 25.3132 17.834V17.7013L25.3574 13.7639V13.7197V13.5869V12.1713H25.4016Z" fill="black"/>
</svg>
