<svg width="55" height="38" viewBox="0 0 55 38" fill="none" xmlns="http://www.w3.org/2000/svg">
<circle cx="39.5" cy="23" r="15" fill="#E4EFF9"/>
<g clip-path="url(#clip0_1249_619)">
<path d="M34.3842 1.87742C30.8955 1.87742 27.7764 3.4296 25.6625 5.88351L19.3946 1.9809C17.7833 0.975685 15.6842 0.975685 14.0729 1.9809L11.0425 3.87308V3.32612C11.0425 2.45395 10.3329 1.74438 9.46073 1.74438H7.09551C6.22334 1.74438 5.51378 2.45395 5.51378 3.32612V7.21394C5.51378 7.28786 5.48421 7.34699 5.42508 7.39134L3.7103 8.45568C2.23204 9.38699 1.35986 10.9835 1.35986 12.7279V29.2548C1.35986 32.0192 3.60682 34.2809 6.38595 34.2809H11.7077H21.7599H27.0668C29.846 34.2809 32.1077 32.0192 32.1077 29.24V24.7905C32.8468 24.9383 33.6007 25.0122 34.3842 25.0122C40.7555 25.0122 45.9442 19.8235 45.9442 13.4522C45.9442 7.06612 40.7555 1.87742 34.3842 1.87742ZM13.186 32.7879V23.8296C13.186 23.0313 13.8364 22.3661 14.6494 22.3661H18.8329C19.6312 22.3661 20.2964 23.0166 20.2964 23.8296V32.7879H13.186ZM30.6294 29.2252C30.6294 31.1913 29.0329 32.7879 27.0668 32.7879H21.7599V23.8296C21.7599 22.2035 20.4442 20.8879 18.8181 20.8879H14.6346C13.0086 20.8879 11.6929 22.2035 11.6929 23.8296V32.7879H6.37117C4.41986 32.7879 2.82334 31.1913 2.82334 29.24V12.7131C2.82334 11.4861 3.44421 10.3626 4.49378 9.69742L6.19378 8.63308C6.69639 8.32264 6.99204 7.79047 6.99204 7.21394L7.09551 3.23742L9.56421 3.3409V4.96699L9.59378 5.4696L9.97812 5.67655C10.3477 5.88351 10.7912 5.78003 11.4416 5.36612L14.8564 3.23742C15.9946 2.52786 17.4729 2.52786 18.6112 3.23742L24.746 7.06612C23.5338 8.89916 22.8242 11.087 22.8242 13.4374C22.8242 18.4931 26.0912 22.7948 30.6294 24.3618V29.2252ZM34.3842 23.5192C28.8259 23.5192 24.3025 18.9957 24.3025 13.4374C24.3025 7.87916 28.8259 3.35569 34.3842 3.35569C39.9425 3.35569 44.466 7.87916 44.466 13.4374C44.466 18.9957 39.9425 23.5192 34.3842 23.5192Z" fill="black"/>
<path d="M34.4731 11.2643C34.7096 11.2643 34.887 11.353 35.0348 11.5156C35.1679 11.6782 35.2418 11.9295 35.2418 12.2695H36.4539C36.4539 11.7226 36.3209 11.2791 36.04 10.9391C35.7592 10.5991 35.4783 10.3921 34.9757 10.3182V9.87476H34.0444V10.3035C33.5418 10.3478 33.3052 10.5252 33.0096 10.8356C32.7139 11.1313 32.5513 11.5156 32.5513 11.9887C32.5513 12.2695 32.5957 12.4913 32.6844 12.6982C32.7731 12.8904 32.8913 13.0678 33.0539 13.2156C33.2165 13.3635 33.3939 13.4965 33.6157 13.6C33.8374 13.7182 34.1035 13.8217 34.3992 13.94C34.7096 14.0582 34.9165 14.1765 35.0496 14.3095C35.1826 14.4426 35.2418 14.62 35.2418 14.8565C35.2418 15.0782 35.1679 15.2556 35.0348 15.3739C34.9018 15.4921 34.6948 15.5661 34.4583 15.5661C34.1626 15.5661 33.9409 15.4774 33.7783 15.3C33.6157 15.1226 33.5418 14.8713 33.5418 14.5313H32.3296C32.3296 15.1078 32.4922 15.5661 32.8026 15.9061C33.1131 16.2461 33.4531 16.453 34.0148 16.5121V16.9704H34.8426V16.4974C35.36 16.4382 35.7148 16.2756 36.0105 15.98C36.3061 15.6843 36.4539 15.3 36.4539 14.8269C36.4539 14.5756 36.4096 14.3539 36.3357 14.1617C36.2618 13.9695 36.1435 13.8069 35.9957 13.6443C35.8479 13.4965 35.6705 13.3635 35.4487 13.2452C35.227 13.1269 34.9609 12.9939 34.6209 12.8608C34.2809 12.7278 34.0592 12.5948 33.9409 12.4617C33.8226 12.3287 33.7635 12.1661 33.7635 11.9443C33.7635 11.7226 33.8226 11.5304 33.9557 11.4121C34.0739 11.3382 34.2513 11.2643 34.4731 11.2643Z" fill="black"/>
</g>
<defs>
<clipPath id="clip0_1249_619">
<rect width="45.8261" height="34" fill="white"/>
</clipPath>
</defs>
</svg>
