<svg width="46" height="38" viewBox="0 0 46 38" fill="none" xmlns="http://www.w3.org/2000/svg">
<circle cx="31" cy="23" r="15" fill="#FFF1E3"/>
<path d="M34.1632 15.9256C34.544 14.8104 34.1904 13.6272 33.2656 12.9064L19.3392 2.0128C18.36 1.2376 16.9728 1.2376 15.9936 2.0128L2.06722 12.9064C1.14242 13.6272 0.788818 14.8104 1.16962 15.9256C1.55042 17.0408 2.55682 17.748 3.74002 17.748H3.78082C3.78082 17.7616 3.76722 17.7752 3.76722 17.7888V27.4448C2.43442 27.7712 1.45522 28.8728 1.45522 30.2056V31.0624C1.45522 32.64 2.85602 33.932 4.58322 33.932H30.7496C32.4768 33.932 33.8776 32.64 33.8776 31.0624V30.2056C33.8776 28.832 32.8168 27.676 31.416 27.404V17.8024C31.416 17.7888 31.4024 17.7752 31.4024 17.7616H31.5792C32.776 17.748 33.7824 17.0272 34.1632 15.9256ZM2.47522 15.4768C2.32562 15.0416 2.36642 14.416 2.92402 13.9672L16.8504 3.0736C17.0952 2.8832 17.3944 2.788 17.68 2.788C17.9792 2.788 18.2648 2.8832 18.5096 3.0736L32.436 13.9672C32.9936 14.4024 33.0344 15.028 32.8848 15.4768C32.7352 15.912 32.3136 16.388 31.6064 16.388H3.75362C3.04642 16.388 2.63842 15.9256 2.47522 15.4768ZM19.4752 27.336H15.7488V17.816C15.7624 17.8024 15.8032 17.7616 15.8984 17.7616H19.3256C19.4072 17.7616 19.4616 17.8024 19.4752 17.816V27.336ZM14.3888 17.748C14.3888 17.7616 14.3752 17.7752 14.3752 17.7888V27.336H10.2V17.7888C10.2 17.7752 10.1864 17.7616 10.1864 17.748H14.3888ZM5.14082 17.816C5.15442 17.8024 5.19522 17.7616 5.29042 17.7616H8.71762C8.78562 17.7616 8.84002 17.7888 8.84002 17.816V27.3496H5.12722L5.14082 17.816ZM32.5312 30.2056V31.0624C32.5312 31.892 31.7424 32.572 30.7632 32.572H4.59682C3.61762 32.572 2.82882 31.892 2.82882 31.0624V30.2056C2.82882 29.6208 3.22322 29.1312 3.78082 28.8864V29.0904L4.65122 28.696H10.2136H14.3888H20.8352H24.9832H30.7632C31.7424 28.696 32.5312 29.376 32.5312 30.2056ZM26.3432 17.816C26.3568 17.8024 26.3976 17.7616 26.4928 17.7616H29.92C30.0016 17.7616 30.056 17.7888 30.0696 17.816V27.3496H26.3432V17.816ZM24.9832 17.7888V27.336H20.8352V17.7888C20.8352 17.7752 20.8216 17.7616 20.8216 17.748H24.9968C24.9968 17.7616 24.9832 17.7752 24.9832 17.7888Z" fill="black"/>
</svg>
