<svg width="45" height="38" viewBox="0 0 45 38" fill="none" xmlns="http://www.w3.org/2000/svg">
<circle cx="29.5" cy="23" r="15" fill="#FFF1E3"/>
<g clip-path="url(#clip0_1249_617)">
<path d="M6.82617 17.0001C6.82617 21.6555 9.97771 25.6832 14.5023 26.7947C15.3 26.9909 16.1108 27.0824 16.9085 27.0824C17.7062 27.0824 18.5169 26.9778 19.3277 26.7947C23.8392 25.6962 27.0039 21.6686 27.0039 17.0001C27.0039 11.4424 22.4792 6.91779 16.9216 6.91779C11.3639 6.91779 6.82617 11.4424 6.82617 17.0001ZM25.6831 17.0001C25.6831 21.0539 22.9369 24.5586 19.0139 25.5262C17.6146 25.8662 16.2023 25.8662 14.8031 25.5262C10.88 24.5586 8.13386 21.0539 8.13386 17.0001C8.13386 12.1616 12.07 8.22548 16.9085 8.22548C21.7469 8.22548 25.6831 12.1616 25.6831 17.0001Z" fill="black"/>
<path d="M32.7442 3.85775L32.0249 8.05544C31.9857 8.26467 31.8418 8.31698 31.7634 8.33006C31.698 8.34313 31.5018 8.35621 31.3842 8.14698C27.8795 2.40621 21.2757 -0.719177 14.5672 0.183131C6.96954 1.20313 0.875691 7.49313 0.0649215 15.1301C-0.824309 23.5647 4.668 31.4239 12.8542 33.4377C14.2011 33.7647 15.5611 33.9347 16.908 33.9347C18.2549 33.9347 19.628 33.7647 20.9618 33.4377C25.2249 32.3916 28.8603 29.7762 31.2272 26.0493L30.1288 25.3431C27.9449 28.7824 24.5842 31.2016 20.6611 32.1562C18.1765 32.7577 15.6526 32.7577 13.168 32.1562C5.62261 30.3124 0.54877 23.0416 1.35954 15.2608C2.10492 8.21236 7.728 2.41928 14.7372 1.47775C20.9357 0.6539 27.0295 3.53082 30.2595 8.82698C30.6257 9.42852 31.3057 9.74236 32.0118 9.61159C32.6918 9.48082 33.2018 8.95775 33.3195 8.26467L34.0388 4.06698L32.7442 3.85775Z" fill="black"/>
<path d="M16.5941 13.8485V14.2277C16.1495 14.267 15.9402 14.4239 15.6787 14.6985C15.4171 14.96 15.2733 15.3 15.2733 15.7185C15.2733 15.967 15.3125 16.1631 15.391 16.3462C15.4695 16.5162 15.5741 16.6731 15.7179 16.8039C15.8618 16.9347 16.0187 17.0523 16.2148 17.1439C16.411 17.2485 16.6464 17.34 16.9079 17.4447C17.1825 17.5493 17.3656 17.6539 17.4833 17.7716C17.601 17.8893 17.6533 18.0462 17.6533 18.2554C17.6533 18.4516 17.5879 18.6085 17.4702 18.7131C17.3525 18.8177 17.1695 18.8831 16.9602 18.8831C16.6987 18.8831 16.5025 18.8046 16.3587 18.6477C16.2148 18.4908 16.1495 18.2685 16.1495 17.9677H15.0771C15.0771 18.4777 15.221 18.8831 15.4956 19.1839C15.7702 19.4846 16.071 19.6677 16.5679 19.72V20.1254H17.3002V19.707C17.7579 19.6547 18.0718 19.5108 18.3333 19.2493C18.5948 18.9877 18.7256 18.6477 18.7256 18.2293C18.7256 18.007 18.6864 17.8108 18.621 17.6408C18.5556 17.4708 18.451 17.327 18.3202 17.1831C18.1895 17.0523 18.0325 16.9347 17.8364 16.83C17.6402 16.7254 17.4048 16.6077 17.1041 16.49C16.8033 16.3723 16.6071 16.2547 16.5025 16.137C16.3979 16.0193 16.3456 15.8754 16.3456 15.6793C16.3456 15.4831 16.3979 15.3131 16.5156 15.2085C16.6202 15.0908 16.7771 15.0385 16.9864 15.0385C17.1956 15.0385 17.3525 15.117 17.4833 15.2608C17.601 15.4047 17.6664 15.627 17.6664 15.9277H18.7387C18.7387 15.4439 18.621 15.0516 18.3725 14.7508C18.1241 14.45 17.8756 14.267 17.431 14.2016V13.8093H16.5941V13.8485Z" fill="black"/>
</g>
<defs>
<clipPath id="clip0_1249_617">
<rect width="34" height="34" fill="white"/>
</clipPath>
</defs>
</svg>
