<svg width="40" height="38" viewBox="0 0 40 38" fill="none" xmlns="http://www.w3.org/2000/svg">
<circle cx="25" cy="23" r="15" fill="#E4EFF9"/>
<path d="M29.1498 25.66C28.9698 24.89 28.4598 24.24 27.7598 23.87C27.0598 23.5 26.2298 23.46 25.4998 23.76L23.0598 24.74C20.8598 25.62 18.3598 25.56 16.1998 24.57C16.0298 24.49 16.0098 24.34 15.9998 24.28C15.9898 24.22 16.0098 24.07 16.1598 23.97L18.1798 22.75C19.2198 22.12 19.6798 20.84 19.2798 19.69C18.9298 18.71 18.0298 18.03 16.9898 17.98C14.2298 17.83 11.4898 18.17 8.84978 19.01L7.04978 19.58C6.44978 18.61 5.38978 17.96 4.16978 17.96C2.29978 17.96 0.779785 19.48 0.779785 21.35V29.81C0.779785 31.68 2.29978 33.2 4.16978 33.2C5.25978 33.2 6.21978 32.68 6.83978 31.88L6.99978 31.94C8.40978 32.5 9.87978 32.88 11.3898 33.05C12.2598 33.15 13.1298 33.2 14.0098 33.2C18.1298 33.2 22.2098 32.07 25.7398 29.92L27.9198 28.6C28.9198 27.99 29.4198 26.81 29.1498 25.66ZM4.16978 32.2C2.84978 32.2 1.77979 31.13 1.77979 29.81V21.35C1.77979 20.03 2.84978 18.96 4.16978 18.96C5.48978 18.96 6.55978 20.03 6.55978 21.35V29.81C6.56978 31.13 5.48978 32.2 4.16978 32.2ZM27.3898 27.75L25.2098 29.07C21.1198 31.56 16.2498 32.62 11.4998 32.06C10.0798 31.89 8.68979 31.54 7.36979 31.01L7.33978 31C7.47978 30.63 7.56978 30.23 7.56978 29.81V21.35C7.56978 21.05 7.51979 20.77 7.44979 20.5L9.14978 19.96C11.6798 19.16 14.2998 18.83 16.9398 18.98C17.5798 19.01 18.1298 19.43 18.3398 20.03C18.5898 20.73 18.2998 21.52 17.6698 21.9L15.6498 23.12C15.2198 23.38 14.9798 23.84 14.9998 24.34C15.0198 24.84 15.3198 25.27 15.7798 25.48C18.1798 26.59 20.9698 26.66 23.4298 25.67L25.8698 24.69C26.3298 24.5 26.8598 24.53 27.2998 24.76C27.7398 24.99 28.0698 25.4 28.1798 25.89C28.3398 26.61 28.0298 27.36 27.3898 27.75Z" fill="black"/>
<path d="M14.9997 16.43C19.3097 16.43 22.8197 12.92 22.8197 8.61004C22.8197 4.30004 19.3097 0.790039 14.9997 0.790039C10.6897 0.790039 7.17969 4.30004 7.17969 8.61004C7.17969 12.92 10.6897 16.43 14.9997 16.43ZM14.9997 1.80004C18.7597 1.80004 21.8197 4.86004 21.8197 8.62004C21.8197 12.38 18.7597 15.44 14.9997 15.44C11.2397 15.44 8.17969 12.38 8.17969 8.62004C8.17969 4.85004 11.2397 1.80004 14.9997 1.80004Z" fill="black"/>
<path d="M15.0396 10.0601C14.8396 10.0601 14.6896 10.0001 14.5796 9.88005C14.4696 9.76005 14.4196 9.59005 14.4196 9.36005H13.5996C13.5996 9.75005 13.7096 10.0601 13.9196 10.2901C14.1296 10.5201 14.3596 10.6601 14.7396 10.7001V11.0101H15.2996V10.6901C15.6496 10.6501 15.8896 10.5401 16.0896 10.3401C16.2896 10.1401 16.3896 9.88005 16.3896 9.56005C16.3896 9.39005 16.3596 9.24005 16.3096 9.11005C16.2596 8.98005 16.1796 8.87005 16.0796 8.76005C15.9796 8.66005 15.8596 8.57005 15.7096 8.49005C15.5596 8.41005 15.3796 8.32005 15.1496 8.23005C14.9196 8.14005 14.7696 8.05005 14.6896 7.96005C14.6096 7.87005 14.5696 7.76005 14.5696 7.61005C14.5696 7.46005 14.6096 7.33005 14.6996 7.25005C14.7796 7.16005 14.8996 7.12005 15.0596 7.12005C15.2196 7.12005 15.3396 7.18005 15.4396 7.29005C15.5296 7.40005 15.5796 7.57005 15.5796 7.80005H16.3996C16.3996 7.43005 16.3096 7.13005 16.1196 6.90005C15.9296 6.67005 15.7396 6.53005 15.3996 6.48005V6.18005H14.7696V6.47005C14.4296 6.50005 14.2696 6.62005 14.0696 6.83005C13.8696 7.03005 13.7596 7.29005 13.7596 7.61005C13.7596 7.80005 13.7896 7.95005 13.8496 8.09005C13.9096 8.22005 13.9896 8.34005 14.0996 8.44005C14.2096 8.54005 14.3296 8.63005 14.4796 8.70005C14.6296 8.78005 14.8096 8.85005 15.0096 8.93005C15.2196 9.01005 15.3596 9.09005 15.4496 9.18005C15.5396 9.27005 15.5796 9.39005 15.5796 9.55005C15.5796 9.70005 15.5296 9.82005 15.4396 9.90005C15.3496 9.98005 15.2096 10.0601 15.0396 10.0601Z" fill="black"/>
</svg>
