<svg width="47" height="47" viewBox="0 0 47 47" fill="none" xmlns="http://www.w3.org/2000/svg">
<circle cx="23.5" cy="23.5" r="23.5" fill="#E4EFF9"/>
<path d="M18.0283 15.6429C17.476 15.6429 17.0283 16.0906 17.0283 16.6429V31.3571C17.0283 31.9094 17.476 32.3571 18.0283 32.3571H29.3997C29.952 32.3571 30.3997 31.9094 30.3997 31.3571V16.6429C30.3997 16.0906 29.952 15.6429 29.3997 15.6429H18.0283ZM27.0569 29.6571H20.3712C20.2007 29.6571 20.0372 29.5894 19.9166 29.4689C19.796 29.3483 19.7283 29.1848 19.7283 29.0143C19.7283 28.8438 19.796 28.6803 19.9166 28.5597C20.0372 28.4392 20.2007 28.3714 20.3712 28.3714H27.0569C27.2274 28.3714 27.3909 28.4392 27.5115 28.5597C27.632 28.6803 27.6997 28.8438 27.6997 29.0143C27.6997 29.1848 27.632 29.3483 27.5115 29.4689C27.3909 29.5894 27.2274 29.6571 27.0569 29.6571ZM27.0569 26.3143H20.3712C20.2007 26.3143 20.0372 26.2466 19.9166 26.126C19.796 26.0054 19.7283 25.8419 19.7283 25.6714C19.7283 25.5009 19.796 25.3374 19.9166 25.2169C20.0372 25.0963 20.2007 25.0286 20.3712 25.0286H27.0569C27.2274 25.0286 27.3909 25.0963 27.5115 25.2169C27.632 25.3374 27.6997 25.5009 27.6997 25.6714C27.6997 25.8419 27.632 26.0054 27.5115 26.126C27.3909 26.2466 27.2274 26.3143 27.0569 26.3143ZM27.0569 22.9714H20.3712C20.2007 22.9714 20.0372 22.9037 19.9166 22.7831C19.796 22.6626 19.7283 22.4991 19.7283 22.3286C19.7283 22.1581 19.796 21.9946 19.9166 21.874C20.0372 21.7534 20.2007 21.6857 20.3712 21.6857H27.0569C27.2274 21.6857 27.3909 21.7534 27.5115 21.874C27.632 21.9946 27.6997 22.1581 27.6997 22.3286C27.6997 22.4991 27.632 22.6626 27.5115 22.7831C27.3909 22.9037 27.2274 22.9714 27.0569 22.9714ZM27.0569 19.6286H20.3712C20.2007 19.6286 20.0372 19.5608 19.9166 19.4403C19.796 19.3197 19.7283 19.1562 19.7283 18.9857C19.7283 18.8152 19.796 18.6517 19.9166 18.5311C20.0372 18.4106 20.2007 18.3429 20.3712 18.3429H27.0569C27.2274 18.3429 27.3909 18.4106 27.5115 18.5311C27.632 18.6517 27.6997 18.8152 27.6997 18.9857C27.6997 19.1562 27.632 19.3197 27.5115 19.4403C27.3909 19.5608 27.2274 19.6286 27.0569 19.6286Z" fill="#444444"/>
</svg>
