<svg width="47" height="47" viewBox="0 0 47 47" fill="none" xmlns="http://www.w3.org/2000/svg">
<circle cx="23.5" cy="23.5" r="23.5" fill="#FFF1E3"/>
<g clip-path="url(#clip0_1527_165)">
<path d="M21.394 28.183C21.2832 28.183 21.1934 28.2728 21.1934 28.3836V29.3872C21.1934 29.4986 21.2832 29.588 21.394 29.588H21.8958H24.1038H24.6058C24.7166 29.588 24.8064 29.4986 24.8064 29.3872V28.3836C24.8064 28.2728 24.7166 28.183 24.6058 28.183H24.1038V23.065H24.6058C24.7166 23.065 24.8064 22.9752 24.8064 22.8642V21.8606C24.8064 21.7496 24.7166 21.6598 24.6058 21.6598H24.1038H21.8958H21.394C21.2832 21.6598 21.1934 21.7496 21.1934 21.8606V22.8642C21.1934 22.9752 21.2832 23.065 21.394 23.065H21.8958V28.183H21.394Z" fill="#444444"/>
<path d="M14.9717 30.2902V31.0932C14.9717 31.2044 15.0613 31.2938 15.1725 31.2938H30.8267C30.9381 31.2938 31.0275 31.2044 31.0275 31.0932V30.2902C31.0275 30.1788 30.9381 30.0894 30.8267 30.0894H15.1725C15.0613 30.0894 14.9717 30.1792 14.9717 30.2902Z" fill="#444444"/>
<path d="M15.9757 28.183C15.8647 28.183 15.7749 28.2728 15.7749 28.3836V29.3872C15.7749 29.4986 15.8647 29.588 15.9757 29.588H16.4775H18.6853H19.1871C19.2979 29.588 19.3877 29.4986 19.3877 29.3872V28.3836C19.3877 28.2728 19.2979 28.183 19.1871 28.183H18.6853V23.065H19.1871C19.2979 23.065 19.3877 22.9752 19.3877 22.8642V21.8606C19.3877 21.7496 19.2979 21.6598 19.1871 21.6598H18.6853H16.4775H15.9757C15.8647 21.6598 15.7749 21.7496 15.7749 21.8606V22.8642C15.7749 22.9752 15.8647 23.065 15.9757 23.065H16.4775V28.183H15.9757Z" fill="#444444"/>
<path d="M26.8131 28.183C26.7021 28.183 26.6123 28.2728 26.6123 28.3836V29.3872C26.6123 29.4986 26.7021 29.588 26.8131 29.588H27.3149H29.5227H30.0245C30.1355 29.588 30.2253 29.4986 30.2253 29.3872V28.3836C30.2253 28.2728 30.1355 28.183 30.0245 28.183H29.5227V23.065H30.0245C30.1355 23.065 30.2253 22.9752 30.2253 22.8642V21.8606C30.2253 21.7496 30.1355 21.6598 30.0245 21.6598H29.5227H27.3149H26.8131C26.7021 21.6598 26.6123 21.7496 26.6123 21.8606V22.8642C26.6123 22.9752 26.7021 23.065 26.8131 23.065H27.3149V28.183H26.8131Z" fill="#444444"/>
<path d="M31.5297 31.7958H14.4703C14.3593 31.7958 14.2695 31.8854 14.2695 31.9966V32.7994C14.2695 32.9102 14.3593 33 14.4703 33H31.5297C31.6409 33 31.7305 32.9102 31.7305 32.7992V31.9964C31.7305 31.8854 31.6409 31.7958 31.5297 31.7958Z" fill="#444444"/>
<path d="M14.8717 21.1584H31.1283C31.2393 21.1584 31.3291 21.0686 31.3291 20.9576V19.3622C31.3295 19.2514 31.2491 19.1208 31.1501 19.0708L23.1793 15.0374C23.0801 14.9874 22.9199 14.9874 22.8209 15.0374L14.8501 19.0708C14.7511 19.1208 14.6709 19.2512 14.6709 19.3622V20.9576C14.6709 21.0686 14.7607 21.1584 14.8717 21.1584ZM23.0001 16.1874C24.1345 16.1874 25.0543 17.107 25.0543 18.2416C25.0543 19.3762 24.1345 20.2958 23.0001 20.2958C21.8655 20.2958 20.9459 19.376 20.9459 18.2416C20.9459 17.1068 21.8655 16.1874 23.0001 16.1874Z" fill="#444444"/>
<ellipse cx="22.794" cy="18.4412" rx="2.38235" ry="2.38235" fill="#444444"/>
</g>
<defs>
<clipPath id="clip0_1527_165">
<rect width="20" height="18" fill="white" transform="translate(13 15)"/>
</clipPath>
</defs>
</svg>
