<svg width="47" height="47" viewBox="0 0 47 47" fill="none" xmlns="http://www.w3.org/2000/svg">
<circle cx="23.5" cy="23.5" r="23.5" fill="#F0DDF4"/>
<g clip-path="url(#clip0_1527_164)">
<path d="M21.0449 19.4266H24.9549C27.1615 17.5542 28.1647 16.7264 27.5089 16.0214C26.8047 15.264 25.9767 16.4794 25.0431 16.268C24.1095 16.0568 24.0213 15 22.9999 15C21.9785 15 21.8903 16.0568 20.9569 16.268C20.0233 16.4794 19.1955 15.264 18.4911 16.0214C17.8353 16.7264 18.8385 17.5542 21.0449 19.4266Z" fill="#444444"/>
<path d="M25.0126 20.3424H20.9874C19.664 21.5188 16.4834 24.6996 16.4834 28.1036C16.4834 31.4854 20.1466 33 23 33C25.8536 33 29.5166 31.4854 29.5166 28.104C29.5166 24.6998 26.3364 21.519 25.0126 20.3424ZM24.87 24.2268L24.4398 25.0578C24.4066 25.1226 24.345 25.1336 24.2896 25.109C24.0822 25.017 23.5824 24.8208 23.1012 24.8208C22.8262 24.8208 22.365 24.8834 22.365 25.3008C22.365 25.416 22.365 25.6856 23.1688 25.9304C24.246 26.2584 24.7916 26.8422 24.7916 27.6658C24.7916 28.3452 24.351 29.0686 23.3966 29.255V29.8956C23.3966 29.9684 23.3592 30.0054 23.2864 30.0054H22.714C22.641 30.0054 22.6038 29.9682 22.6038 29.8956V29.2866C21.9708 29.225 21.4022 28.9886 21.1788 28.8854C21.1236 28.86 21.0968 28.8046 21.1302 28.7396L21.5592 27.9082C21.5928 27.8434 21.654 27.8322 21.7096 27.8568C21.9174 27.949 22.4176 28.1458 22.8994 28.1458C23.1744 28.1458 23.6356 28.0832 23.6356 27.6656C23.6356 27.5504 23.6356 27.2806 22.8318 27.0362C21.7548 26.708 21.209 26.124 21.209 25.3006C21.209 24.6214 21.6492 23.8978 22.604 23.7112V23.0706C22.604 22.9978 22.6412 22.9606 22.7142 22.9606H23.2864C23.3594 22.9606 23.3966 22.9978 23.3966 23.0706V23.68C24.0294 23.7412 24.5984 23.9778 24.8216 24.0812C24.8764 24.1066 24.9036 24.1622 24.87 24.2268Z" fill="#444444"/>
</g>
<defs>
<clipPath id="clip0_1527_164">
<rect width="20" height="18" fill="white" transform="translate(13 15)"/>
</clipPath>
</defs>
</svg>
