<svg width="47" height="47" viewBox="0 0 47 47" fill="none" xmlns="http://www.w3.org/2000/svg">
<circle cx="23.5" cy="23.5" r="23.5" fill="#DAF5F8"/>
<g clip-path="url(#clip0_1527_162)">
<path d="M33.6021 16.9207H12.3981C11.3944 16.9207 11 17.3038 11 18.28V29.7203C11 30.6959 11.3944 31.0793 12.3981 31.0793H33.6021C34.6059 31.0793 35.0003 30.6959 35.0003 29.7203V18.28C35 17.3038 34.6056 16.9207 33.6021 16.9207ZM30.1291 29.72H15.8712C15.3915 28.0924 14.0725 26.8098 12.3981 26.3439V21.6563C14.0725 21.1899 15.3915 19.9078 15.8712 18.28H30.1291C30.6088 19.9078 31.9275 21.1901 33.6016 21.6563V26.3437H33.6019C31.9277 26.8101 30.6088 28.0921 30.1291 29.72Z" fill="#444444"/>
<path d="M23.0006 19.7523C20.5878 19.7523 18.6318 21.6537 18.6318 23.9997C18.6318 26.3458 20.5878 28.2474 23.0006 28.2474C25.4134 28.2474 27.3697 26.3458 27.3697 23.9997C27.3697 21.6537 25.4134 19.7523 23.0006 19.7523ZM24.7396 21.9591L24.3396 22.7104C24.3084 22.7693 24.251 22.7794 24.1998 22.7568C24.0062 22.6739 23.5417 22.4963 23.0942 22.4963C22.8382 22.4963 22.4092 22.5525 22.4092 22.9305C22.4092 23.0345 22.4092 23.2785 23.1572 23.4996C24.1588 23.7967 24.6668 24.3246 24.6668 25.0692C24.6668 25.6836 24.2569 26.338 23.3689 26.507V27.0857C23.3689 27.1521 23.3345 27.1855 23.2665 27.1855H22.734C22.666 27.1855 22.6316 27.1521 22.6316 27.0857V26.5353C22.0428 26.4795 21.5137 26.2659 21.306 26.1726C21.2548 26.1493 21.2294 26.0995 21.2609 26.0406L21.6598 25.2888C21.691 25.2302 21.7481 25.2201 21.7996 25.2424C21.9929 25.3256 22.4582 25.5037 22.9062 25.5037C23.162 25.5037 23.5913 25.4474 23.5913 25.0692C23.5913 24.9652 23.5913 24.7213 22.8433 24.5004C21.8414 24.2033 21.3337 23.6751 21.3337 22.9305C21.3337 22.3161 21.7436 21.6617 22.6313 21.493V20.9138C22.6313 20.8477 22.6657 20.8142 22.7337 20.8142H23.2662C23.3342 20.8142 23.3686 20.8477 23.3686 20.9138V21.4647C23.9574 21.5202 24.4865 21.7341 24.6945 21.8271C24.7462 21.8502 24.771 21.9003 24.7396 21.9591Z" fill="#444444"/>
</g>
<defs>
<clipPath id="clip0_1527_162">
<rect width="24" height="14" fill="white" transform="translate(11 17)"/>
</clipPath>
</defs>
</svg>
