<svg width="47" height="47" viewBox="0 0 47 47" fill="none" xmlns="http://www.w3.org/2000/svg">
<circle cx="23.5" cy="23.5" r="23.5" fill="#DAF5F8"/>
<path fill-rule="evenodd" clip-rule="evenodd" d="M23.3256 16.4987C25.0658 17.2932 26.9016 18.1148 28.8607 17.9967L29.4502 17.9611V24.4119C29.4502 28.0659 26.7879 31.2262 23.1902 31.8533L23.0947 31.87L22.9992 31.8533C19.4014 31.2262 16.7391 28.0659 16.7391 24.4119V17.9611L17.3286 17.9967C19.2878 18.115 21.1234 17.2934 22.8635 16.4987L23.0947 16.3932L23.3256 16.4987ZM22.5513 24.9927L20.9244 23.3658C20.6319 23.0733 20.1576 23.0733 19.8651 23.3658C19.5725 23.6584 19.5725 24.1326 19.8651 24.4252L22.023 26.5831C22.3155 26.8757 22.7898 26.8757 23.0823 26.5831C24.3827 25.2828 25.6683 23.9676 26.9628 22.6614C27.253 22.3685 27.2525 21.8957 26.9597 21.6047C26.6672 21.3138 26.1935 21.3142 25.9029 21.6077L22.5513 24.9927ZM23.0947 17.0045C21.2221 17.8595 19.3613 18.6762 17.2953 18.5517V24.4121C17.2953 27.8065 19.7734 30.7267 23.0947 31.3057C26.4159 30.7267 28.8941 27.8065 28.8941 24.4121V18.5517C26.8281 18.6762 24.9672 17.8595 23.0947 17.0045ZM16.7244 17.0852C16.5144 17.0471 16.3185 17.0986 16.1548 17.2354C15.9911 17.372 15.9053 17.5556 15.9053 17.769V24.4119C15.9053 28.6184 19.0437 32.1271 23.0949 32.7132C27.1458 32.1271 30.2842 28.6186 30.2842 24.4119V17.769C30.2842 17.5556 30.1984 17.3722 30.0347 17.2354C29.871 17.0988 29.6749 17.0471 29.4651 17.0852C27.3241 17.4738 25.4733 16.5577 23.0947 15.4763C20.716 16.5577 18.8652 17.4738 16.7244 17.0852Z" fill="#444444"/>
</svg>
