<svg width="47" height="47" viewBox="0 0 47 47" fill="none" xmlns="http://www.w3.org/2000/svg">
<circle cx="23.5" cy="23.5" r="23.5" fill="#FFF1E3"/>
<path d="M14.4313 30H16.7937C16.9812 30 17.1313 29.85 17.1313 29.6625V27.4125C17.1313 27.225 16.9812 27.075 16.7937 27.075H14.4313C14.2438 27.075 14.0938 27.225 14.0938 27.4125V29.6625C14.0938 29.85 14.2438 30 14.4313 30Z" fill="#444444"/>
<path d="M29.9938 31.35H14.4313C14.2438 31.35 14.0938 31.5 14.0938 31.6875V32.55C14.0938 32.7375 14.2438 32.8875 14.4313 32.8875H29.9938C30.1813 32.8875 30.3312 32.7375 30.3312 32.55V31.6875C30.35 31.5 30.1813 31.35 29.9938 31.35Z" fill="#444444"/>
<path d="M18.8375 30H21.2C21.3875 30 21.5375 29.85 21.5375 29.6625V24.6375C21.5375 24.45 21.3875 24.3 21.2 24.3H18.8375C18.65 24.3 18.5 24.45 18.5 24.6375V29.6437C18.5 29.85 18.65 30 18.8375 30Z" fill="#444444"/>
<path d="M23.2438 30H25.6063C25.7938 30 25.9438 29.85 25.9438 29.6625V21.8813C25.9438 21.6938 25.7938 21.5438 25.6063 21.5438H23.2438C23.0562 21.5438 22.9062 21.6938 22.9062 21.8813V29.6438C22.9062 29.85 23.0562 30 23.2438 30Z" fill="#444444"/>
<path d="M31.8312 18.9375L29.0937 15.2437C28.9624 15.0562 28.6812 15.0562 28.5312 15.2437L25.8124 18.9375C25.6437 19.1625 25.8124 19.4812 26.0937 19.4812H27.3124V29.6437C27.3124 29.8312 27.4624 29.9812 27.6499 29.9812H30.0124C30.1999 29.9812 30.3499 29.8312 30.3499 29.6437V19.4812H31.5687C31.8499 19.4812 31.9999 19.1625 31.8312 18.9375Z" fill="#444444"/>
</svg>
