<svg width="47" height="47" viewBox="0 0 47 47" fill="none" xmlns="http://www.w3.org/2000/svg">
<circle cx="23.5" cy="23.5" r="23.5" fill="#E4EFF9"/>
<g clip-path="url(#clip0_1527_163)">
<path d="M34.417 23.5462L30.9832 20.6982V15.3543C30.9832 15.2271 30.8802 15.1239 30.7528 15.1239H27.4515C27.3243 15.1239 27.221 15.2271 27.221 15.3543V17.5775L24.197 15.0689C24.0011 14.9064 23.6838 14.9064 23.4879 15.0689L13.2679 23.5462C13.1699 23.6277 13.1564 23.7729 13.2378 23.8704L14.2672 25.1115C14.3486 25.2095 14.4938 25.223 14.5914 25.1416L23.8425 17.4684L33.0937 25.1416C33.1913 25.223 33.3365 25.2095 33.418 25.1115L34.4473 23.8704C34.5285 23.7729 34.5153 23.6277 34.417 23.5462Z" fill="#444444"/>
<path d="M23.8421 18.7705L15.6879 25.5345C15.5901 25.6162 15.5107 25.7851 15.5107 25.9123V32.3423C15.5107 32.8524 15.7111 33.0528 16.2213 33.0528H31.463C31.9732 33.0528 32.1735 32.8524 32.1735 32.3423V25.912C32.1735 25.7848 32.0942 25.616 31.9966 25.5343L23.8421 18.7705Z" fill="#444444"/>
</g>
<defs>
<clipPath id="clip0_1527_163">
<rect width="23.6842" height="18" fill="white" transform="translate(12 15)"/>
</clipPath>
</defs>
</svg>
