<svg fill="none" height="48" viewBox="0 0 48 48" width="48" xmlns="http://www.w3.org/2000/svg"><g fill="#fca440"><circle cx="24" cy="24" fill-opacity=".2" r="24"/><path d="m24.5002 13.5208c-1.2484 0-2.2605 1.012-2.2605 2.2604s1.0121 2.2604 2.2605 2.2604 2.2604-1.012 2.2604-2.2604-1.012-2.2604-2.2604-2.2604zm0 3.2292c-.5341 0-.9688-.4347-.9688-.9688s.4347-.9687.9688-.9687.9687.4346.9687.9687-.4346.9688-.9687.9688z"/><path d="m40 20.625v-2.5833l-15.5-7.75-15.5 7.75v2.5833h2.5833v12.9167h-2.5833v5.1666h.94421 2.93079 27.125v-5.1666h-2.5833v-12.9167zm-1.2917 14.2083v2.5834h-28.4166v-2.5834h22.2295c.1176 0 .1576 0 .1563 0zm-25.8333-1.2916v-12.9167h2.5833v12.9167zm3.875 0v-12.9167h5.1667v12.9167zm6.4583 0v-12.9167h2.5834v12.9167zm3.875 0v-12.9167h5.1667v12.9167zm6.4584 0v-12.9167h2.5833v12.9167zm-23.25-14.2084v-.4934l14.2083-7.1042 14.2083 7.1042v.4934c-3.1846 0-25.3425 0-28.4166 0z"/></g></svg>