<svg width="48" height="48" viewBox="0 0 48 48" fill="none" xmlns="http://www.w3.org/2000/svg">
<circle cx="24" cy="24" r="24" fill="#00CA83" fill-opacity="0.2"/>
<g clip-path="url(#clip0)">
<path d="M22.2273 28.3824C22.4793 28.1304 22.4793 27.7225 22.2273 27.4705C21.975 27.2192 21.5663 27.2192 21.3138 27.4705C21.0621 27.7225 21.0621 28.1304 21.3138 28.3824C21.5663 28.6336 21.975 28.6336 22.2273 28.3824Z" fill="#00CA83"/>
<path d="M19.1699 13.0878C19.1699 16.9961 22.3557 20.1759 26.2716 20.1759C30.1875 20.1759 33.3733 16.9961 33.3733 13.0878C33.3733 9.1796 30.1875 6 26.2716 6C22.3557 6 19.1699 9.1796 19.1699 13.0878ZM32.0822 13.0878C32.0822 16.2856 29.4756 18.8871 26.2716 18.8871C23.0676 18.8871 20.461 16.2856 20.461 13.0878C20.461 9.89035 23.0676 7.28881 26.2716 7.28881C29.4756 7.28881 32.0822 9.89035 32.0822 13.0878Z" fill="#00CA83"/>
<path d="M14.4686 38.8094C14.7189 39.0612 15.1263 39.064 15.3798 38.8147L18.5099 35.7371C19.0416 35.2064 19.2033 34.4206 18.9695 33.7375L19.6428 33.0895C20.0053 32.74 20.4826 32.5474 20.9871 32.5474H29.5698C31.0925 32.5474 32.5316 31.9638 33.6227 30.9041C33.6676 30.8606 33.2819 31.314 39.478 23.923C40.3969 22.8379 40.2595 21.2084 39.1712 20.2902C38.0898 19.3806 36.4697 19.5113 35.5482 20.5778L31.7385 24.4857C31.2575 23.8948 30.5239 23.5265 29.7313 23.5265H22.5319C21.5075 23.0987 20.4205 22.8822 19.2989 22.8822C16.1901 22.8822 13.4755 24.3153 12.0186 27.0022C11.4049 26.8861 10.7576 27.0714 10.2919 27.5362L7.2206 30.6105C6.96985 30.8616 6.96935 31.2677 7.2196 31.5194L14.4686 38.8094ZM19.2987 24.1708C20.2876 24.1708 21.2436 24.3694 22.1409 24.7612C22.2227 24.7969 22.3107 24.8153 22.3998 24.8153H29.7313C30.4313 24.8153 31.0226 25.3851 31.0226 26.1039C31.0226 26.8146 30.4434 27.3927 29.7313 27.3927H24.4638C24.1073 27.3927 23.8182 27.6812 23.8182 28.037C23.8182 28.393 24.1073 28.6812 24.4638 28.6812H29.7313C31.1553 28.6812 32.3137 27.5251 32.3137 26.1039C32.3137 25.9906 32.3056 25.8783 32.291 25.767C35.9763 21.9862 36.496 21.4549 36.5182 21.4285C36.9783 20.8864 37.7951 20.8177 38.3385 21.2749C38.8824 21.7339 38.9512 22.5486 38.4898 23.0937L32.6992 30.0028C31.8536 30.813 30.7434 31.2589 29.5698 31.2589H20.9871C20.146 31.2589 19.3499 31.5799 18.746 32.1622L18.1973 32.6907L13.1394 27.6429C14.3216 25.4296 16.5397 24.1708 19.2987 24.1708ZM11.2056 28.4468C11.4185 28.2343 11.7454 28.1961 12.005 28.3562C12.1168 28.4242 11.7959 28.1326 17.5969 33.9143C17.855 34.1718 17.8411 34.5822 17.6005 34.8224L14.932 37.4461L8.58837 31.0665L11.2056 28.4468Z" fill="#00CA83"/>
<path d="M25.4972 9.22189V9.97695C24.7457 10.2428 24.2058 10.9591 24.2058 11.7993C24.2058 12.865 25.0746 13.7324 26.1427 13.7324C26.4986 13.7324 26.7882 14.0214 26.7882 14.3766C26.7882 14.7319 26.4986 15.0209 26.1427 15.0209C25.867 15.0209 25.569 14.8479 25.3044 14.5335C25.0749 14.2611 24.6677 14.2261 24.3948 14.4549C24.1218 14.684 24.0865 15.0904 24.3161 15.3628C24.6612 15.7724 25.067 16.058 25.4972 16.202V16.954C25.4972 17.31 25.7862 17.5983 26.1427 17.5983C26.4991 17.5983 26.7882 17.31 26.7882 16.954V16.1989C27.5397 15.9328 28.0796 15.2165 28.0796 14.3766C28.0796 13.3106 27.2108 12.4435 26.1427 12.4435C25.7868 12.4435 25.4972 12.1545 25.4972 11.7993C25.4972 11.444 25.7868 11.1547 26.1427 11.1547C26.3715 11.1547 26.6129 11.2713 26.841 11.4916C27.0973 11.7391 27.5059 11.7323 27.7539 11.4767C28.0019 11.2209 27.9951 10.8131 27.739 10.5656C27.4113 10.2491 27.0834 10.0701 26.7882 9.97242V9.22189C26.7882 8.86589 26.4991 8.57736 26.1427 8.57736C25.7862 8.57736 25.4972 8.86589 25.4972 9.22189Z" fill="#00CA83"/>
</g>
<defs>
<clipPath id="clip0">
<rect width="33" height="33" fill="white" transform="translate(7 6)"/>
</clipPath>
</defs>
</svg>
