<svg fill="none" height="48" viewBox="0 0 48 48" width="48" xmlns="http://www.w3.org/2000/svg" xmlns:xlink="http://www.w3.org/1999/xlink"><clipPath id="a"><path d="m10 10h29v29h-29z"/></clipPath><g fill="#00ca83"><circle cx="24" cy="24" fill-opacity=".2" r="24"/><g clip-path="url(#a)"><path d="m36.7885 17.8655-.0005-.0277c-.0137-.723-.0267-1.4059-.0267-2.0629 0-.9952-.8097-1.8049-1.8049-1.8049-3.851 0-6.7738-1.098-9.1982-3.4553-.7056-.68623-1.8111-.68629-2.5167-.0001-2.4243 2.3574-5.3467 3.4554-9.1971 3.4554-.9953 0-1.805.8097-1.805 1.8049 0 .6711-.0132 1.3608-.0272 2.0911-.0651 3.4094-.1462 7.6525 1.2778 11.504.7829 2.1179 1.9684 3.9584 3.5236 5.4704 1.7712 1.7221 4.0911 3.088 6.895 4.0599.1907.0662.3896.0997.5912.0997.2019 0 .4009-.0336.5912-.0996 2.8042-.972 5.1243-2.338 6.8957-4.0601 1.5552-1.5121 2.7409-3.3526 3.5239-5.4705 1.4241-3.8518 1.343-8.095 1.2779-11.5043zm-2.8715 10.9151c-1.5017 4.0616-4.5708 6.8467-9.383 8.5147-.022.0076-.0461.0077-.0689-.0002-4.8114-1.6677-7.8802-4.4527-9.3816-8.5142-1.3127-3.5507-1.2383-7.4458-1.1727-10.8824.0142-.7386.0275-1.4362.0275-2.1236 0-.0584.0476-.1059.106-.1059 4.3211 0 7.6199-1.2508 10.3817-3.9363.0206-.0201.0472-.0302.0738-.0302.0265 0 .0531.0101.0739.0302 2.7619 2.6855 6.061 3.9363 10.3826 3.9363.0584 0 .106.0475.106.1059 0 .6732.013 1.3639.027 2.0951l.0005.0278c.0657 3.4367.14 7.3319-1.1728 10.8828z"/><path d="m29.7788 21.6732h-2.7334v-2.7338c0-.4691-.3803-.8495-.8495-.8495h-3.3904c-.4692 0-.8495.3804-.8495.8495v2.7338h-2.7339c-.4692 0-.8495.3803-.8495.8495v3.3904c0 .4692.3803.8495.8495.8495h2.7339v2.7337c0 .4692.3803.8495.8495.8495h3.3904c.4692 0 .8495-.3803.8495-.8495v-2.7337h2.7335c.4691 0 .8495-.3803.8495-.8495v-3.3904c-.0001-.4692-.3804-.8495-.8496-.8495zm-.8495 3.3904h-2.7334c-.4691 0-.8495.3804-.8495.8495v2.7337h-1.6914v-2.7337c0-.4691-.3804-.8495-.8495-.8495h-2.7339v-1.6914h2.7339c.4691 0 .8495-.3803.8495-.8495v-2.7338h1.6914v2.7338c0 .4692.3804.8495.8495.8495h2.7335v1.6914z"/></g></g></svg>