<svg fill="none" height="48" viewBox="0 0 48 48" width="48" xmlns="http://www.w3.org/2000/svg"><g fill="#18cdf7"><circle cx="24" cy="24" fill-opacity=".2" r="24"/><path d="m32.4753 7.22154c-.1339-.14007-.3189-.21987-.5126-.22154h-12.5714c-1.5753 0-2.8914 1.29129-2.8914 2.86663v2.13337h-3.5372c-1.5753 0-2.8914 1.3105-2.8914 2.8856v22.2478c0 1.5753 1.3161 2.8666 2.8914 2.8666h16.6457c1.5753 0 2.8914-1.2913 2.8914-2.8666v-2.1334h3.5372c1.5753 0 2.8914-1.3105 2.8914-2.8856v-17.9858c-.0064-.1886-.0848-.3674-.219-.5zm.1674 2.26367 3.8482 3.94339h-3.3638c-.2578-.0045-.469-.2068-.4844-.4643zm-1.5714 27.64819c0 .7876-.6752 1.438-1.4629 1.438h-16.6457c-.7876 0-1.4628-.6504-1.4628-1.438v-22.2478c.0147-.8008.6621-1.4453 1.4628-1.457h3.5372v18.6858c0 1.5753 1.3161 2.8856 2.8914 2.8856h11.68zm4.9657-3.562h-16.6457c-.8008-.0117-1.4481-.6562-1.4629-1.457v-22.24777c0-.78767.6753-1.43806 1.4629-1.43806h11.8228v4.53573c0 1.0357.8773 1.8928 1.913 1.8928h4.3727v17.2573c-.0147.8008-.6621 1.4453-1.4628 1.457z"/><path d="m34.2359 29.2143h-13.4015c-.3945 0-.7143.3197-.7143.7143 0 .3945.3198.7143.7143.7143h13.4015c.3945 0 .7143-.3198.7143-.7143 0-.3946-.3198-.7143-.7143-.7143z"/><path d="m20.8344 27.5h8.0229c.3945 0 .7143-.3197.7143-.7143 0-.3945-.3198-.7143-.7143-.7143h-8.0229c-.3945 0-.7143.3198-.7143.7143 0 .3946.3198.7143.7143.7143z"/><path d="m27.7144 22.2341c-.6911-.0008-1.2511-.5608-1.2516-1.2517 0-.3945-.3201-.7143-.7143-.7143-.3946 0-.7143.3198-.7143.7143.0014 1.1772.7695 2.216 1.8945 2.5625v.598c0 .3945.3198.7143.7143.7143s.7143-.3198.7143-.7143v-.5586c1.3156-.3251 2.1816-1.5807 2.0181-2.9258-.1638-1.3454-1.3058-2.3566-2.661-2.3566-.6914 0-1.2516-.5603-1.2516-1.2517-.0003-.6911.5602-1.2516 1.2513-1.2516.6915-.0003 1.252.5602 1.252 1.2514 0 .3945.32.7142.7143.7142.3945 0 .7143-.3197.7143-.7142-.0017-1.2319-.8418-2.3047-2.0374-2.6016v-.6627c0-.3945-.3198-.7143-.7143-.7143s-.7143.3198-.7143.7143v.7018c-1.2684.3892-2.0614 1.6478-1.8647 2.9598.1967 1.3122 1.3237 2.2829 2.6504 2.2832.6914-.0053 1.2559.551 1.2612 1.2422.0053.6914-.5508 1.2561-1.2422 1.2611-.0064 0-.0126 0-.019 0z"/></g></svg>