<svg width="74" height="67" viewBox="0 0 74 67" fill="none" xmlns="http://www.w3.org/2000/svg">
<circle cx="57" cy="49.5" r="17" fill="#D6E6F4"/>
<path d="M50.0267 54.9387H4.97349C3.671 54.9379 2.42207 54.4201 1.50106 53.4991C0.580057 52.5781 0.0622985 51.3292 0.0615234 50.0267V4.97349C0.0622985 3.671 0.580057 2.42207 1.50106 1.50106C2.42207 0.580057 3.671 0.0622985 4.97349 0.0615234H50.0267C51.3292 0.0622985 52.5781 0.580057 53.4991 1.50106C54.4201 2.42207 54.9379 3.671 54.9387 4.97349V50.0267C54.9379 51.3292 54.4201 52.5781 53.4991 53.4991C52.5781 54.4201 51.3292 54.9379 50.0267 54.9387ZM4.97349 1.23174C3.98112 1.23174 3.02939 1.62596 2.32767 2.32767C1.62596 3.02939 1.23174 3.98112 1.23174 4.97349V50.0267C1.23174 51.0191 1.62596 51.9708 2.32767 52.6725C3.02939 53.3742 3.98112 53.7684 4.97349 53.7684H50.0267C51.0191 53.7684 51.9708 53.3742 52.6725 52.6725C53.3742 51.9708 53.7684 51.0191 53.7684 50.0267V4.97349C53.7684 3.98112 53.3742 3.02939 52.6725 2.32767C51.9708 1.62596 51.0191 1.23174 50.0267 1.23174H4.97349Z" fill="#263B48"/>
<path d="M41.7355 49.5672H13.2643C11.1879 49.5649 9.19724 48.739 7.72902 47.2708C6.2608 45.8026 5.43494 43.8119 5.43262 41.7355V41.3494C5.43262 41.1942 5.49426 41.0454 5.60399 40.9356C5.71372 40.8259 5.86254 40.7643 6.01772 40.7643H7.52437V31.5518H6.01772C5.86254 31.5518 5.71372 31.4901 5.60399 31.3804C5.49426 31.2707 5.43262 31.1218 5.43262 30.9667V24.0331C5.43262 23.878 5.49426 23.7291 5.60399 23.6194C5.71372 23.5097 5.86254 23.448 6.01772 23.448H7.52437V14.2355H6.01772C5.86254 14.2355 5.71372 14.1739 5.60399 14.0642C5.49426 13.9544 5.43262 13.8056 5.43262 13.6504V13.2643C5.43494 11.1879 6.2608 9.19724 7.72902 7.72902C9.19724 6.2608 11.1879 5.43494 13.2643 5.43262H41.7355C43.8119 5.43494 45.8026 6.2608 47.2708 7.72902C48.739 9.19724 49.5649 11.1879 49.5672 13.2643V41.7355C49.5649 43.8119 48.739 45.8026 47.2708 47.2708C45.8026 48.739 43.8119 49.5649 41.7355 49.5672ZM6.60576 41.9345C6.65968 43.6653 7.38456 45.3072 8.62716 46.5133C9.86975 47.7193 11.5326 48.3948 13.2643 48.397H41.7355C43.5016 48.3947 45.1946 47.6921 46.4433 46.4433C47.6921 45.1946 48.3947 43.5016 48.397 41.7355V13.2643C48.3947 11.4983 47.6921 9.80524 46.4433 8.55648C45.1946 7.30773 43.5016 6.60515 41.7355 6.60283H13.2643C11.5326 6.60503 9.86975 7.28055 8.62716 8.48656C7.38456 9.69257 6.65968 11.3346 6.60576 13.0653H8.10948C8.26466 13.0653 8.41348 13.127 8.52321 13.2367C8.63294 13.3464 8.69459 13.4953 8.69459 13.6504V24.0331C8.69459 24.1883 8.63294 24.3372 8.52321 24.4469C8.41348 24.5566 8.26466 24.6183 8.10948 24.6183H6.60283V30.3816H8.10948C8.26466 30.3816 8.41348 30.4432 8.52321 30.5529C8.63294 30.6627 8.69459 30.8115 8.69459 30.9667V41.3494C8.69459 41.5046 8.63294 41.6534 8.52321 41.7631C8.41348 41.8728 8.26466 41.9345 8.10948 41.9345H6.60576Z" fill="#263B48"/>
<path d="M27.5 44.1961C25.2594 44.1967 23.0689 43.5327 21.2056 42.2883C19.3423 41.0438 17.89 39.2747 17.0323 37.2047C16.1745 35.1347 15.95 32.8569 16.387 30.6592C16.8239 28.4616 17.9029 26.4429 19.4872 24.8586C21.0716 23.2742 23.0903 22.1953 25.2879 21.7583C27.4855 21.3213 29.7634 21.5459 31.8334 22.4036C33.9033 23.2613 35.6725 24.7137 36.9169 26.577C38.1614 28.4402 38.8253 30.6307 38.8248 32.8714C38.8217 35.8739 37.6275 38.7526 35.5044 40.8757C33.3813 42.9989 30.5026 44.193 27.5 44.1961ZM27.5 22.7139C25.4909 22.7133 23.5268 23.3086 21.8561 24.4243C20.1853 25.5401 18.8829 27.1263 18.1137 28.9822C17.3444 30.8382 17.1429 32.8806 17.5345 34.8512C17.9261 36.8217 18.8932 38.6319 20.3137 40.0527C21.7341 41.4736 23.544 42.4413 25.5144 42.8334C27.4848 43.2256 29.5273 43.0246 31.3835 42.2559C33.2397 41.4872 34.8263 40.1853 35.9425 38.5148C37.0588 36.8444 37.6546 34.8804 37.6546 32.8714C37.6515 30.1789 36.5807 27.5975 34.6771 25.6934C32.7735 23.7893 30.1925 22.7178 27.5 22.7139Z" fill="#263B48"/>
<path d="M27.4998 38.8246C26.3217 38.8246 25.1699 38.4752 24.1904 37.8206C23.2108 37.166 22.4473 36.2355 21.9966 35.147C21.5458 34.0584 21.4281 32.8606 21.6581 31.7051C21.8882 30.5496 22.4558 29.4883 23.2891 28.6554C24.1224 27.8225 25.184 27.2555 26.3396 27.026C27.4952 26.7965 28.6929 26.9148 29.7813 27.3661C30.8696 27.8174 31.7997 28.5813 32.4538 29.5612C33.108 30.5411 33.4568 31.693 33.4562 32.8712C33.4539 34.4499 32.8255 35.9633 31.7089 37.0794C30.5923 38.1954 29.0786 38.8231 27.4998 38.8246ZM27.4998 28.085C26.5532 28.085 25.6279 28.3657 24.8408 28.8916C24.0537 29.4175 23.4403 30.165 23.078 31.0396C22.7157 31.9141 22.621 32.8765 22.8056 33.8049C22.9903 34.7333 23.4462 35.5862 24.1155 36.2555C24.7849 36.9249 25.6377 37.3807 26.5661 37.5654C27.4945 37.7501 28.4569 37.6553 29.3314 37.293C30.206 36.9308 30.9535 36.3173 31.4794 35.5302C32.0053 34.7432 32.286 33.8178 32.286 32.8712C32.2845 31.6023 31.7797 30.3858 30.8825 29.4886C29.9852 28.5913 28.7687 28.0866 27.4998 28.085Z" fill="#263B48"/>
<path d="M8.10944 24.6184H3.92593C3.77075 24.6184 3.62192 24.5567 3.51219 24.447C3.40247 24.3373 3.34082 24.1884 3.34082 24.0332V13.6505C3.34082 13.4954 3.40247 13.3465 3.51219 13.2368C3.62192 13.1271 3.77075 13.0654 3.92593 13.0654H8.10944C8.26462 13.0654 8.41344 13.1271 8.52317 13.2368C8.6329 13.3465 8.69455 13.4954 8.69455 13.6505V24.0332C8.69455 24.1884 8.6329 24.3373 8.52317 24.447C8.41344 24.5567 8.26462 24.6184 8.10944 24.6184ZM4.51103 23.4481H7.52433V14.2356H4.51103V23.4481Z" fill="#263B48"/>
<path d="M8.10944 41.9345H3.92593C3.77075 41.9345 3.62192 41.8729 3.51219 41.7631C3.40247 41.6534 3.34082 41.5046 3.34082 41.3494V30.9667C3.34082 30.8115 3.40247 30.6627 3.51219 30.553C3.62192 30.4432 3.77075 30.3816 3.92593 30.3816H8.10944C8.26462 30.3816 8.41344 30.4432 8.52317 30.553C8.6329 30.6627 8.69455 30.8115 8.69455 30.9667V41.3494C8.69455 41.5046 8.6329 41.6534 8.52317 41.7631C8.41344 41.8729 8.26462 41.9345 8.10944 41.9345ZM4.51103 40.7643H7.52433V31.5518H4.51103V40.7643Z" fill="#263B48"/>
<path d="M27.5001 28.0852C27.345 28.0852 27.1961 28.0235 27.0864 27.9138C26.9767 27.8041 26.915 27.6553 26.915 27.5001V22.1288C26.915 21.9736 26.9767 21.8248 27.0864 21.7151C27.1961 21.6053 27.345 21.5437 27.5001 21.5437C27.6553 21.5437 27.8041 21.6053 27.9139 21.7151C28.0236 21.8248 28.0853 21.9736 28.0853 22.1288V27.5001C28.0853 27.6553 28.0236 27.8041 27.9139 27.9138C27.8041 28.0235 27.6553 28.0852 27.5001 28.0852Z" fill="#263B48"/>
<path d="M39.9131 17.3454H15.0871C14.9319 17.3454 14.7831 17.2838 14.6733 17.1741C14.5636 17.0643 14.502 16.9155 14.502 16.7603V11.904C14.502 11.7488 14.5636 11.5999 14.6733 11.4902C14.7831 11.3805 14.9319 11.3188 15.0871 11.3188H39.9131C40.0683 11.3188 40.2171 11.3805 40.3269 11.4902C40.4366 11.5999 40.4982 11.7488 40.4982 11.904V16.7603C40.4982 16.9155 40.4366 17.0643 40.3269 17.1741C40.2171 17.2838 40.0683 17.3454 39.9131 17.3454ZM15.6722 16.1752H39.328V12.4891H15.6722V16.1752Z" fill="#263B48"/>
</svg>
