<svg width="96" height="67" viewBox="0 0 96 67" fill="none" xmlns="http://www.w3.org/2000/svg">
<circle cx="79" cy="49.5" r="17" fill="#D6E6F4"/>
<g clip-path="url(#clip0_1273_212)">
<path d="M71.412 54.8607H6.18801C4.5273 54.8586 2.93503 54.2011 1.75961 53.0322C0.58418 51.8633 -0.0786968 50.278 -0.0839844 48.6233V6.37697C-0.0786968 4.72228 0.58418 3.13704 1.75961 1.96811C2.93503 0.799187 4.5273 0.141748 6.18801 0.139648H71.412C73.0727 0.141748 74.665 0.799187 75.8404 1.96811C77.0158 3.13704 77.6787 4.72228 77.684 6.37697V48.6233C77.6787 50.278 77.0158 51.8633 75.8404 53.0322C74.665 54.2011 73.0727 54.8586 71.412 54.8607ZM6.18801 1.73385C4.95132 1.7349 3.76541 2.22404 2.88981 3.09422C2.01421 3.96441 1.52025 5.14476 1.51602 6.37697V48.6233C1.51707 49.8576 2.00964 51.041 2.88558 51.9138C3.76152 52.7866 4.94925 53.2774 6.18801 53.2784H71.412C72.6508 53.2774 73.8385 52.7866 74.7144 51.9138C75.5904 51.041 76.083 49.8576 76.084 48.6233V6.37697C76.083 5.14269 75.5904 3.95927 74.7144 3.0865C73.8385 2.21373 72.6508 1.72295 71.412 1.7219L6.18801 1.73385Z" fill="#263B48"/>
<path d="M76.884 20.7245H0.716016C0.503842 20.7245 0.300359 20.6405 0.15033 20.4911C0.000300482 20.3416 -0.0839844 20.1388 -0.0839844 19.9274V12.355C-0.0839844 12.1436 0.000300482 11.9408 0.15033 11.7913C0.300359 11.6418 0.503842 11.5579 0.716016 11.5579H76.884C77.0962 11.5579 77.2997 11.6418 77.4497 11.7913C77.5997 11.9408 77.684 12.1436 77.684 12.355V19.9274C77.684 20.1388 77.5997 20.3416 77.4497 20.4911C77.2997 20.6405 77.0962 20.7245 76.884 20.7245ZM1.51602 19.1303H76.084V13.1521H1.51602V19.1303Z" fill="#263B48"/>
<path d="M54.032 47.5073C52.32 47.5073 50.6464 47.0015 49.223 46.0538C47.7995 45.1061 46.69 43.7591 46.0349 42.1832C45.3797 40.6073 45.2083 38.8731 45.5423 37.2001C45.8763 35.5271 46.7007 33.9903 47.9113 32.7842C49.1218 31.578 50.6642 30.7566 52.3433 30.4238C54.0224 30.091 55.7628 30.2618 57.3445 30.9146C58.9262 31.5674 60.278 32.6728 61.2292 34.0911C62.1803 35.5094 62.688 37.1769 62.688 38.8827C62.6859 41.1694 61.7732 43.3619 60.1504 44.9789C58.5275 46.5959 56.327 47.5052 54.032 47.5073ZM54.032 31.8562C52.6363 31.8562 51.2719 32.2687 50.1115 33.0414C48.951 33.8141 48.0466 34.9123 47.5127 36.1972C46.9788 37.4821 46.8393 38.8958 47.1119 40.2597C47.3844 41.6236 48.0569 42.8763 49.0441 43.8594C50.0313 44.8424 51.2889 45.5117 52.6579 45.7825C54.0269 46.0533 55.4457 45.9135 56.735 45.3808C58.0242 44.8481 59.1259 43.9464 59.9008 42.7897C60.6756 41.633 61.0888 40.2734 61.088 38.8827C61.0859 37.0191 60.3417 35.2325 59.0187 33.9152C57.6958 32.5978 55.9023 31.8573 54.032 31.8562Z" fill="#263B48"/>
<path d="M61.6522 47.5073C59.94 47.5081 58.2661 47.003 56.8421 46.0558C55.4181 45.1086 54.308 43.7618 53.6522 42.186C52.9965 40.6101 52.8245 38.8758 53.158 37.2026C53.4916 35.5293 54.3157 33.9921 55.5261 32.7856C56.7365 31.579 58.2788 30.7572 59.958 30.4241C61.6372 30.091 63.3779 30.2615 64.9598 30.9142C66.5417 31.5669 67.8938 32.6723 68.8451 34.0907C69.7964 35.5091 70.3042 37.1767 70.3042 38.8827C70.3021 41.1688 69.39 43.3606 67.768 44.9775C66.146 46.5944 63.9466 47.5042 61.6522 47.5073ZM61.6522 31.8562C60.2563 31.8555 58.8915 32.2672 57.7306 33.0394C56.5696 33.8116 55.6646 34.9096 55.1301 36.1944C54.5955 37.4792 54.4554 38.8931 54.7276 40.2573C54.9997 41.6214 55.6718 42.8745 56.6588 43.858C57.6459 44.8414 58.9035 45.5111 60.2726 45.7822C61.6417 46.0534 63.0608 45.9138 64.3503 45.3812C65.6397 44.8486 66.7417 43.9469 67.5167 42.7901C68.2917 41.6333 68.705 40.2735 68.7042 38.8827C68.7021 37.0198 67.9584 35.2338 66.6364 33.9166C65.3143 32.5993 63.5218 31.8584 61.6522 31.8562Z" fill="#263B48"/>
<path d="M38.8002 30.3137H8.33223C8.12005 30.3137 7.91657 30.2297 7.76654 30.0802C7.61651 29.9307 7.53223 29.728 7.53223 29.5166C7.53223 29.3052 7.61651 29.1024 7.76654 28.9529C7.91657 28.8035 8.12005 28.7195 8.33223 28.7195H38.8002C39.0124 28.7195 39.2159 28.8035 39.3659 28.9529C39.5159 29.1024 39.6002 29.3052 39.6002 29.5166C39.6002 29.728 39.5159 29.9307 39.3659 30.0802C39.2159 30.2297 39.0124 30.3137 38.8002 30.3137Z" fill="#263B48"/>
<path d="M38.8002 39.4048H8.33223C8.12005 39.4048 7.91657 39.3208 7.76654 39.1713C7.61651 39.0218 7.53223 38.8191 7.53223 38.6077C7.53223 38.3962 7.61651 38.1935 7.76654 38.044C7.91657 37.8945 8.12005 37.8105 8.33223 37.8105H38.8002C39.0124 37.8105 39.2159 37.8945 39.3659 38.044C39.5159 38.1935 39.6002 38.3962 39.6002 38.6077C39.6002 38.8191 39.5159 39.0218 39.3659 39.1713C39.2159 39.3208 39.0124 39.4048 38.8002 39.4048Z" fill="#263B48"/>
<path d="M31.2002 48.4956H8.33223C8.12005 48.4956 7.91657 48.4116 7.76654 48.2621C7.61651 48.1126 7.53223 47.9099 7.53223 47.6985C7.53223 47.4871 7.61651 47.2843 7.76654 47.1348C7.91657 46.9854 8.12005 46.9014 8.33223 46.9014H31.2002C31.4124 46.9014 31.6159 46.9854 31.7659 47.1348C31.9159 47.2843 32.0002 47.4871 32.0002 47.6985C32.0002 47.9099 31.9159 48.1126 31.7659 48.2621C31.6159 48.4116 31.4124 48.4956 31.2002 48.4956Z" fill="#263B48"/>
</g>
<defs>
<clipPath id="clip0_1273_212">
<rect width="78" height="55" fill="white"/>
</clipPath>
</defs>
</svg>
