<svg width="59" height="67" viewBox="0 0 59 67" fill="none" xmlns="http://www.w3.org/2000/svg">
<circle cx="36" cy="49.5" r="17" fill="#D6E6F4"/>
<g clip-path="url(#clip0_1273_216)">
<path d="M41.8755 6.573e-05C38.1886 0.00431737 34.6012 1.18774 31.645 3.37494C28.6889 5.56214 26.5212 8.6367 25.4634 12.1429L17.3833 10.0001C17.2627 9.97153 17.137 9.97153 17.0163 10.0001L0.539506 14.2858C0.381199 14.3263 0.241501 14.4191 0.143415 14.5489C0.0453283 14.6787 -0.00529816 14.8379 -0.000128167 15.0001V34.6786C-0.000128167 35.1644 0.669018 46.6429 16.8724 54.9215C16.9748 54.9736 17.0883 55.0005 17.2034 55.0001C17.3181 54.9978 17.431 54.971 17.5344 54.9215C33.7306 46.6429 34.3854 35.1644 34.3998 34.6501V32.2715C36.7165 33.3963 39.2593 33.9871 41.8383 33.9998C44.4172 34.0125 46.9658 33.4467 49.2936 32.3447C51.6215 31.2428 53.6686 29.6331 55.2821 27.6358C56.8956 25.6385 58.0339 23.3052 58.6119 20.81C59.1899 18.3149 59.1927 15.7224 58.6202 13.226C58.0476 10.7296 56.9145 8.39387 55.3054 6.39309C53.6963 4.39231 51.6527 2.77818 49.3272 1.67119C47.0018 0.564203 44.4545 -0.00705334 41.8755 6.573e-05ZM17.2034 53.4786C2.11524 45.6215 1.4389 34.7286 1.4389 34.6501V15.5644L17.2034 11.4286L32.9607 15.5358V34.6215C32.9607 34.7286 32.2916 45.6215 17.2034 53.4786ZM41.8755 32.5501C39.2645 32.5546 36.6941 31.9086 34.3998 30.6715V15.0001C34.4053 14.8388 34.3557 14.6804 34.259 14.5507C34.1624 14.421 34.0243 14.3276 33.8673 14.2858L26.8521 12.4572C27.6956 9.69741 29.2947 7.2244 31.471 5.31388C33.6473 3.40335 36.3153 2.13039 39.1776 1.63688C42.0399 1.14337 44.9841 1.44871 47.6818 2.51887C50.3796 3.58904 52.725 5.38196 54.4565 7.69777C56.1881 10.0136 57.2377 12.7613 57.4885 15.6346C57.7392 18.5079 57.1812 21.3939 55.8767 23.9708C54.5722 26.5478 52.5724 28.7144 50.1002 30.2292C47.628 31.7441 44.7806 32.5475 41.8755 32.5501Z" fill="#263B48"/>
<path d="M46.0489 12.143C46.0489 12.3324 46.1247 12.5141 46.2597 12.6481C46.3946 12.782 46.5776 12.8573 46.7684 12.8573C46.9593 12.8573 47.1423 12.782 47.2772 12.6481C47.4122 12.5141 47.488 12.3324 47.488 12.143C47.4872 10.7927 46.9919 9.48881 46.0944 8.47427C45.1969 7.45972 43.9583 6.80378 42.6097 6.62872V4.86443C42.6097 4.67499 42.5339 4.49331 42.3989 4.35936C42.264 4.2254 42.081 4.15015 41.8902 4.15015C41.6993 4.15015 41.5163 4.2254 41.3814 4.35936C41.2464 4.49331 41.1706 4.67499 41.1706 4.86443V6.62158C39.8224 6.79568 38.5841 7.45093 37.6869 8.46499C36.7897 9.47905 36.2949 10.7826 36.2949 12.1323C36.2949 13.482 36.7897 14.7855 37.6869 15.7996C38.5841 16.8137 39.8224 17.4689 41.1706 17.643V25.893C40.2081 25.7226 39.3361 25.2227 38.7064 24.4801C38.0768 23.7375 37.7292 22.7994 37.7242 21.8287C37.7242 21.6393 37.6484 21.4576 37.5134 21.3236C37.3785 21.1897 37.1955 21.1144 37.0047 21.1144C36.8138 21.1144 36.6308 21.1897 36.4959 21.3236C36.361 21.4576 36.2852 21.6393 36.2852 21.8287C36.2894 23.1784 36.787 24.4807 37.6856 25.4936C38.5841 26.5065 39.8225 27.1611 41.1706 27.3359V29.093C41.1706 29.2824 41.2464 29.4641 41.3814 29.5981C41.5163 29.732 41.6993 29.8073 41.8902 29.8073C42.081 29.8073 42.264 29.732 42.3989 29.5981C42.5339 29.4641 42.6097 29.2824 42.6097 29.093V27.3359C43.9579 27.1618 45.1962 26.5065 46.0934 25.4924C46.9906 24.4784 47.4854 23.1748 47.4854 21.8251C47.4854 20.4755 46.9906 19.1719 46.0934 18.1578C45.1962 17.1438 43.9579 16.4885 42.6097 16.3144V8.06443C43.574 8.23545 44.4469 8.73776 45.0757 9.48342C45.7045 10.2291 46.049 11.1706 46.0489 12.143ZM41.1562 16.2001C40.1909 16.034 39.3157 15.5347 38.6848 14.7905C38.054 14.0463 37.7081 13.1049 37.7081 12.1323C37.7081 11.1596 38.054 10.2182 38.6848 9.47403C39.3157 8.72983 40.1909 8.23063 41.1562 8.06443V16.2001ZM46.0489 21.8287C46.0456 22.7987 45.6996 23.7368 45.0711 24.4795C44.4426 25.2222 43.5715 25.7224 42.6097 25.893V17.7573C43.5727 17.9281 44.4448 18.4294 45.0734 19.1735C45.702 19.9177 46.0473 20.8575 46.0489 21.8287Z" fill="#263B48"/>
<path d="M30.047 17.8572L17.3835 14.5572C17.2638 14.5216 17.1363 14.5216 17.0166 14.5572L4.35317 17.8572C4.1962 17.899 4.05813 17.9924 3.96145 18.1221C3.86477 18.2518 3.81517 18.4102 3.82073 18.5715V33.6929C3.82073 34.0643 4.33878 42.9786 16.8727 49.4072C16.9742 49.4615 17.0883 49.4886 17.2037 49.4857C17.3187 49.4862 17.4322 49.4592 17.5346 49.4072C30.0613 42.9786 30.565 34.0929 30.5866 33.6929V18.5715C30.5918 18.4092 30.5411 18.2501 30.443 18.1203C30.345 17.9905 30.2053 17.8977 30.047 17.8572ZM17.2037 47.9429C5.785 41.9572 5.25976 33.7143 5.25976 33.6572V19.1286L17.2037 16.0143L29.1476 19.1286V33.6357C29.1404 33.7143 28.6727 41.9286 17.2037 47.9429Z" fill="#263B48"/>
</g>
<defs>
<clipPath id="clip0_1273_216">
<rect width="59" height="55" fill="white"/>
</clipPath>
</defs>
</svg>
