<svg width="75" height="70" viewBox="0 0 75 70" fill="none" xmlns="http://www.w3.org/2000/svg">
<circle cx="58" cy="53" r="17" fill="#D6E6F4"/>
<g clip-path="url(#clip0_1273_211)">
<path d="M21.0733 55.079H14.9035C14.6965 55.079 14.498 54.9968 14.3516 54.8504C14.2053 54.704 14.123 54.5055 14.123 54.2985V38.5171C14.123 38.3101 14.2053 38.1115 14.3516 37.9652C14.498 37.8188 14.6965 37.7366 14.9035 37.7366H21.0733C21.2803 37.7366 21.4788 37.8188 21.6252 37.9652C21.7715 38.1115 21.8538 38.3101 21.8538 38.5171V54.2985C21.8538 54.5055 21.7715 54.704 21.6252 54.8504C21.4788 54.9968 21.2803 55.079 21.0733 55.079ZM15.6957 53.518H20.2928V39.2975H15.684L15.6957 53.518Z" fill="#263B48"/>
<path d="M33.3819 55.0789H27.2199C27.0129 55.0789 26.8144 54.9967 26.6681 54.8503C26.5217 54.704 26.4395 54.5054 26.4395 54.2984V28.9326C26.4395 28.7256 26.5217 28.5271 26.6681 28.3807C26.8144 28.2343 27.0129 28.1521 27.2199 28.1521H33.3819C33.5889 28.1521 33.7874 28.2343 33.9338 28.3807C34.0801 28.5271 34.1624 28.7256 34.1624 28.9326V54.2984C34.1624 54.5054 34.0801 54.704 33.9338 54.8503C33.7874 54.9967 33.5889 55.0789 33.3819 55.0789ZM28.0004 53.518H32.6014V29.7131H28.0004V53.518Z" fill="#263B48"/>
<path d="M45.6973 55.0791H39.5393C39.3323 55.0791 39.1338 54.9968 38.9874 54.8505C38.841 54.7041 38.7588 54.5056 38.7588 54.2986V19.3054C38.7588 19.0984 38.841 18.8999 38.9874 18.7535C39.1338 18.6071 39.3323 18.5249 39.5393 18.5249H45.6973C45.9043 18.5249 46.1028 18.6071 46.2492 18.7535C46.3956 18.8999 46.4778 19.0984 46.4778 19.3054V54.2986C46.4778 54.5056 46.3956 54.7041 46.2492 54.8505C46.1028 54.9968 45.9043 55.0791 45.6973 55.0791ZM40.3198 53.5181H44.9168V20.0859H40.3198V53.5181Z" fill="#263B48"/>
<path d="M58.0176 55.0789H51.8557C51.6487 55.0789 51.4502 54.9967 51.3038 54.8503C51.1574 54.704 51.0752 54.5055 51.0752 54.2985V9.70139C51.0752 9.49439 51.1574 9.29587 51.3038 9.1495C51.4502 9.00313 51.6487 8.9209 51.8557 8.9209H58.0176C58.2246 8.9209 58.4231 9.00313 58.5695 9.1495C58.7159 9.29587 58.7981 9.49439 58.7981 9.70139V54.2985C58.7981 54.5055 58.7159 54.704 58.5695 54.8503C58.4231 54.9967 58.2246 55.0789 58.0176 55.0789ZM52.6362 53.518H57.2371V10.4819H52.6362V53.518Z" fill="#263B48"/>
<path d="M63.2194 55.079H9.70139C9.49439 55.079 9.29587 54.9968 9.1495 54.8504C9.00313 54.704 8.9209 54.5055 8.9209 54.2985V5.24094C8.9209 5.03394 9.00313 4.83542 9.1495 4.68905C9.29587 4.54268 9.49439 4.46045 9.70139 4.46045C9.90838 4.46045 10.1069 4.54268 10.2533 4.68905C10.3996 4.83542 10.4819 5.03394 10.4819 5.24094V53.518H63.2194C63.4264 53.518 63.625 53.6002 63.7713 53.7466C63.9177 53.893 63.9999 54.0915 63.9999 54.2985C63.9999 54.5055 63.9177 54.704 63.7713 54.8504C63.625 54.9968 63.4264 55.079 63.2194 55.079Z" fill="#263B48"/>
<path d="M9.70146 64C9.49447 64 9.29595 63.9178 9.14958 63.7714C9.00321 63.6251 8.92098 63.4265 8.92098 63.2195V55.079H0.780488C0.57349 55.079 0.374969 54.9968 0.228599 54.8504C0.0822291 54.7041 0 54.5056 0 54.2986C0 54.0916 0.0822291 53.893 0.228599 53.7467C0.374969 53.6003 0.57349 53.5181 0.780488 53.5181H9.70146C9.90846 53.5181 10.107 53.6003 10.2534 53.7467C10.3997 53.893 10.482 54.0916 10.482 54.2986V63.2195C10.482 63.4265 10.3997 63.6251 10.2534 63.7714C10.107 63.9178 9.90846 64 9.70146 64Z" fill="#263B48"/>
<path d="M52.1992 6.02137C52.069 6.01841 51.9415 5.98289 51.8285 5.91804C51.7155 5.8532 51.6205 5.7611 51.5522 5.65013C51.484 5.53917 51.4445 5.41288 51.4376 5.28277C51.4306 5.15266 51.4563 5.02289 51.5124 4.90527L53.0422 1.68576L49.487 1.97064C49.3845 1.97883 49.2814 1.96677 49.1836 1.93512C49.0858 1.90347 48.9951 1.85286 48.9168 1.78619C48.8386 1.71951 48.7742 1.63807 48.7274 1.54651C48.6806 1.45496 48.6523 1.35508 48.6441 1.25259C48.6359 1.15009 48.648 1.04698 48.6796 0.949154C48.7113 0.851323 48.7619 0.760684 48.8285 0.682411C48.8952 0.604138 48.9767 0.539764 49.0682 0.492965C49.1598 0.446167 49.2597 0.417859 49.3621 0.40966L54.2636 0.0194157C54.4005 0.00828293 54.5378 0.0334498 54.6619 0.092375C54.7859 0.1513 54.8921 0.241898 54.97 0.355026C55.0482 0.468092 55.0952 0.599819 55.1061 0.736874C55.1171 0.873928 55.0917 1.01145 55.0324 1.13551L52.9251 5.58039C52.8596 5.71613 52.7562 5.83 52.6274 5.90825C52.4986 5.98651 52.3499 6.02579 52.1992 6.02137Z" fill="#263B48"/>
<path d="M17.9825 28.3199C17.8223 28.3153 17.6674 28.2614 17.5388 28.1656C17.4103 28.0699 17.3143 27.9369 17.264 27.7847C17.2137 27.6325 17.2115 27.4685 17.2577 27.315C17.3038 27.1615 17.3961 27.0259 17.522 26.9267L53.8537 0.152091C54.0207 0.0368247 54.226 -0.0088836 54.4261 0.0246554C54.6262 0.0581945 54.8054 0.168345 54.9257 0.331756C55.0459 0.495167 55.0979 0.698992 55.0704 0.900028C55.0429 1.10106 54.9383 1.2835 54.7786 1.40868L18.4469 28.1677C18.3124 28.2668 18.1496 28.3202 17.9825 28.3199Z" fill="#263B48"/>
</g>
<defs>
<clipPath id="clip0_1273_211">
<rect width="64" height="64" fill="white"/>
</clipPath>
</defs>
</svg>
