<svg width="83" height="71" viewBox="0 0 83 71" fill="none" xmlns="http://www.w3.org/2000/svg">
<circle cx="66" cy="54" r="17" fill="#D6E6F4"/>
<g clip-path="url(#clip0_1273_213)">
<path d="M12.0372 64H1.73227C1.55891 64 1.39265 63.9312 1.27007 63.8087C1.14748 63.6862 1.07861 63.5201 1.07861 63.3469C1.07861 63.1737 1.14748 63.0076 1.27007 62.8851C1.39265 62.7627 1.55891 62.6939 1.73227 62.6939H11.3835V35.6245H1.73227C1.55891 35.6245 1.39265 35.5557 1.27007 35.4332C1.14748 35.3107 1.07861 35.1446 1.07861 34.9714C1.07861 34.7982 1.14748 34.6321 1.27007 34.5096C1.39265 34.3872 1.55891 34.3184 1.73227 34.3184H12.0372C12.2106 34.3184 12.3768 34.3872 12.4994 34.5096C12.622 34.6321 12.6909 34.7982 12.6909 34.9714V63.3469C12.6909 63.5201 12.622 63.6862 12.4994 63.8087C12.3768 63.9312 12.2106 64 12.0372 64Z" fill="#263B48"/>
<path d="M45.8442 51.3764C45.6708 51.3764 45.5046 51.3076 45.382 51.1852C45.2594 51.0627 45.1905 50.8966 45.1905 50.7234V48.4703C45.1897 48.0272 45.0131 47.6025 44.6995 47.2891C44.3858 46.9758 43.9607 46.7994 43.5172 46.7985H34.5326C34.3742 46.7992 34.2208 46.7423 34.1012 46.6385L30.0681 43.1185C27.5977 40.9578 24.4258 39.7672 21.1424 39.7683H12.037C11.8636 39.7683 11.6973 39.6995 11.5748 39.577C11.4522 39.4545 11.3833 39.2884 11.3833 39.1152C11.3833 38.942 11.4522 38.7759 11.5748 38.6534C11.6973 38.531 11.8636 38.4622 12.037 38.4622H21.1522C24.7498 38.4593 28.2264 39.7598 30.9375 42.1226L34.7777 45.4793H43.5172C44.3074 45.4802 45.0651 45.7942 45.6239 46.3525C46.1827 46.9108 46.497 47.6677 46.4978 48.4573V50.7103C46.4996 50.7972 46.484 50.8835 46.4519 50.9643C46.4198 51.045 46.3719 51.1185 46.3111 51.1806C46.2502 51.2426 46.1776 51.2919 46.0974 51.3255C46.0172 51.3592 45.9311 51.3765 45.8442 51.3764Z" fill="#263B48"/>
<path d="M37.1701 61.4889C32.3984 61.4889 28.4732 59.6179 25.3193 58.1159C23.8486 57.4138 22.5772 56.8098 21.5673 56.5747C18.4101 55.8367 12.0925 55.8367 12.037 55.8367C11.8636 55.8367 11.6973 55.7679 11.5748 55.6454C11.4522 55.523 11.3833 55.3568 11.3833 55.1836C11.3833 55.0104 11.4522 54.8443 11.5748 54.7219C11.6973 54.5994 11.8636 54.5306 12.037 54.5306C12.3017 54.5306 18.5735 54.5306 21.8614 55.2979C23.0119 55.5657 24.3421 56.1992 25.8814 56.9306C28.9177 58.3771 32.6926 60.1763 37.1701 60.1763C43.6054 60.1763 47.8346 58.9943 53.9365 55.4906C57.3126 53.5543 63.6008 49.9396 64.2349 47.0792C64.2989 46.81 64.3029 46.53 64.2464 46.2591C64.1899 45.9882 64.0744 45.7331 63.908 45.5118C62.4961 43.5069 60.3456 44.6628 56.002 47.2587C54.7209 48.0228 53.2665 48.8914 51.6781 49.7306C44.9095 53.3028 28.7216 51.1477 28.0353 51.0563C27.8619 51.0329 27.7049 50.9417 27.5989 50.8027C27.4929 50.6637 27.4464 50.4883 27.4698 50.3151C27.4932 50.1419 27.5846 49.985 27.7237 49.8791C27.8628 49.7732 28.0384 49.7268 28.2117 49.7502C28.3752 49.773 44.6676 51.9412 51.0669 48.5649C52.6259 47.742 54.0639 46.8832 55.332 46.1257C59.5056 43.6343 62.8034 41.6653 64.9768 44.7477C65.2502 45.1183 65.4398 45.5439 65.5324 45.9949C65.6249 46.446 65.6182 46.9118 65.5128 47.36C64.8101 50.524 59.7312 53.6685 54.5869 56.6204C48.2595 60.2645 43.8669 61.4889 37.1701 61.4889Z" fill="#263B48"/>
<path d="M64.1894 21.4759C64.1034 21.4764 64.0181 21.4599 63.9384 21.4274C63.8588 21.3949 63.7864 21.3471 63.7253 21.2865L46.1582 3.73224L29.3396 20.5355C29.248 20.6265 29.1315 20.6883 29.0047 20.7132C28.878 20.738 28.7467 20.7248 28.6275 20.6752C28.5082 20.6256 28.4064 20.5418 28.3348 20.4344C28.2632 20.3271 28.225 20.2009 28.2251 20.0718V3.50041C28.2251 3.32721 28.294 3.1611 28.4165 3.03862C28.5391 2.91615 28.7054 2.84735 28.8788 2.84735H33.9217V0.653061C33.9217 0.479859 33.9906 0.31375 34.1132 0.191277C34.2358 0.0688046 34.402 0 34.5754 0H38.932C39.1054 0 39.2716 0.0688046 39.3942 0.191277C39.5168 0.31375 39.5857 0.479859 39.5857 0.653061V3.50041C39.5857 3.67361 39.5168 3.83972 39.3942 3.96219C39.2716 4.08466 39.1054 4.15347 38.932 4.15347C38.7587 4.15347 38.5924 4.08466 38.4698 3.96219C38.3472 3.83972 38.2784 3.67361 38.2784 3.50041V1.30612H35.229V3.50041C35.229 3.67361 35.1602 3.83972 35.0376 3.96219C34.915 4.08466 34.7487 4.15347 34.5754 4.15347H29.5324V18.4947L45.6941 2.34775C45.8191 2.22972 45.9846 2.16396 46.1566 2.16396C46.3286 2.16396 46.4941 2.22972 46.619 2.34775L63.5357 19.2457V3.46122H50.3318C50.1585 3.46122 49.9922 3.39242 49.8696 3.26995C49.747 3.14747 49.6782 2.98137 49.6782 2.80816C49.6782 2.63496 49.747 2.46885 49.8696 2.34638C49.9922 2.22391 50.1585 2.1551 50.3318 2.1551H64.1894C64.3628 2.1551 64.529 2.22391 64.6516 2.34638C64.7742 2.46885 64.843 2.63496 64.843 2.80816V20.8229C64.8431 20.9523 64.8045 21.0789 64.7324 21.1865C64.6602 21.294 64.5577 21.3777 64.4378 21.4269C64.359 21.4593 64.2746 21.4759 64.1894 21.4759Z" fill="#263B48"/>
<path d="M62.3883 35.6245H30.8885C30.7152 35.6245 30.5489 35.5557 30.4263 35.4332C30.3037 35.3107 30.2349 35.1446 30.2349 34.9714V18.3183C30.2349 18.1451 30.3037 17.979 30.4263 17.8566C30.5489 17.7341 30.7152 17.6653 30.8885 17.6653C31.0619 17.6653 31.2281 17.7341 31.3507 17.8566C31.4733 17.979 31.5422 18.1451 31.5422 18.3183V34.3183H61.7347V19.0269C61.7347 18.8537 61.8035 18.6876 61.9261 18.5651C62.0487 18.4427 62.215 18.3739 62.3883 18.3739C62.5617 18.3739 62.728 18.4427 62.8505 18.5651C62.9731 18.6876 63.042 18.8537 63.042 19.0269V34.9714C63.042 35.1446 62.9731 35.3107 62.8505 35.4332C62.728 35.5557 62.5617 35.6245 62.3883 35.6245Z" fill="#263B48"/>
<path d="M45.8444 35.6246H36.5853C36.4119 35.6246 36.2457 35.5558 36.1231 35.4333C36.0005 35.3108 35.9316 35.1447 35.9316 34.9715V19.9184C35.9316 19.7452 36.0005 19.5791 36.1231 19.4567C36.2457 19.3342 36.4119 19.2654 36.5853 19.2654H45.8444C46.0177 19.2654 46.184 19.3342 46.3066 19.4567C46.4292 19.5791 46.498 19.7452 46.498 19.9184V34.9715C46.498 35.1447 46.4292 35.3108 46.3066 35.4333C46.184 35.5558 46.0177 35.6246 45.8444 35.6246ZM37.239 34.3184H45.1907V20.5715H37.239V34.3184Z" fill="#263B48"/>
<path d="M56.7769 30.0997H49.4037C49.2303 30.0997 49.064 30.0309 48.9415 29.9084C48.8189 29.7859 48.75 29.6198 48.75 29.4466V19.9184C48.75 19.7452 48.8189 19.5791 48.9415 19.4567C49.064 19.3342 49.2303 19.2654 49.4037 19.2654H56.7769C56.9503 19.2654 57.1165 19.3342 57.2391 19.4567C57.3617 19.5791 57.4306 19.7452 57.4306 19.9184V29.4597C57.4272 29.6306 57.3568 29.7934 57.2346 29.913C57.1123 30.0327 56.948 30.0997 56.7769 30.0997ZM50.0573 28.7935H56.1233V20.5715H50.0573V28.7935Z" fill="#263B48"/>
</g>
<defs>
<clipPath id="clip0_1273_213">
<rect width="67" height="64" fill="white"/>
</clipPath>
</defs>
</svg>
