<svg width="84" height="71" viewBox="0 0 84 71" fill="none" xmlns="http://www.w3.org/2000/svg">
<circle cx="67" cy="54" r="17" fill="#D6E6F4"/>
<g clip-path="url(#clip0_1273_217)">
<path d="M7.80021 64.047H27.0896C27.2458 64.0472 27.3985 64.0004 27.5278 63.9127C27.6572 63.825 27.7572 63.7005 27.815 63.5553L29.024 60.5348C29.317 59.8149 29.8476 59.2171 30.5273 58.8408C31.207 58.4645 31.995 58.3324 32.7602 58.4665C37.3856 59.3017 43.3136 60.2851 45.3026 60.2851C48.68 60.2851 62.0804 54.1504 62.213 54.088C63.4766 53.4948 71.1284 45.1358 70.9802 43.1612C70.9216 42.6435 70.7298 42.1499 70.4235 41.7286C70.1173 41.3073 69.7071 40.9726 69.233 40.7573C68.0006 40.1641 65.7932 39.9768 62.2988 42.3807L52.0184 48.3124L51.9248 48.3826C50.747 48.687 43.7582 48.7026 41.2544 47.6021L39.1094 45.6197C45.3494 46.4002 49.0856 45.9397 50.7392 44.2226C51.1776 43.7381 51.4873 43.1511 51.6399 42.5157C51.7925 41.8802 51.7832 41.2165 51.6128 40.5856C50.9264 36.9485 45.2168 37.1202 41.4728 37.2373C39.7095 37.2506 37.9483 37.1148 36.2078 36.8314C33.4135 36.4166 30.5931 36.2027 27.7682 36.1914C21.8948 36.1914 17.441 39.9299 15.2336 46.7202C13.5956 51.6373 7.19961 62.7592 7.13721 62.8763C7.06876 62.9949 7.03271 63.1295 7.03271 63.2665C7.03271 63.4035 7.06876 63.5381 7.13721 63.6568C7.2046 63.7736 7.3011 63.871 7.4173 63.9394C7.53349 64.0078 7.66542 64.0448 7.80021 64.047ZM16.6844 47.1807C18.0884 42.8646 21.1382 37.729 27.737 37.729C30.4914 37.7412 33.2413 37.9498 35.966 38.3534C37.7914 38.6512 39.639 38.7922 41.4884 38.7748C44.5304 38.6812 49.6394 38.5329 50.0684 40.8509C50.1924 41.2347 50.2151 41.644 50.1345 42.0392C50.0539 42.4344 49.8726 42.8021 49.6082 43.1065C48.6176 44.1368 45.5912 45.0656 36.8474 43.6997C36.6892 43.6831 36.5296 43.7153 36.3902 43.7921C36.2508 43.8688 36.1382 43.9864 36.0674 44.129C35.9944 44.2795 35.9717 44.4495 36.0026 44.6139C36.0335 44.7783 36.1164 44.9284 36.239 45.0421L40.3106 48.7963C40.3644 48.8516 40.4278 48.8965 40.4978 48.929C43.2824 50.287 51.5192 50.3729 52.7204 49.7563C52.8012 49.7125 52.877 49.6602 52.9466 49.6002L63.1178 43.7075C65.372 42.1465 67.3454 41.6002 68.5778 42.1465C68.796 42.2491 68.9864 42.4025 69.133 42.5941C69.2796 42.7856 69.3781 43.0095 69.4202 43.247C69.2408 44.5348 62.7356 52.0665 61.55 52.6753C58.2272 54.2363 47.783 58.7241 45.2948 58.7241C43.8362 58.7241 39.476 58.0841 33.0254 56.9368C31.908 56.7354 30.7554 56.925 29.7611 57.4736C28.7669 58.0222 27.9916 58.8964 27.5654 59.9495L26.5514 62.486H9.14961C10.8656 59.4499 15.3272 51.3563 16.6844 47.1807Z" fill="#263B48"/>
<path d="M50.193 34.0527C53.5545 34.0527 56.8405 33.0553 59.6356 31.1866C62.4306 29.3178 64.609 26.6617 65.8954 23.5541C67.1818 20.4465 67.5184 17.027 66.8626 13.728C66.2068 10.429 64.5881 7.3987 62.2111 5.02026C59.8341 2.64181 56.8057 1.02206 53.5088 0.365852C50.2118 -0.290361 46.7945 0.0464311 43.6888 1.33364C40.5832 2.62084 37.9287 4.80065 36.0612 7.59741C34.1936 10.3942 33.1968 13.6823 33.1968 17.0459C33.2009 21.5551 34.9929 25.8785 38.1794 29.067C41.3659 32.2555 45.6866 34.0486 50.193 34.0527ZM50.193 1.60785C53.2463 1.60785 56.231 2.51393 58.7697 4.21149C61.3083 5.90905 63.2868 8.32182 64.4549 11.1446C65.623 13.9675 65.9282 17.0735 65.332 20.0699C64.7358 23.0663 63.2648 25.8185 61.1053 27.9783C58.9457 30.1382 56.1945 31.6086 53.1996 32.2037C50.2048 32.7988 47.1009 32.4918 44.2804 31.3216C41.4599 30.1513 39.0497 28.1704 37.3545 25.6293C35.6592 23.0882 34.7552 20.1011 34.7568 17.0459C34.7609 12.9514 36.3888 9.02588 39.283 6.13136C42.1771 3.23684 46.101 1.60992 50.193 1.60785Z" fill="#263B48"/>
<path d="M46.1448 21.8536C46.1448 21.6466 46.0627 21.4481 45.9164 21.3017C45.7701 21.1553 45.5717 21.0731 45.3648 21.0731C45.158 21.0731 44.9596 21.1553 44.8133 21.3017C44.667 21.4481 44.5848 21.6466 44.5848 21.8536C44.5886 23.204 45.0789 24.5078 45.9658 25.5256C46.8526 26.5435 48.0766 27.2073 49.413 27.3951V29.1121C49.413 29.3191 49.4952 29.5177 49.6415 29.664C49.7878 29.8104 49.9862 29.8926 50.193 29.8926C50.3999 29.8926 50.5983 29.8104 50.7446 29.664C50.8909 29.5177 50.973 29.3191 50.973 29.1121V27.4185C52.3139 27.2366 53.5433 26.5744 54.4335 25.5548C55.3237 24.5351 55.8143 23.2271 55.8143 21.8731C55.8143 20.5192 55.3237 19.2111 54.4335 18.1915C53.5433 17.1718 52.3139 16.5097 50.973 16.3278V8.24971C51.8919 8.43213 52.7192 8.9278 53.3137 9.65223C53.9082 10.3767 54.2333 11.285 54.2334 12.2224C54.2334 12.4294 54.3156 12.6279 54.4619 12.7743C54.6082 12.9206 54.8066 13.0029 55.0134 13.0029C55.2203 13.0029 55.4187 12.9206 55.565 12.7743C55.7113 12.6279 55.7934 12.4294 55.7934 12.2224C55.7918 10.8718 55.3034 9.56713 54.418 8.54779C53.5325 7.52845 52.3094 6.86284 50.973 6.67312V4.97946C50.973 4.77246 50.8909 4.57394 50.7446 4.42757C50.5983 4.2812 50.3999 4.19897 50.193 4.19897C49.9862 4.19897 49.7878 4.2812 49.6415 4.42757C49.4952 4.57394 49.413 4.77246 49.413 4.97946V6.67312C48.0722 6.85502 46.8427 7.51717 45.9525 8.53684C45.0623 9.55651 44.5718 10.8645 44.5718 12.2185C44.5718 13.5724 45.0623 14.8805 45.9525 15.9001C46.8427 16.9198 48.0722 17.582 49.413 17.7639V25.8419C48.4901 25.6606 47.659 25.1633 47.0626 24.4355C46.4662 23.7077 46.1417 22.7948 46.1448 21.8536ZM50.973 17.8809C51.8937 18.0598 52.7236 18.5537 53.3202 19.2778C53.9169 20.0019 54.2432 20.9112 54.2432 21.8497C54.2432 22.7882 53.9169 23.6975 53.3202 24.4216C52.7236 25.1457 51.8937 25.6396 50.973 25.8185V17.8809ZM46.1448 12.199C46.1453 11.2605 46.4715 10.3513 47.0676 9.62669C47.6637 8.90211 48.4927 8.40712 49.413 8.22629V16.1873C48.494 16.0067 47.666 15.5129 47.07 14.7899C46.4741 14.0669 46.1471 13.1595 46.1448 12.2224V12.199Z" fill="#263B48"/>
</g>
<defs>
<clipPath id="clip0_1273_217">
<rect width="78" height="64" fill="white"/>
</clipPath>
</defs>
</svg>
