<svg width="96" height="96" viewBox="0 0 96 96" fill="none" xmlns="http://www.w3.org/2000/svg">
<path d="M32.4 27.558C22.18 33.714 15.314 45.895 15.314 57.87V69.989C15.314 82.915 19.689 85.095 29.495 85.096C29.496 85.096 29.496 85.096 29.497 85.096C30.947 85.096 32.517 85.055 34.204 85.012C36.207 84.96 38.278 84.907 40.557 84.907H55.44C57.718 84.907 59.791 84.961 61.794 85.012C63.482 85.055 65.052 85.096 66.503 85.096C76.311 85.096 80.686 82.914 80.686 69.989V57.869C80.686 45.894 73.82 33.714 63.601 27.557C63.523 27.51 63.434 27.486 63.343 27.486H63.162C63.36 27.486 63.539 27.369 63.619 27.188L70.502 11.608C70.57 11.454 70.556 11.275 70.464 11.133C70.372 10.99 70.214 10.905 70.045 10.905H25.953C25.784 10.905 25.627 10.99 25.534 11.133C25.442 11.275 25.428 11.453 25.496 11.608L32.379 27.19C32.458 27.369 32.634 27.483 32.829 27.486H32.658C32.567 27.486 32.479 27.511 32.4 27.558ZM26.721 11.906H69.278L62.837 26.486L33.163 26.488L26.721 11.906ZM63.203 28.486C73.067 34.49 79.685 46.279 79.685 57.869V69.988C79.685 82.703 75.463 84.095 66.502 84.095C65.059 84.095 63.498 84.054 61.819 84.011C59.902 83.961 57.729 83.906 55.438 83.906H40.557C38.266 83.906 36.094 83.962 34.179 84.011C32.5 84.054 30.94 84.095 29.497 84.095C29.496 84.095 29.496 84.095 29.495 84.095C20.535 84.094 16.314 82.702 16.314 69.988V57.869C16.314 46.278 22.932 34.49 32.797 28.486H63.203Z" fill="#292F46"/>
<path d="M40.1529 72.341C41.3479 73.193 42.9689 73.819 44.7559 74.122V77.426C44.7559 77.702 44.9799 77.926 45.2559 77.926H50.7469C51.0229 77.926 51.2469 77.702 51.2469 77.426V73.71C54.7239 72.498 56.9489 69.481 56.9489 65.93C56.9489 60.907 53.4689 58.807 50.0699 57.417C46.8809 56.063 46.8809 55.59 46.8809 55.244C46.8809 54.559 47.4579 54.213 48.5959 54.213C50.3779 54.213 51.4919 54.856 52.0919 55.201L53.7289 56.139C53.8549 56.211 54.0069 56.225 54.1459 56.176C54.2839 56.126 54.3929 56.02 54.4449 55.883L56.5089 50.442C56.5969 50.21 56.5009 49.949 56.2849 49.828L55.0879 49.158C53.9569 48.514 52.7679 48.08 51.4629 47.838V44.616C51.4629 44.34 51.2389 44.116 50.9629 44.116H45.4689C45.1929 44.116 44.9689 44.34 44.9689 44.616V48.203C41.6199 49.389 39.5569 52.209 39.5569 55.641C39.5569 60.387 43.2369 62.468 46.8289 63.875C49.5859 64.995 49.5859 65.82 49.5859 66.217C49.5859 67.271 48.4599 67.647 47.4059 67.647C46.0459 67.647 44.5509 67.196 43.4039 66.438L41.6919 65.315C41.5629 65.232 41.4039 65.211 41.2579 65.259C41.1129 65.307 40.9979 65.42 40.9459 65.564L38.9799 71.054C38.9049 71.265 38.9779 71.499 39.1599 71.629L40.1529 72.341ZM41.6749 66.499L42.8549 67.272C44.1569 68.132 45.8579 68.646 47.4069 68.646C49.3089 68.646 50.5869 67.669 50.5869 66.216C50.5869 65.232 50.1779 64.154 47.2009 62.945C43.9159 61.659 40.5569 59.784 40.5569 55.639C40.5569 52.494 42.4489 50.027 45.6179 49.038C45.8269 48.973 45.9699 48.779 45.9699 48.56V45.113H50.4639V48.258C50.4639 48.505 50.6449 48.715 50.8889 48.752C52.2389 48.957 53.4509 49.373 54.5969 50.026L55.4219 50.487L53.7179 54.978L52.5909 54.332C51.9109 53.939 50.6479 53.21 48.5969 53.21C46.0769 53.21 45.8819 54.765 45.8819 55.241C45.8819 56.264 46.4309 56.955 49.6869 58.337C52.7849 59.604 55.9509 61.495 55.9509 65.927C55.9509 69.198 53.9009 71.857 50.6019 72.866C50.3919 72.93 50.2479 73.125 50.2479 73.345V76.923H45.7569V73.691C45.7569 73.441 45.5729 73.23 45.3249 73.196C43.5529 72.95 41.8799 72.341 40.7349 71.525L40.0499 71.034L41.6749 66.499Z" fill="#00CA83"/>
</svg>
