<svg width="96" height="96" viewBox="0 0 96 96" fill="none" xmlns="http://www.w3.org/2000/svg">
<path d="M79.3332 47.8383L78.394 47.612L78.479 47.2599C78.8434 45.7489 79.0282 44.3246 79.0282 43.0264C79.0282 42.8134 79.0613 42.6093 79.0905 42.4292C79.118 42.2589 79.1443 42.0988 79.1395 41.9556L79.266 16.8543C75.926 17.9566 72.4365 18.5154 68.8857 18.5154C68.2566 18.5154 67.6739 18.4995 67.1045 18.4662C64.7198 18.3408 62.3501 17.9569 60.0637 17.3242C56.1376 16.2428 52.4822 14.4589 49.1973 12.0216H48.8423V11.0557H49.2045C49.2598 11.0557 49.3151 11.0578 49.3707 11.0603L49.5105 11.0668L49.6537 11.1568C52.8729 13.5686 56.4619 15.3302 60.3207 16.393C62.5402 17.0069 64.8406 17.3797 67.1581 17.5014C67.7111 17.5336 68.2757 17.5493 68.8857 17.5493C72.5578 17.5493 76.1598 16.9347 79.5916 15.7222L80.2392 15.4942L80.1052 41.9419C80.1127 42.1602 80.0762 42.385 80.0439 42.5837C80.0185 42.7414 79.9941 42.8904 79.9941 43.0261C79.9941 44.4 79.8002 45.9006 79.4179 47.4862L79.3332 47.8383Z" fill="#00CA83"/>
<path d="M16.6612 47.8381L16.5762 47.486C16.1939 45.9014 16 44.4011 16 43.026C16 42.7193 16.0051 42.403 16.0152 42.063L16 41.9393V15.4021L16.6474 15.6363C20.1519 16.9056 23.8341 17.5491 27.5914 17.5491C28.0241 17.5491 28.4228 17.5414 28.8102 17.5255C31.2156 17.4366 33.6066 17.0773 35.9183 16.4574C39.837 15.4112 43.4786 13.6481 46.7425 11.2164L47.033 11L47.6104 11.7744L47.3197 11.9908C43.9572 14.4958 40.2055 16.3125 36.168 17.39C33.7877 18.0287 31.3245 18.3987 28.8481 18.4902C28.4513 18.5066 28.0398 18.5148 27.5914 18.5148C23.9529 18.5148 20.3811 17.9285 16.9659 16.7713L16.9674 41.7749L16.9858 41.9273L16.9848 41.9553C16.972 42.3368 16.9657 42.687 16.9657 43.0258C16.9657 44.3243 17.1504 45.7486 17.5148 47.2593L17.5999 47.6114L16.6612 47.8381Z" fill="#292F46"/>
<path d="M47.3316 85.6462L46.972 85.6013C45.3782 85.4035 43.8814 84.7588 42.6429 83.7365C34.7684 77.2413 21.2389 61.9307 17.2077 49.6972L17.0942 49.3529L18.0119 49.051L18.1251 49.3949C22.0966 61.4478 35.4697 76.5678 43.2574 82.9913C44.354 83.8964 45.6796 84.4675 47.0908 84.6428L47.4501 84.6875L47.3316 85.6462Z" fill="#00CA83"/>
<path d="M48.9188 85.618L48.7734 84.6632L49.1311 84.6083C50.4532 84.4062 51.6998 83.8472 52.7362 82.9913C60.5242 76.5673 73.8975 61.447 77.8685 49.3949L77.982 49.051L78.8994 49.3529L78.7859 49.697C74.7553 61.93 61.2257 77.2408 53.3511 83.7363C52.1803 84.7028 50.7715 85.3345 49.2769 85.5627L48.9188 85.618Z" fill="#292F46"/>
<path d="M79.3104 47.856H48.7212V11.1765H49.6871V46.89H79.3104V47.856Z" fill="#292F46"/>
<path d="M47.5142 85.4843H46.5483V50.0292H17.3042V49.0632H47.5142V85.4843Z" fill="#292F46"/>
<path d="M49.6871 85.4484H48.7212V49.0635H78.6898V50.0294H49.6871V85.4484Z" fill="#292F46"/>
<path d="M47.5143 47.8557H16.6836V46.8898H46.5483V11.2415H47.5143V47.8557Z" fill="#292F46"/>
</svg>
