<svg width="96" height="96" viewBox="0 0 96 96" fill="none" xmlns="http://www.w3.org/2000/svg">
<path d="M64.4316 84.9969H76.3146C76.5906 84.9969 76.8146 84.7729 76.8146 84.4969V36.1319C76.8146 35.8999 76.6546 35.6979 76.4286 35.6449C76.2006 35.5909 75.9696 35.7019 75.8666 35.9099L75.7396 36.1569C75.6366 36.3649 75.5296 36.5699 75.4226 36.7739L75.2726 37.0609C75.0246 37.5429 74.7736 38.0239 74.5086 38.4989C74.3406 38.8039 74.1656 39.1049 73.9686 39.4419C73.7056 39.8949 73.4386 40.3449 73.1646 40.7899C72.9686 41.1069 72.7686 41.4219 72.5656 41.7359C72.2846 42.1729 71.9956 42.6059 71.7016 43.0369C71.4916 43.3439 71.2806 43.6499 71.0626 43.9549C70.7526 44.3899 70.4336 44.8189 70.1116 45.2459L69.9206 45.4989C69.7676 45.7029 69.6136 45.9069 69.4566 46.1079C69.1026 46.5589 68.7356 47.0039 68.3656 47.4469L68.1566 47.7009C68.0206 47.8669 67.8846 48.0339 67.7426 48.1979C67.2716 48.7459 66.7846 49.2859 66.2886 49.8219L65.9276 50.2239C65.3286 50.8609 64.7146 51.4909 64.0836 52.1089C63.9876 52.2029 63.9336 52.3319 63.9336 52.4659V84.4949C63.9316 84.7729 64.1546 84.9969 64.4316 84.9969ZM64.9316 52.6769C65.5206 52.0959 66.0946 51.5059 66.6566 50.9079L67.0236 50.4999C67.5256 49.9569 68.0216 49.4079 68.4996 48.8519C68.6456 48.6819 68.7876 48.5089 68.9296 48.3359L69.1336 48.0879C69.5086 47.6369 69.8816 47.1859 70.2426 46.7259C70.4036 46.5189 70.5606 46.3099 70.7186 46.1009L70.9086 45.8499C71.2366 45.4149 71.5606 44.9789 71.8756 44.5369C72.0966 44.2269 72.3116 43.9149 72.5256 43.6029C72.8256 43.1639 73.1196 42.7229 73.4046 42.2789C73.6106 41.9599 73.8146 41.6389 74.0136 41.3159C74.2926 40.8629 74.5646 40.4049 74.8526 39.9089C75.0316 39.6019 75.2106 39.2939 75.3816 38.9849C75.5296 38.7199 75.6736 38.4529 75.8146 38.1859V83.9959H64.9316V52.6769Z" fill="#292F46"/>
<path d="M30.7237 51.9449C32.5217 53.2269 35.1807 54.1829 38.0177 54.5669L38.3507 54.6119V59.8209C38.3507 60.0969 38.5747 60.3209 38.8507 60.3209H45.2767C45.5527 60.3209 45.7767 60.0969 45.7767 59.8209V54.1809L46.0477 54.0969C51.1877 52.5069 54.5087 48.2319 54.5087 43.2059C54.5087 37.7079 51.4927 34.0269 44.7317 31.2719C39.0907 28.9399 39.0907 27.8959 39.0907 26.7909C39.0907 25.0239 40.5077 24.0109 42.9767 24.0109C46.1337 24.0109 48.1157 25.1449 48.9617 25.6289L50.4567 26.4849C50.5837 26.5579 50.7377 26.5699 50.8737 26.5219C51.0117 26.4729 51.1207 26.3649 51.1727 26.2289L53.6037 19.8069C53.6897 19.5789 53.5997 19.3219 53.3887 19.1989L52.3177 18.5699C50.5397 17.5259 48.6167 16.8669 46.4397 16.5569L46.1097 16.5099V11.5039C46.1097 11.2279 45.8857 11.0039 45.6097 11.0039H39.2357C38.9597 11.0039 38.7357 11.2279 38.7357 11.5039V16.9739L38.4647 17.0569C33.4857 18.5819 30.3937 22.5659 30.3937 27.4549C30.3937 33.9109 35.6227 36.8349 40.7317 38.8409C44.9007 40.5299 45.7547 41.9639 45.7547 43.5949C45.7557 44.5529 45.3267 45.4149 44.5467 46.0249C43.7147 46.6769 42.5097 47.0359 41.1517 47.0359C38.7367 47.0359 36.2347 46.2899 34.2857 44.9899L32.7197 43.9469C32.5917 43.8619 32.4317 43.8399 32.2847 43.8879C32.1387 43.9359 32.0227 44.0489 31.9717 44.1939L29.6357 50.7149C29.5607 50.9239 29.6337 51.1589 29.8137 51.2889L30.7237 51.9449ZM32.6987 45.1349L33.7327 45.8229C35.8417 47.2299 38.5457 48.0369 41.1527 48.0369C42.7337 48.0369 44.1577 47.6019 45.1647 46.8129C46.1917 46.0099 46.7567 44.8669 46.7557 43.5949C46.7557 41.1539 45.1727 39.5609 41.1027 37.9119C36.3017 36.0269 31.3937 33.3099 31.3937 27.4539C31.3937 23.0209 34.2157 19.4029 38.7587 18.0119L39.3837 17.8199C39.5937 17.7559 39.7367 17.5619 39.7367 17.3419V12.0019H45.1107V16.9419C45.1107 17.1909 45.2937 17.4009 45.5397 17.4369L46.2987 17.5459C48.3447 17.8379 50.1477 18.4539 51.8127 19.4309L52.5197 19.8469L50.4457 25.3259L49.4587 24.7609C48.5437 24.2379 46.3997 23.0109 42.9767 23.0109C39.9627 23.0109 38.0907 24.4589 38.0907 26.7909C38.0907 28.7389 38.9947 29.9819 44.3527 32.1969C50.6857 34.7779 53.5097 38.1729 53.5097 43.2059C53.5097 47.7839 50.4657 51.6839 45.7527 53.1419L45.1297 53.3349C44.9207 53.3999 44.7777 53.5929 44.7777 53.8129V59.3209H39.3517V54.1749C39.3517 53.9249 39.1667 53.7129 38.9187 53.6789L38.1527 53.5749C35.4717 53.2129 32.9757 52.3219 31.3077 51.1319L30.7067 50.6989L32.6987 45.1349Z" fill="#00CA83"/>
<path d="M53.9386 84.997C54.2146 84.997 54.4386 84.773 54.4386 84.497V60.821C54.4386 60.638 54.3386 60.469 54.1776 60.382C54.0166 60.294 53.8206 60.302 53.6666 60.401C53.3506 60.605 53.0256 60.799 52.7016 60.994L51.8896 61.49C51.6446 61.642 51.3996 61.795 51.1496 61.941C50.4426 62.355 49.7206 62.747 48.9956 63.138L48.6326 63.339C48.4586 63.437 48.2836 63.534 48.1046 63.627C46.0726 64.685 43.9746 65.653 41.8706 66.506C41.6826 66.583 41.5586 66.766 41.5586 66.969V84.496C41.5586 84.772 41.7826 84.996 42.0586 84.996H53.9386V84.997ZM42.5586 67.305C44.5866 66.472 46.6056 65.534 48.5656 64.514C48.7536 64.417 48.9366 64.314 49.1206 64.212L49.4716 64.018C50.2066 63.622 50.9386 63.224 51.6566 62.804C51.9136 62.653 52.1666 62.496 52.4186 62.34L53.2176 61.853C53.2916 61.809 53.3656 61.764 53.4406 61.72V83.998H42.5586V67.305Z" fill="#292F46"/>
<path d="M19.6855 84.9971H31.5675C31.8435 84.9971 32.0675 84.7731 32.0675 84.4971V70.3351C32.0675 70.1821 31.9975 70.0371 31.8775 69.9421C31.7565 69.8471 31.5995 69.8121 31.4515 69.8481C31.0835 69.9361 30.7125 70.0161 30.3415 70.0961L29.4425 70.2941C29.2055 70.3481 28.9685 70.4011 28.7285 70.4501C27.8825 70.6221 27.0295 70.7741 26.1745 70.9191L25.6515 71.0131C24.6165 71.1801 23.5775 71.3241 22.5365 71.4491C22.3485 71.4711 22.1605 71.4901 21.9715 71.5071L21.1905 71.5881C20.6765 71.6431 20.1615 71.6991 19.6455 71.7411C19.3855 71.7621 19.1865 71.9791 19.1865 72.2401V84.4961C19.1855 84.7731 19.4085 84.9971 19.6855 84.9971ZM20.1855 72.6981C20.5565 72.6631 20.9275 72.6231 21.2975 72.5831L22.0665 72.5031C22.2625 72.4841 22.4585 72.4651 22.6545 72.4421C23.7105 72.3151 24.7625 72.1691 25.8085 72.0011L26.3415 71.9051C27.2075 71.7591 28.0705 71.6051 28.9275 71.4301C29.1745 71.3801 29.4185 71.3251 29.6635 71.2691L30.5515 71.0741C30.7235 71.0371 30.8965 71.0001 31.0685 70.9621V83.9961H20.1855V72.6981Z" fill="#292F46"/>
</svg>
