<svg width="96" height="96" viewBox="0 0 96 96" fill="none" xmlns="http://www.w3.org/2000/svg">
<path d="M82.877 81.2039V42.9949C82.877 42.7849 82.745 42.5969 82.547 42.5249C82.447 42.4889 82.339 42.4849 82.239 42.5149L82.231 42.5079C82.1411 42.4339 82.028 42.3929 81.912 42.3929H80.705C80.916 42.3929 81.104 42.2609 81.175 42.0619C81.247 41.8639 81.1861 41.6419 81.024 41.5069L48.318 14.4109C48.133 14.2579 47.865 14.2579 47.68 14.4109L14.974 41.5069C14.811 41.6419 14.751 41.8629 14.823 42.0619C14.894 42.2599 15.082 42.3929 15.293 42.3929H14.086C13.97 42.3929 13.857 42.4339 13.768 42.5079L13.758 42.5159C13.661 42.4889 13.554 42.4919 13.454 42.5269C13.256 42.5979 13.123 42.7859 13.123 42.9969V81.2039C13.123 81.4799 13.347 81.7039 13.623 81.7039H82.378C82.654 81.7039 82.877 81.4799 82.877 81.2039ZM48 15.4449L79.319 41.3919H16.68L48 15.4449ZM81.877 80.7039H14.123V43.5109L14.266 43.3929H81.733L81.878 43.5129L81.877 80.7039Z" fill="#292F46"/>
<path d="M49.9192 58.5101C46.7662 57.1701 46.7662 56.7041 46.7662 56.2941C46.7662 55.2771 48.0162 55.1671 48.5542 55.1671C50.2932 55.1671 51.4352 55.8171 51.9842 56.1301L53.3962 56.9391C53.5232 57.0111 53.6752 57.0251 53.8132 56.9761C53.9512 56.9271 54.0602 56.8201 54.1122 56.6831L55.9842 51.7581C56.0722 51.5271 55.9782 51.2671 55.7632 51.1451L54.7242 50.5571C53.6082 49.9271 52.4422 49.5091 51.1702 49.2851V46.2351C51.1702 45.9591 50.9462 45.7351 50.6702 45.7351H45.7082C45.4322 45.7351 45.2082 45.9591 45.2082 46.2351V49.6241C41.9892 50.7231 40.0062 53.3951 40.0062 56.6781C40.0062 61.1511 43.4972 63.1261 46.9082 64.4661C49.6482 65.5761 49.6482 66.3991 49.6482 66.8411C49.6482 67.9561 48.4932 68.3531 47.4112 68.3531C46.0832 68.3531 44.6182 67.9111 43.4912 67.1711L42.0142 66.1981C41.8862 66.1141 41.7262 66.0911 41.5812 66.1411C41.4352 66.1891 41.3202 66.3021 41.2682 66.4471L39.4842 71.4261C39.4082 71.6361 39.4822 71.8721 39.6642 72.0021L40.5202 72.6121C41.6842 73.4421 43.2622 74.0441 45.0012 74.3241V77.4601C45.0012 77.7361 45.2252 77.9601 45.5012 77.9601H50.4632C50.7392 77.9601 50.9632 77.7361 50.9632 77.4601V73.9411C54.3052 72.8211 56.4442 69.9631 56.4442 66.5631C56.4422 61.7831 52.9522 59.7471 49.9192 58.5101ZM50.3262 73.0901C50.1122 73.1521 49.9652 73.3471 49.9652 73.5701V76.9571H46.0032V73.8891C46.0032 73.6381 45.8162 73.4251 45.5662 73.3931C43.8412 73.1711 42.2142 72.5891 41.1022 71.7951L40.5542 71.4041L41.9962 67.3811L42.9422 68.0041C44.2262 68.8471 45.8972 69.3511 47.4122 69.3511C49.3482 69.3511 50.6492 68.3421 50.6492 66.8391C50.6492 65.8321 50.2412 64.7351 47.2792 63.5361C44.1772 62.3171 41.0072 60.5501 41.0072 56.6771C41.0072 53.6901 42.8182 51.3681 45.8512 50.4681C46.0632 50.4051 46.2092 50.2101 46.2092 49.9891V46.7351H50.1712V49.7131C50.1712 49.9631 50.3552 50.1731 50.6022 50.2081C51.9162 50.3921 53.1042 50.7911 54.2332 51.4281L54.8982 51.8041L53.3872 55.7811L52.4802 55.2611C51.8562 54.9061 50.5592 54.1671 48.5552 54.1671C46.4992 54.1671 45.7672 55.2661 45.7672 56.2941C45.7672 57.3571 46.3102 58.0621 49.5352 59.4331C52.2852 60.5551 55.4432 62.3791 55.4472 66.5611C55.4462 69.6711 53.4842 72.1731 50.3262 73.0901Z" fill="#00CA83"/>
</svg>
