<svg width="30" height="30" viewBox="0 0 30 30" fill="none" xmlns="http://www.w3.org/2000/svg">
<path d="M0.71875 25H4.65625C4.96875 25 5.21875 24.75 5.21875 24.4375V20.6875C5.21875 20.375 4.96875 20.125 4.65625 20.125H0.71875C0.40625 20.125 0.15625 20.375 0.15625 20.6875V24.4375C0.15625 24.75 0.40625 25 0.71875 25Z" fill="#FCA440"/>
<path d="M26.6563 27.25H0.71875C0.40625 27.25 0.15625 27.5 0.15625 27.8125V29.25C0.15625 29.5625 0.40625 29.8125 0.71875 29.8125H26.6563C26.9688 29.8125 27.2188 29.5625 27.2188 29.25V27.8125C27.25 27.5 26.9688 27.25 26.6563 27.25Z" fill="#FCA440"/>
<path d="M8.0625 25H12C12.3125 25 12.5625 24.75 12.5625 24.4375V16.0625C12.5625 15.75 12.3125 15.5 12 15.5H8.0625C7.75 15.5 7.5 15.75 7.5 16.0625V24.4063C7.5 24.75 7.75 25 8.0625 25Z" fill="#FCA440"/>
<path d="M15.4062 25H19.3438C19.6563 25 19.9062 24.75 19.9062 24.4375V11.4687C19.9062 11.1562 19.6563 10.9062 19.3438 10.9062H15.4062C15.0937 10.9062 14.8438 11.1562 14.8438 11.4687V24.4062C14.8438 24.75 15.0937 25 15.4062 25Z" fill="#FCA440"/>
<path d="M29.7187 6.5625L25.1562 0.40625C24.9374 0.09375 24.4687 0.09375 24.2187 0.40625L19.6874 6.5625C19.4062 6.9375 19.6874 7.46875 20.1562 7.46875H22.1874V24.4062C22.1874 24.7187 22.4374 24.9688 22.7499 24.9688H26.6874C26.9999 24.9688 27.2499 24.7187 27.2499 24.4062V7.46875H29.2812C29.7499 7.46875 29.9999 6.9375 29.7187 6.5625Z" fill="#FCA440"/>
</svg>
