<svg width="40" height="30" viewBox="0 0 40 30" fill="none" xmlns="http://www.w3.org/2000/svg">
<g clip-path="url(#clip0_1249_290)">
<path d="M37.361 14.2437L31.6381 9.49697V0.590524C31.6381 0.37855 31.4664 0.206445 31.254 0.206445H25.7518C25.5398 0.206445 25.3677 0.37855 25.3677 0.590524V4.29592L20.3277 0.114866C20.0012 -0.155924 19.4723 -0.155924 19.1458 0.114866L2.11255 14.2437C1.94913 14.3795 1.92663 14.6214 2.06242 14.7841L3.77795 16.8525C3.91374 17.0159 4.15571 17.0384 4.31834 16.9026L19.7368 4.11395L35.1556 16.9026C35.3182 17.0384 35.5602 17.0159 35.696 16.8525L37.4115 14.7841C37.5469 14.6214 37.5248 14.3795 37.361 14.2437Z" fill="#18CDF6"/>
<path d="M19.7367 6.28421L6.14634 17.5575C5.98331 17.6937 5.85107 17.9751 5.85107 18.1871V28.9038C5.85107 29.7541 6.18502 30.088 7.03528 30.088H32.4382C33.2884 30.088 33.6224 29.7541 33.6224 28.9038V18.1867C33.6224 17.9747 33.4902 17.6933 33.3275 17.5571L19.7367 6.28421Z" fill="#18CDF6"/>
</g>
<defs>
<clipPath id="clip0_1249_290">
<rect width="39.4737" height="30" fill="white"/>
</clipPath>
</defs>
</svg>
