<svg width="96" height="96" viewBox="0 0 96 96" fill="none" xmlns="http://www.w3.org/2000/svg">
<path d="M80.8858 50.1083V46.5415C80.8858 46.2427 80.6433 46.0002 80.3446 46.0002H65.8845C65.5857 46.0002 65.3433 46.2427 65.3433 46.5415V50.1083C65.3433 50.4071 65.5857 50.6496 65.8845 50.6496H69.5628C69.2641 50.6496 69.0216 50.8921 69.0216 51.1908V78.393C69.0216 78.6918 69.2641 78.9343 69.5628 78.9343H65.8845C65.5857 78.9343 65.3433 79.1767 65.3433 79.4755V83.0434C65.3433 83.3422 65.5857 83.5847 65.8845 83.5847H80.3456C80.6444 83.5847 80.8869 83.3422 80.8869 83.0434V79.4755C80.8869 79.1767 80.6444 78.9343 80.3456 78.9343H76.663C76.9617 78.9343 77.2042 78.6918 77.2042 78.393V51.1908C77.2042 50.8921 76.9617 50.6496 76.663 50.6496H80.3456C80.6444 50.6496 80.8858 50.4071 80.8858 50.1083ZM79.8033 80.0168V82.5022H66.4258V80.0168H79.8033ZM70.103 77.8518V51.7321H76.1206V77.8518H70.103ZM79.8033 49.5671H66.4258V47.0827H79.8044V49.5671H79.8033Z" fill="#292F46"/>
<path d="M87.8834 42.5111C87.9559 42.2882 87.878 42.0446 87.6885 41.906L48.2746 13.1039C48.0841 12.9654 47.8265 12.9654 47.636 13.1039L8.2221 41.906C8.03266 42.0446 7.95364 42.2892 8.02725 42.5111C8.09978 42.7341 8.30762 42.8846 8.54144 42.8846H87.3692C87.603 42.8846 87.8108 42.7341 87.8834 42.5111ZM10.1998 41.8021L47.9553 14.2113L85.7097 41.8021H10.1998Z" fill="#292F46"/>
<path d="M46.4669 75.8805H49.4448C49.7436 75.8805 49.9861 75.6381 49.9861 75.3393L49.9872 73.1147C52.2983 72.3483 53.7683 70.3977 53.7683 68.0432C53.7683 64.7665 51.3695 63.3668 49.2857 62.516C47.0882 61.585 47.0882 61.2689 47.0882 60.9626C47.0882 60.5967 47.3069 60.1605 48.3493 60.1605C49.5563 60.1605 50.2892 60.5772 50.7265 60.8251L51.4756 61.2538C51.6131 61.3317 51.7776 61.3469 51.927 61.2938C52.0764 61.2408 52.1944 61.125 52.2507 60.9767L53.3797 58.0041C53.4739 57.7551 53.3743 57.4748 53.1437 57.3427L52.5938 57.0266C51.8242 56.5904 51.0134 56.3013 50.129 56.1498V54.2424C50.129 53.9437 49.8865 53.7012 49.5877 53.7012H46.6076C46.3088 53.7012 46.0663 53.9437 46.0663 54.2424V56.3782C43.8418 57.1316 42.4789 58.9556 42.4789 61.2267C42.4789 64.3151 45.0131 65.7072 47.216 66.5732C49.132 67.3493 49.132 67.9285 49.132 68.2402C49.132 69.0283 48.2866 69.3076 47.5613 69.3076C46.6412 69.3076 45.6236 69.0012 44.8431 68.4881L44.0594 67.9707C43.9208 67.8798 43.7476 67.8549 43.5896 67.909C43.4315 67.961 43.307 68.0833 43.2508 68.2402L42.1715 71.2518C42.0892 71.4802 42.1704 71.7346 42.3674 71.8753L42.8199 72.1968C43.6069 72.7575 44.7403 73.1851 45.9235 73.3756V75.3382C45.9256 75.6391 46.1681 75.8805 46.4669 75.8805ZM43.4499 71.3167L43.3319 71.2323L44.0399 69.2556L44.2488 69.3931C45.2003 70.0177 46.4387 70.3901 47.5624 70.3901C49.1244 70.3901 50.2156 69.5057 50.2156 68.2402C50.2156 67.1047 49.4405 66.3058 47.6187 65.5675C45.5121 64.7394 43.5625 63.6396 43.5625 61.2256C43.5625 59.3334 44.7836 57.8298 46.7494 57.3016C46.9854 57.2377 47.1499 57.0234 47.1499 56.7787V54.7837H49.0476V56.6196C49.0476 56.8945 49.2543 57.1262 49.5271 57.1576C50.4537 57.2637 51.2829 57.5289 52.058 57.9684L52.2041 58.0528L51.4637 60.0013L51.2624 59.8866C50.8012 59.6246 49.8421 59.079 48.3493 59.079C46.6195 59.079 46.0057 60.0944 46.0057 60.9637C46.0057 62.11 46.8869 62.6773 48.87 63.5162C50.8521 64.3259 52.6858 65.4344 52.6858 68.0443C52.6858 70.0253 51.3598 71.6523 49.3074 72.1881C49.0692 72.2509 48.9025 72.4652 48.9025 72.7121V74.798H47.007V72.9037C47.007 72.6265 46.7981 72.3938 46.5221 72.3657C45.3476 72.2422 44.199 71.8504 43.4499 71.3167Z" fill="#00CA83"/>
<path d="M30.5684 50.1083V46.5415C30.5684 46.2427 30.326 46.0002 30.0272 46.0002H15.5671C15.2684 46.0002 15.0259 46.2427 15.0259 46.5415V50.1083C15.0259 50.4071 15.2684 50.6496 15.5671 50.6496H19.2487C18.9499 50.6496 18.7075 50.8921 18.7075 51.1908V78.393C18.7075 78.6918 18.9499 78.9343 19.2487 78.9343H15.5671C15.2684 78.9343 15.0259 79.1767 15.0259 79.4755V83.0434C15.0259 83.3422 15.2684 83.5847 15.5671 83.5847H30.0283C30.327 83.5847 30.5695 83.3422 30.5695 83.0434V79.4755C30.5695 79.1767 30.327 78.9343 30.0283 78.9343H26.3467C26.6454 78.9343 26.8879 78.6918 26.8879 78.393V51.1908C26.8879 50.8921 26.6454 50.6496 26.3467 50.6496H30.0283C30.327 50.6496 30.5684 50.4071 30.5684 50.1083ZM29.4859 80.0168V82.5022H16.1084V80.0168H29.4859ZM19.7889 77.8518V51.7321H25.8043V77.8518H19.7889ZM29.4859 49.5671H16.1084V47.0827H29.487V49.5671H29.4859Z" fill="#292F46"/>
</svg>
