<svg width="96" height="96" viewBox="0 0 96 96" fill="none" xmlns="http://www.w3.org/2000/svg">
<path d="M48.0004 11.0649C27.6344 11.0649 11.0664 27.6329 11.0664 47.9999C11.0664 68.3669 27.6344 84.9349 48.0004 84.9349C68.3664 84.9349 84.9344 68.3659 84.9344 47.9999C84.9344 27.6339 68.3664 11.0649 48.0004 11.0649ZM48.0004 83.9349C28.1864 83.9349 12.0664 67.8149 12.0664 47.9999C12.0664 28.1849 28.1864 12.0649 48.0004 12.0649C67.8144 12.0649 83.9344 28.1859 83.9344 47.9999C83.9344 67.8139 67.8144 83.9349 48.0004 83.9349Z" fill="#292F46"/>
<path d="M51.3773 42.538C46.7623 40.574 46.3793 39.787 46.3793 39.092C46.3793 38.007 47.3543 37.409 49.1243 37.409C51.8953 37.409 53.6963 38.442 54.5613 38.939L57.2573 40.494C57.3853 40.567 57.5363 40.58 57.6753 40.531C57.8133 40.482 57.9233 40.375 57.9743 40.238L61.2863 31.517C61.3743 31.287 61.2803 31.026 61.0653 30.905L59.0823 29.78C57.4543 28.857 55.7663 28.221 53.9203 27.835L53.4453 27.736V22.521C53.4453 22.245 53.2213 22.021 52.9453 22.021H44.1193C43.8433 22.021 43.6193 22.245 43.6193 22.521V28.283L43.2343 28.43C38.3243 30.303 35.2743 34.621 35.2743 39.7C35.2743 46.961 40.9113 50.148 46.4193 52.305C50.7493 54.064 50.7493 55.328 50.7493 56.008C50.7493 57.403 49.3893 58.304 47.2853 58.304C45.1743 58.304 42.8463 57.604 41.0593 56.43L38.2393 54.576C38.1113 54.492 37.9503 54.472 37.8063 54.519C37.6603 54.568 37.5453 54.68 37.4933 54.825L34.3333 63.626C34.2573 63.837 34.3313 64.072 34.5133 64.202L36.1483 65.367C37.8713 66.601 40.2373 67.551 42.8103 68.039L43.2953 68.131V73.479C43.2953 73.755 43.5193 73.979 43.7953 73.979H52.6183C52.8943 73.979 53.1183 73.755 53.1183 73.479V67.5L53.5063 67.355C58.6113 65.447 61.9103 60.82 61.9103 55.567C61.9123 47.867 56.5833 44.658 51.3773 42.538ZM53.1583 66.418L52.4453 66.684C52.2493 66.757 52.1193 66.944 52.1193 67.153V72.979H44.2963V67.717C44.2963 67.477 44.1253 67.271 43.8893 67.226L42.9973 67.057C40.5643 66.595 38.3393 65.706 36.7313 64.554L35.4043 63.608L38.2213 55.761L40.5113 57.267C42.4553 58.543 44.9883 59.305 47.2863 59.305C49.9983 59.305 51.7503 58.011 51.7503 56.009C51.7503 54.65 51.1503 53.148 46.7913 51.377C41.5913 49.34 36.2753 46.359 36.2753 39.7C36.2753 35.047 39.0793 31.087 43.5923 29.364L44.2993 29.093C44.4923 29.019 44.6203 28.833 44.6203 28.626V23.021H52.4463V28.143C52.4463 28.38 52.6133 28.584 52.8453 28.632L53.7183 28.813C55.4603 29.178 57.0543 29.779 58.5913 30.649L60.2013 31.563L57.2503 39.334L55.0623 38.072C54.1213 37.532 52.1633 36.409 49.1263 36.409C45.6513 36.409 45.3813 38.463 45.3813 39.092C45.3813 40.61 46.6913 41.63 50.9943 43.461C55.8993 45.459 60.9133 48.459 60.9133 55.567C60.9123 60.398 57.8683 64.658 53.1583 66.418Z" fill="#00CA83"/>
</svg>
