<svg width="96" height="96" viewBox="0 0 96 96" fill="none" xmlns="http://www.w3.org/2000/svg">
<path d="M31.4381 37H50.5619C50.8037 37 51 36.888 51 36.75V36.25C51 36.112 50.8037 36 50.5619 36H31.4381C31.1963 36 31 36.112 31 36.25V36.75C31 36.8885 31.1954 37 31.4381 37Z" fill="#292F46"/>
<path d="M31.4382 59H63.5618C63.8037 59 64 58.888 64 58.75V58.25C64 58.112 63.8037 58 63.5618 58H31.4382C31.1963 58 31 58.112 31 58.25V58.75C31 58.888 31.1954 59 31.4382 59Z" fill="#292F46"/>
<path d="M21.4378 13C21.1961 13 21 13.196 21 13.4375V82.5625C21 82.804 21.1961 83 21.4378 83H63.5029C63.6211 83 63.734 82.9519 63.8163 82.8679L74.8757 71.5305C74.9553 71.4491 75 71.3389 75 71.2251V13.4375C75 13.196 74.8039 13 74.5622 13H21.4378ZM74.1244 71.0466L63.3181 82.125H21.8756V13.875H74.1244V71.0466Z" fill="#292F46"/>
<path d="M31.4382 48H63.5618C63.8037 48 64 47.888 64 47.75V47.25C64 47.112 63.8037 47 63.5618 47H31.4382C31.1963 47 31 47.112 31 47.25V47.75C31 47.888 31.1954 48 31.4382 48Z" fill="#292F46"/>
<path d="M56.8916 34.7344C57.5176 35.1844 58.3939 35.546 59.3381 35.7491V37.5622C59.3381 37.8039 59.5328 38 59.7728 38H63.3529C63.5929 38 63.7876 37.8039 63.7876 37.5622V35.4759C65.7776 34.6617 67 32.8941 67 30.7946C67 27.2681 63.8902 25.9916 62.8704 25.5731C61.5255 25.0128 61.3455 24.779 61.3273 24.7134C61.3273 24.6048 61.615 24.5488 61.8984 24.5488C62.8322 24.5488 63.4216 24.8893 63.6737 25.0347L64.8439 25.7079C64.9543 25.7718 65.0865 25.7823 65.2065 25.7403C65.3264 25.6966 65.4212 25.6029 65.4664 25.4829L66.7948 21.9485C66.8696 21.7489 66.7914 21.5239 66.6079 21.4162L65.7698 20.9216C65.1908 20.5792 64.5788 20.3358 63.9093 20.1809V18.4378C63.9093 18.1961 63.7146 18 63.4746 18H59.9136C59.6737 18 59.4789 18.1961 59.4789 18.4378V20.4602C57.5767 21.2394 56.4091 22.9378 56.4091 24.9603C56.4091 27.9221 58.8912 29.2458 60.7543 29.9813C62.0619 30.5144 62.0619 30.8226 62.0619 30.9399C62.0619 31.0205 62.0402 31.0783 61.988 31.1308C61.8567 31.263 61.5594 31.3488 61.229 31.3488C60.5161 31.3488 59.7502 31.1203 59.1807 30.7368L57.9566 29.913C57.8454 29.8386 57.7054 29.8193 57.5785 29.8613C57.4515 29.9033 57.3507 30.0023 57.3055 30.1292L56.0257 33.7214C55.9597 33.9061 56.024 34.1119 56.1822 34.2257L56.8916 34.7344ZM57.9358 30.9513L58.6974 31.4635C59.4042 31.9389 60.3509 32.2234 61.229 32.2234C61.5011 32.2234 62.1784 32.177 62.6035 31.7489C62.8191 31.5309 62.9321 31.2507 62.9313 30.9382C62.9313 30.3297 62.6166 29.7965 61.076 29.1679C59.1981 28.4255 57.2785 27.346 57.2785 24.9594C57.2785 23.1935 58.3166 21.7795 60.0553 21.1763C60.231 21.1159 60.3483 20.9496 60.3483 20.7622V18.8746H63.0399V20.5372C63.0399 20.7491 63.1912 20.9312 63.3981 20.968C64.1076 21.0958 64.7396 21.3269 65.3299 21.6754L65.8515 21.9835L64.8335 24.6932L64.1058 24.2747C63.7937 24.0944 63.0643 23.6724 61.8984 23.6724C60.5622 23.6724 60.4579 24.4682 60.4579 24.7125C60.4579 25.2676 60.7587 25.6396 62.5401 26.3821C64.2119 27.0685 66.1306 28.19 66.1306 30.7946C66.1306 32.6104 65.0117 34.1294 63.2103 34.7598C63.0356 34.821 62.9182 34.9865 62.9182 35.173V37.1245H60.2075V35.3875C60.2075 35.1739 60.0536 34.9909 59.845 34.9559C58.8904 34.7948 57.9975 34.4551 57.3968 34.0235L56.9551 33.7065L57.9358 30.9513Z" fill="#00CA83"/>
</svg>
