<svg width="34" height="30" viewBox="0 0 34 30" fill="none" xmlns="http://www.w3.org/2000/svg">
<g clip-path="url(#clip0_1249_312)">
<path d="M13.9901 21.9717C13.8054 21.9717 13.6558 22.1213 13.6558 22.306V23.9787C13.6558 24.1643 13.8054 24.3133 13.9901 24.3133H14.8264H18.5064H19.3431C19.5278 24.3133 19.6774 24.1643 19.6774 23.9787V22.306C19.6774 22.1213 19.5278 21.9717 19.3431 21.9717H18.5064V13.4417H19.3431C19.5278 13.4417 19.6774 13.292 19.6774 13.107V11.4343C19.6774 11.2493 19.5278 11.0997 19.3431 11.0997H18.5064H14.8264H13.9901C13.8054 11.0997 13.6558 11.2493 13.6558 11.4343V13.107C13.6558 13.292 13.8054 13.4417 13.9901 13.4417H14.8264V21.9717H13.9901Z" fill="#FCA440"/>
<path d="M3.28662 25.4837V26.822C3.28662 27.0073 3.43595 27.1563 3.62129 27.1563H29.7116C29.8973 27.1563 30.0463 27.0073 30.0463 26.822V25.4837C30.0463 25.298 29.8973 25.149 29.7116 25.149H3.62129C3.43595 25.149 3.28662 25.2987 3.28662 25.4837Z" fill="#FCA440"/>
<path d="M4.95918 21.9717C4.77418 21.9717 4.62451 22.1213 4.62451 22.306V23.9787C4.62451 24.1643 4.77418 24.3133 4.95918 24.3133H5.79551H9.47518H10.3115C10.4962 24.3133 10.6458 24.1643 10.6458 23.9787V22.306C10.6458 22.1213 10.4962 21.9717 10.3115 21.9717H9.47518V13.4417H10.3115C10.4962 13.4417 10.6458 13.292 10.6458 13.107V11.4343C10.6458 11.2493 10.4962 11.0997 10.3115 11.0997H9.47518H5.79551H4.95918C4.77418 11.0997 4.62451 11.2493 4.62451 11.4343V13.107C4.62451 13.292 4.77418 13.4417 4.95918 13.4417H5.79551V21.9717H4.95918Z" fill="#FCA440"/>
<path d="M23.0222 21.9717C22.8372 21.9717 22.6875 22.1213 22.6875 22.306V23.9787C22.6875 24.1643 22.8372 24.3133 23.0222 24.3133H23.8585H27.5382H28.3745C28.5595 24.3133 28.7092 24.1643 28.7092 23.9787V22.306C28.7092 22.1213 28.5595 21.9717 28.3745 21.9717H27.5382V13.4417H28.3745C28.5595 13.4417 28.7092 13.292 28.7092 13.107V11.4343C28.7092 11.2493 28.5595 11.0997 28.3745 11.0997H27.5382H23.8585H23.0222C22.8372 11.0997 22.6875 11.2493 22.6875 11.4343V13.107C22.6875 13.292 22.8372 13.4417 23.0222 13.4417H23.8585V21.9717H23.0222Z" fill="#FCA440"/>
<path d="M30.8827 27.993H2.45039C2.26539 27.993 2.11572 28.1423 2.11572 28.3277V29.6657C2.11572 29.8503 2.26539 30 2.45039 30H30.8827C31.0681 30 31.2174 29.8503 31.2174 29.6653V28.3273C31.2174 28.1423 31.0681 27.993 30.8827 27.993Z" fill="#FCA440"/>
<path d="M3.11933 10.264H30.2137C30.3987 10.264 30.5483 10.1143 30.5483 9.92933V7.27033C30.549 7.08567 30.415 6.868 30.25 6.78467L16.9653 0.0623321C16.8 -0.0210012 16.533 -0.0210012 16.368 0.0623321L3.08333 6.78467C2.91833 6.868 2.78467 7.08533 2.78467 7.27033V9.92933C2.78467 10.1143 2.93433 10.264 3.11933 10.264ZM16.6667 1.979C18.5573 1.979 20.0903 3.51167 20.0903 5.40267C20.0903 7.29366 18.5573 8.82633 16.6667 8.82633C14.7757 8.82633 13.243 7.29333 13.243 5.40267C13.243 3.51133 14.7757 1.979 16.6667 1.979Z" fill="#FCA440"/>
<ellipse cx="16.3236" cy="5.7353" rx="3.97059" ry="3.97059" fill="#FCA440"/>
</g>
<defs>
<clipPath id="clip0_1249_312">
<rect width="33.3333" height="30" fill="white"/>
</clipPath>
</defs>
</svg>
