<svg width="34" height="30" viewBox="0 0 34 30" fill="none" xmlns="http://www.w3.org/2000/svg">
<path d="M13.4083 7.37767H19.9249C23.6026 4.257 25.2746 2.87733 24.1816 1.70233C23.0079 0.44 21.6279 2.46567 20.0719 2.11333C18.5159 1.76133 18.3689 0 16.6666 0C14.9643 0 14.8173 1.76133 13.2616 2.11333C11.7056 2.46567 10.3259 0.44 9.15194 1.70233C8.05894 2.87733 9.73094 4.257 13.4083 7.37767Z" fill="#B455C8"/>
<path d="M20.021 8.90399H13.3123C11.1067 10.8647 5.80566 16.166 5.80566 21.8393C5.80566 27.4757 11.911 30 16.6667 30C21.4227 30 27.5277 27.4757 27.5277 21.84C27.5277 16.1663 22.2273 10.865 20.021 8.90399ZM19.7833 15.378L19.0663 16.763C19.011 16.871 18.9083 16.8893 18.816 16.8483C18.4703 16.695 17.6373 16.368 16.8353 16.368C16.377 16.368 15.6083 16.4723 15.6083 17.168C15.6083 17.36 15.6083 17.8093 16.948 18.2173C18.7433 18.764 19.6527 19.737 19.6527 21.1097C19.6527 22.242 18.9183 23.4477 17.3277 23.7583V24.826C17.3277 24.9473 17.2653 25.009 17.144 25.009H16.19C16.0683 25.009 16.0063 24.947 16.0063 24.826V23.811C14.9513 23.7083 14.0037 23.3143 13.6313 23.1423C13.5393 23.1 13.4947 23.0077 13.5503 22.8993L14.2653 21.5137C14.3213 21.4057 14.4233 21.387 14.516 21.428C14.8623 21.5817 15.696 21.9097 16.499 21.9097C16.9573 21.9097 17.726 21.8053 17.726 21.1093C17.726 20.9173 17.726 20.4677 16.3863 20.0603C14.5913 19.5133 13.6817 18.54 13.6817 17.1677C13.6817 16.0357 14.4153 14.8297 16.0067 14.5187V13.451C16.0067 13.3297 16.0687 13.2677 16.1903 13.2677H17.144C17.2657 13.2677 17.3277 13.3297 17.3277 13.451V14.4667C18.3823 14.5687 19.3307 14.963 19.7027 15.1353C19.794 15.1777 19.8393 15.2703 19.7833 15.378Z" fill="#B455C8"/>
</svg>
