<svg width="26" height="30" viewBox="0 0 26 30" fill="none" xmlns="http://www.w3.org/2000/svg">
<path d="M2.71387 1.07143C2.16158 1.07143 1.71387 1.51914 1.71387 2.07143V27.9286C1.71387 28.4809 2.16158 28.9286 2.71387 28.9286H22.9996C23.5519 28.9286 23.9996 28.4809 23.9996 27.9286V2.07143C23.9996 1.51914 23.5519 1.07143 22.9996 1.07143H2.71387ZM18.4282 24.4286H7.28529C7.00113 24.4286 6.72861 24.3157 6.52768 24.1148C6.32675 23.9138 6.21387 23.6413 6.21387 23.3571C6.21387 23.073 6.32675 22.8005 6.52768 22.5995C6.72861 22.3986 7.00113 22.2857 7.28529 22.2857H18.4282C18.7123 22.2857 18.9848 22.3986 19.1858 22.5995C19.3867 22.8005 19.4996 23.073 19.4996 23.3571C19.4996 23.6413 19.3867 23.9138 19.1858 24.1148C18.9848 24.3157 18.7123 24.4286 18.4282 24.4286ZM18.4282 18.8571H7.28529C7.00113 18.8571 6.72861 18.7443 6.52768 18.5433C6.32675 18.3424 6.21387 18.0699 6.21387 17.7857C6.21387 17.5015 6.32675 17.229 6.52768 17.0281C6.72861 16.8272 7.00113 16.7143 7.28529 16.7143H18.4282C18.7123 16.7143 18.9848 16.8272 19.1858 17.0281C19.3867 17.229 19.4996 17.5015 19.4996 17.7857C19.4996 18.0699 19.3867 18.3424 19.1858 18.5433C18.9848 18.7443 18.7123 18.8571 18.4282 18.8571ZM18.4282 13.2857H7.28529C7.00113 13.2857 6.72861 13.1728 6.52768 12.9719C6.32675 12.771 6.21387 12.4984 6.21387 12.2143C6.21387 11.9301 6.32675 11.6576 6.52768 11.4567C6.72861 11.2557 7.00113 11.1429 7.28529 11.1429H18.4282C18.7123 11.1429 18.9848 11.2557 19.1858 11.4567C19.3867 11.6576 19.4996 11.9301 19.4996 12.2143C19.4996 12.4984 19.3867 12.771 19.1858 12.9719C18.9848 13.1728 18.7123 13.2857 18.4282 13.2857ZM18.4282 7.71428H7.28529C7.00113 7.71428 6.72861 7.6014 6.52768 7.40047C6.32675 7.19954 6.21387 6.92702 6.21387 6.64286C6.21387 6.3587 6.32675 6.08617 6.52768 5.88524C6.72861 5.68431 7.00113 5.57143 7.28529 5.57143H18.4282C18.7123 5.57143 18.9848 5.68431 19.1858 5.88524C19.3867 6.08617 19.4996 6.3587 19.4996 6.64286C19.4996 6.92702 19.3867 7.19954 19.1858 7.40047C18.9848 7.6014 18.7123 7.71428 18.4282 7.71428Z" fill="#18CDF6"/>
</svg>
