<svg width="31" height="30" viewBox="0 0 31 30" fill="none" xmlns="http://www.w3.org/2000/svg">
<path fill-rule="evenodd" clip-rule="evenodd" d="M15.543 2.4979C18.4433 3.82201 21.5029 5.19127 24.7682 4.99453L25.7506 4.93516V15.6865C25.7506 21.7765 21.3135 27.0436 15.3173 28.0888L15.1581 28.1166L14.9989 28.0888C9.00273 27.0436 4.56557 21.7765 4.56557 15.6865V4.93516L5.54799 4.99453C8.81326 5.19158 11.8726 3.82232 14.7728 2.4979L15.1581 2.32201L15.543 2.4979ZM14.2524 16.6544L11.541 13.9431C11.0535 13.4555 10.263 13.4555 9.77547 13.9431C9.28789 14.4306 9.28789 15.2211 9.77547 15.7086L13.372 19.3052C13.8596 19.7927 14.65 19.7927 15.1376 19.3052C17.3048 17.1379 19.4475 14.946 21.6049 12.769C22.0887 12.2807 22.0878 11.4928 21.5999 11.0078C21.1123 10.5231 20.3228 10.5237 19.8384 11.0128L14.2524 16.6544ZM15.1581 3.34074C12.0371 4.7659 8.93578 6.12695 5.49241 5.91948V15.6868C5.49241 21.3442 9.62262 26.2112 15.1581 27.1762C20.6936 26.2112 24.8238 21.3442 24.8238 15.6868V5.91948C21.3804 6.12695 18.279 4.7659 15.1581 3.34074ZM4.54094 3.47527C4.19104 3.41179 3.86452 3.49769 3.59168 3.72569C3.31883 3.95337 3.17578 4.25937 3.17578 4.61495V15.6865C3.17578 22.6974 8.40652 28.5452 15.1584 29.5219C21.91 28.5452 27.1407 22.6977 27.1407 15.6865V4.61495C27.1407 4.25937 26.9977 3.95369 26.7248 3.72569C26.452 3.49801 26.1252 3.41179 25.7756 3.47527C22.2072 4.12295 19.1225 2.59611 15.1581 0.7939C11.1937 2.59611 8.10904 4.12295 4.54094 3.47527Z" fill="#fff"/>
</svg>
