<svg width="78" height="78" viewBox="0 0 78 78" fill="none" xmlns="http://www.w3.org/2000/svg">
<rect opacity="0.4" width="78" height="78" rx="8" fill="url(#paint0_linear_1536_171)"/>
<g clip-path="url(#clip0_1536_171)">
<path d="M52.6502 53.775V50.775H51.5252C52.2002 50.775 52.7252 50.25 52.7252 49.575C52.7252 48.9 52.2002 48.375 51.5252 48.375H51.1502V38.25H51.5252C52.2002 38.25 52.7252 37.725 52.7252 37.05C52.7252 36.375 52.2002 35.85 51.5252 35.85H53.1752V33.375H54.7502C57.1502 33.375 57.9002 30.075 55.8002 29.025L40.0502 21.225C39.3752 20.925 38.6252 20.925 38.0252 21.225L22.2752 29.025C20.1002 30.075 20.8502 33.375 23.3252 33.375H24.9002V35.85H26.5502C25.8752 35.85 25.3502 36.375 25.3502 37.05C25.3502 37.725 25.8752 38.25 26.5502 38.25H26.9252V48.3H26.4752C25.8002 48.3 25.2752 48.825 25.2752 49.5C25.2752 50.175 25.8002 50.7 26.4752 50.7H25.3502V53.7H21.0002V57H57.0002V53.775H52.6502ZM37.3502 48.375H36.9752C36.3002 48.375 35.7752 48.9 35.7752 49.575C35.7752 50.25 36.3002 50.775 36.9752 50.775H30.4502C31.1252 50.775 31.6502 50.25 31.6502 49.575C31.6502 48.9 31.1252 48.375 30.4502 48.375H30.0752V38.25H30.4502C31.1252 38.25 31.6502 37.725 31.6502 37.05C31.6502 36.375 31.1252 35.85 30.4502 35.85H36.9752C36.3002 35.85 35.7752 36.375 35.7752 37.05C35.7752 37.725 36.3002 38.25 36.9752 38.25H37.3502V48.375ZM34.8752 27.15C34.8752 24.9 36.7502 23.025 39.0002 23.025C41.2502 23.025 43.1252 24.9 43.1252 27.15C43.1252 29.475 41.2502 31.275 39.0002 31.275C36.7502 31.275 34.8752 29.475 34.8752 27.15ZM47.8502 48.375H47.4752C46.8002 48.375 46.2752 48.9 46.2752 49.575C46.2752 50.25 46.8002 50.775 47.4752 50.775H40.9502C41.6252 50.775 42.1502 50.25 42.1502 49.575C42.1502 48.9 41.6252 48.375 40.9502 48.375H40.5752V38.25H40.9502C41.6252 38.25 42.1502 37.725 42.1502 37.05C42.1502 36.375 41.6252 35.85 40.9502 35.85H47.4752C46.8002 35.85 46.2752 36.375 46.2752 37.05C46.2752 37.725 46.8002 38.25 47.4752 38.25H47.8502V48.375Z" fill="url(#paint1_linear_1536_171)"/>
<path d="M39.225 26.775V25.725C39.525 25.8 39.825 25.875 40.05 26.025L40.425 25.5C40.05 25.275 39.675 25.125 39.225 25.05V24.825H38.85V25.125C38.475 25.125 38.175 25.275 37.95 25.5C37.725 25.725 37.575 25.95 37.575 26.325C37.575 26.7 37.65 26.925 37.875 27.075C38.1 27.225 38.4 27.375 38.85 27.45V28.5C38.475 28.425 38.175 28.275 37.875 27.975L37.5 28.5C37.95 28.875 38.4 29.1 38.925 29.1V29.55H39.3V29.1C39.675 29.1 39.975 28.95 40.275 28.725C40.5 28.5 40.65 28.275 40.65 27.9C40.65 27.6 40.575 27.3 40.35 27.15C40.05 27.075 39.675 26.925 39.225 26.775ZM38.85 26.7C38.625 26.625 38.475 26.55 38.4 26.475C38.325 26.4 38.25 26.325 38.25 26.175C38.25 26.025 38.325 25.95 38.4 25.875C38.475 25.8 38.625 25.725 38.775 25.725V26.7H38.85ZM39.675 28.35C39.6 28.425 39.45 28.5 39.225 28.5V27.525C39.45 27.6 39.6 27.675 39.75 27.75C39.825 27.825 39.9 27.9 39.9 28.05C39.825 28.2 39.75 28.275 39.675 28.35Z" fill="url(#paint2_linear_1536_171)"/>
</g>
<defs>
<linearGradient id="paint0_linear_1536_171" x1="34.4118" y1="0" x2="34.4118" y2="78" gradientUnits="userSpaceOnUse">
<stop stop-color="#0047FF" stop-opacity="0.8"/>
<stop offset="1" stop-color="#0047FF" stop-opacity="0"/>
</linearGradient>
<linearGradient id="paint1_linear_1536_171" x1="39.0106" y1="21" x2="39.0106" y2="57" gradientUnits="userSpaceOnUse">
<stop stop-color="#0047FF"/>
<stop offset="1" stop-color="#0085FF"/>
</linearGradient>
<linearGradient id="paint2_linear_1536_171" x1="39.075" y1="24.825" x2="39.075" y2="29.55" gradientUnits="userSpaceOnUse">
<stop stop-color="#0047FF"/>
<stop offset="1" stop-color="#0085FF"/>
</linearGradient>
<clipPath id="clip0_1536_171">
<rect width="36" height="36" fill="white" transform="translate(21 21)"/>
</clipPath>
</defs>
</svg>
