<svg fill="none" height="48" viewBox="0 0 48 48" width="48" xmlns="http://www.w3.org/2000/svg" xmlns:xlink="http://www.w3.org/1999/xlink"><clipPath id="a"><path d="m10 6h36v36h-36z"/></clipPath><g fill="#b455c8"><circle cx="24" cy="24" fill-opacity=".2" r="24"/><g clip-path="url(#a)"><path d="m28.75 42h-10.5c-5.6985 0-8.25-4.8975-8.25-9.75 0-6.9645 3.6765-14.175 8.7405-17.148.1155-.0675.246-.102.3795-.102h8.76c.1335 0 .264.0345.3795.102 1.209.711 2.343 1.6455 3.3735 2.781.2775.3075.255.7815-.0525 1.059-.306.279-.78.255-1.0605-.051-.8775-.9675-1.8345-1.7715-2.847-2.391h-8.346c-4.545 2.781-7.827 9.3645-7.827 15.75 0 3.8055 1.7685 8.25 6.75 8.25h10.5c4.9815 0 6.75-4.4445 6.75-8.25 0-2.0955-.372-4.332-1.077-6.462-.1305-.3945.084-.8175.477-.948.393-.1335.816.084.9465.4755.7545 2.2815 1.1535 4.68 1.1535 6.9345 0 4.8525-2.5515 9.75-8.25 9.75z"/><path d="m28.75 16.5h-10.5c-1.2405 0-2.25-1.0095-2.25-2.25s1.0095-2.25 2.25-2.25h10.5c1.2405 0 2.25 1.0095 2.25 2.25s-1.0095 2.25-2.25 2.25zm-10.5-3c-.414 0-.75.3375-.75.75s.336.75.75.75h10.5c.414 0 .75-.3375.75-.75s-.336-.75-.75-.75z"/><path d="m27.2501 13.5c-.2205 0-.438-.096-.5865-.282-.258-.324-.2055-.795.117-1.0545l4.161-3.3285c.3855-.3075.282-.717.24-.8355-.0405-.1155-.2145-.4995-.708-.4995h-13.947c-.4935 0-.6675.384-.708.501-.042.1185-.147.528.24.8355l4.161 3.3285c.3225.2595.375.7305.117 1.0545-.258.3225-.729.375-1.0545.117l-4.161-3.3285c-.7575-.606-1.0395-1.5885-.7185-2.5035.321-.9135 1.155-1.5045 2.124-1.5045h13.9485c.969 0 1.803.591 2.124 1.5045.321.915.039 1.8975-.7185 2.5035l-4.161 3.3285c-.1395.1095-.3045.1635-.4695.1635z"/><path d="m24.25 33.75h-3.75c-.414 0-.75-.336-.75-.75s.336-.75.75-.75h3.75c.8265 0 1.5-.672 1.5-1.5s-.6735-1.5-1.5-1.5h-1.5c-1.6545 0-3-1.3455-3-3s1.3455-3 3-3h3.75c.414 0 .75.336.75.75s-.336.75-.75.75h-3.75c-.8265 0-1.5.672-1.5 1.5s.6735 1.5 1.5 1.5h1.5c1.6545 0 3 1.3455 3 3s-1.3455 3-3 3z"/><path d="m23.5 36c-.414 0-.75-.336-.75-.75v-2.25c0-.414.336-.75.75-.75s.75.336.75.75v2.25c0 .414-.336.75-.75.75z"/><path d="m23.5 24.75c-.414 0-.75-.336-.75-.75v-2.25c0-.414.336-.75.75-.75s.75.336.75.75v2.25c0 .414-.336.75-.75.75z"/><path d="m31.7499 24c-.192 0-.384-.0735-.531-.219-.2925-.2925-.2925-.768 0-1.0605l3.75-3.75c.228-.228.576-.282.8655-.141l2.517 1.2585 4.8675-4.8675c.2925-.2925.768-.2925 1.0605 0s.2925.768 0 1.0605l-5.25 5.25c-.2295.2265-.579.282-.8655.141l-2.517-1.2585-3.3675 3.3675c-.1455.1455-.3375.219-.5295.219z"/><path d="m43.75 21c-.414 0-.75-.336-.75-.75v-3.75h-3.75c-.414 0-.75-.336-.75-.75s.336-.75.75-.75h4.5c.414 0 .75.336.75.75v4.5c0 .414-.336.75-.75.75z"/></g></g></svg>