<svg fill="none" height="48" viewBox="0 0 48 48" width="48" xmlns="http://www.w3.org/2000/svg" xmlns:xlink="http://www.w3.org/1999/xlink"><clipPath id="a"><path d="m8 7h33v33h-33z"/></clipPath><g fill="#fca440"><circle cx="24" cy="24" fill-opacity=".2" r="24"/><g clip-path="url(#a)"><path d="m40.4135 13.2409c-.4275-.5054-1.0263-.8142-1.6861-.8693l-23.2389-1.9404c-.6599-.0551-1.3015.1501-1.807.5776-.5034.4258-.8117 1.0216-.8685 1.6781l-.4676 4.3864h-1.8669c-1.36662 0-2.4785 1.1119-2.4785 2.4786v14.5471c0 1.3667 1.11188 2.4786 2.4785 2.4786h23.3199c1.3667 0 2.4786-1.1119 2.4786-2.4786v-2.3598l.8275.0691c.0698.0058.1392.0087.2081.0087 1.2741 0 2.3602-.9803 2.4681-2.2724l1.2105-14.4967c.0551-.6598-.1501-1.3015-.5777-1.807zm-29.935 5.1215h23.3199c.6559 0 1.1896.5336 1.1896 1.1895v1.3255h-25.69894v-1.3255c0-.6559.5336-1.1895 1.18944-1.1895zm-1.18944 3.8041h25.69894v2.6741h-25.69894zm24.50934 13.122h-23.3199c-.65584 0-1.18944-.5336-1.18944-1.1895v-7.9694h25.69894v7.9694c0 .6559-.5337 1.1895-1.1896 1.1895zm5.9082-20.3479-1.2105 14.4967c-.0546.6536-.6308 1.1412-1.2843 1.0864l-.9348-.0781v-10.8937c0-1.3667-1.1119-2.4786-2.4786-2.4786h-20.1566l.4537-4.2564c.0005-.0049.001-.0098.0014-.0147.0545-.6536.6305-1.1412 1.2843-1.0864l23.239 1.9404c.3167.0265.6041.1747.8092.4173.2052.2426.3036.5504.2772.8671z"/><path d="m32.2905 28.0459h-6.2031c-.356 0-.6445.2886-.6445.6446v4.0469c0 .356.2885.6445.6445.6445h6.2031c.356 0 .6445-.2885.6445-.6445v-4.0469c0-.356-.2885-.6446-.6445-.6446zm-.6445 4.047h-4.9141v-2.7579h4.9141z"/></g></g></svg>