<svg fill="none" height="48" viewBox="0 0 48 48" width="48" xmlns="http://www.w3.org/2000/svg" xmlns:xlink="http://www.w3.org/1999/xlink"><clipPath id="a"><path d="m9 9h29v29h-29z"/></clipPath><circle cx="24" cy="24" fill="#18cdf7" fill-opacity=".2" r="24"/><g clip-path="url(#a)"><path d="m37.275 21.557c-.0008-.0007-.0015-.0016-.0022-.0022l-11.8297-11.82931c-.5042-.50446-1.1746-.78213-1.8877-.78213s-1.3835.27767-1.888.78213l-11.82351 11.82331c-.00398.004-.00819.0082-.01195.0122-1.03546 1.0414-1.03369 2.7311.00509 3.7699.47457.4748 1.10117.7496 1.77137.7786.0274.0026.0549.004.0825.004h.4713v8.7054c0 1.7229 1.4018 3.1245 3.1247 3.1245h4.6282c.4693 0 .8496-.3805.8496-.8496v-6.8252c0-.7861.6397-1.4255 1.4258-1.4255h2.7298c.7861 0 1.4255.6394 1.4255 1.4255v6.8252c0 .4691.3803.8496.8496.8496h4.6282c1.7231 0 3.1247-1.4016 3.1247-3.1245v-8.7054h.4372c.7129 0 1.3833-.2777 1.888-.7824 1.0399-1.0403 1.0403-2.7331.0015-3.7741zm-1.2031 2.5727c-.1835.1834-.4273.2845-.6864.2845h-1.2868c-.4692 0-.8496.3804-.8496.8497v9.555c0 .7859-.6394 1.4253-1.4255 1.4253h-3.7786v-5.9756c0-1.7229-1.4016-3.1248-3.1247-3.1248h-2.7298c-1.7232 0-3.125 1.4019-3.125 3.1248v5.9756h-3.7786c-.7859 0-1.4255-.6394-1.4255-1.4253v-9.555c0-.4693-.3803-.8497-.8496-.8497h-1.2647c-.0133-.0008-.0263-.0015-.0398-.0017-.2531-.0044-.4905-.1049-.6684-.283-.3784-.3783-.3784-.9941 0-1.3727.0002 0 .0002-.0002.0004-.0004l.0007-.0007 11.8293-11.8288c.1832-.1834.4268-.2843.6861-.2843.2591 0 .5027.1009.6861.2843l11.8266 11.8264c.0018.0018.0038.0035.0055.0053.3764.379.3757.9934-.0017 1.3711z" fill="#18cdf7"/></g></svg>