<svg width="60" height="60" viewBox="0 0 60 60" fill="none" xmlns="http://www.w3.org/2000/svg">
<rect width="60" height="60" rx="15" fill="#F2FAFF"/>
<rect x="15" y="15" width="30" height="30" rx="5" fill="#A7C1D4"/>
<path d="M38.3337 25H32.5003C31.1742 25 29.9025 25.5268 28.9648 26.4645C28.0271 27.4021 27.5003 28.6739 27.5003 30C27.5003 31.3261 28.0271 32.5979 28.9648 33.5355C29.9025 34.4732 31.1742 35 32.5003 35H38.3337V36.6667C38.3337 36.8877 38.2459 37.0996 38.0896 37.2559C37.9333 37.4122 37.7213 37.5 37.5003 37.5H22.5003C22.2793 37.5 22.0674 37.4122 21.9111 37.2559C21.7548 37.0996 21.667 36.8877 21.667 36.6667V23.3333C21.667 23.1123 21.7548 22.9004 21.9111 22.7441C22.0674 22.5878 22.2793 22.5 22.5003 22.5H37.5003C37.7213 22.5 37.9333 22.5878 38.0896 22.7441C38.2459 22.9004 38.3337 23.1123 38.3337 23.3333V25ZM32.5003 26.6667H39.167V33.3333H32.5003C31.6163 33.3333 30.7684 32.9821 30.1433 32.357C29.5182 31.7319 29.167 30.8841 29.167 30C29.167 29.1159 29.5182 28.2681 30.1433 27.643C30.7684 27.0179 31.6163 26.6667 32.5003 26.6667ZM32.5003 29.1667V30.8333H35.0003V29.1667H32.5003Z" fill="white"/>
</svg>
