<svg width="60" height="60" viewBox="0 0 60 60" fill="none" xmlns="http://www.w3.org/2000/svg">
<path d="M0 15C0 6.71573 6.71573 0 15 0H45C53.2843 0 60 6.71573 60 15V45C60 53.2843 53.2843 60 45 60H15C6.71573 60 0 53.2843 0 45V15Z" fill="#F2FAFF"/>
<path d="M15 20C15 17.2386 17.2386 15 20 15H40C42.7614 15 45 17.2386 45 20V40C45 42.7614 42.7614 45 40 45H20C17.2386 45 15 42.7614 15 40V20Z" fill="#FEAE57"/>
<path d="M24.4778 23.7583C26.0001 22.4078 27.9653 21.6634 30.0003 21.6666C34.6028 21.6666 38.3337 25.3975 38.3337 30C38.3364 31.7032 37.8147 33.366 36.8395 34.7625L34.5837 30H36.667C36.667 28.6744 36.2719 27.379 35.5321 26.2791C34.7923 25.1792 33.7414 24.3248 32.5137 23.8251C31.286 23.3254 29.9371 23.203 28.6395 23.4735C27.3419 23.7441 26.1544 24.3954 25.2287 25.3441L24.4787 23.7591L24.4778 23.7583ZM35.5228 36.2416C34.0006 37.5922 32.0353 38.3365 30.0003 38.3333C25.3978 38.3333 21.667 34.6025 21.667 30C21.667 28.2291 22.2195 26.5875 23.1612 25.2375L25.417 30H23.3337C23.3336 31.3255 23.7288 32.621 24.4686 33.7208C25.2084 34.8207 26.2592 35.6751 27.487 36.1748C28.7147 36.6746 30.0635 36.797 31.3612 36.5264C32.6588 36.2558 33.8463 35.6046 34.772 34.6558L35.522 36.2408L35.5228 36.2416ZM27.0837 31.6666H31.667C31.7775 31.6666 31.8835 31.6227 31.9616 31.5446C32.0398 31.4665 32.0837 31.3605 32.0837 31.25C32.0837 31.1395 32.0398 31.0335 31.9616 30.9553C31.8835 30.8772 31.7775 30.8333 31.667 30.8333H28.3337C27.7811 30.8333 27.2512 30.6138 26.8605 30.2231C26.4698 29.8324 26.2503 29.3025 26.2503 28.75C26.2503 28.1974 26.4698 27.6675 26.8605 27.2768C27.2512 26.8861 27.7811 26.6666 28.3337 26.6666H29.167V25.8333H30.8337V26.6666H32.917V28.3333H28.3337C28.2232 28.3333 28.1172 28.3772 28.039 28.4553C27.9609 28.5335 27.917 28.6395 27.917 28.75C27.917 28.8605 27.9609 28.9665 28.039 29.0446C28.1172 29.1227 28.2232 29.1666 28.3337 29.1666H31.667C32.2195 29.1666 32.7494 29.3861 33.1401 29.7768C33.5308 30.1675 33.7503 30.6974 33.7503 31.25C33.7503 31.8025 33.5308 32.3324 33.1401 32.7231C32.7494 33.1138 32.2195 33.3333 31.667 33.3333H30.8337V34.1666H29.167V33.3333H27.0837V31.6666Z" fill="white"/>
</svg>
