<svg width="60" height="60" viewBox="0 0 60 60" fill="none" xmlns="http://www.w3.org/2000/svg">
<rect width="60" height="60" rx="15" fill="#F2FAFF"/>
<rect x="15" y="15" width="30" height="30" rx="5" fill="#FA6364"/>
<path d="M24.0283 21.6428C23.476 21.6428 23.0283 22.0905 23.0283 22.6428V37.3571C23.0283 37.9094 23.476 38.3571 24.0283 38.3571H35.3997C35.952 38.3571 36.3997 37.9094 36.3997 37.3571V22.6428C36.3997 22.0905 35.952 21.6428 35.3997 21.6428H24.0283ZM33.0569 35.6571H26.3712C26.2007 35.6571 26.0372 35.5894 25.9166 35.4688C25.796 35.3483 25.7283 35.1847 25.7283 35.0143C25.7283 34.8438 25.796 34.6802 25.9166 34.5597C26.0372 34.4391 26.2007 34.3714 26.3712 34.3714H33.0569C33.2274 34.3714 33.3909 34.4391 33.5115 34.5597C33.632 34.6802 33.6997 34.8438 33.6997 35.0143C33.6997 35.1847 33.632 35.3483 33.5115 35.4688C33.3909 35.5894 33.2274 35.6571 33.0569 35.6571ZM33.0569 32.3143H26.3712C26.2007 32.3143 26.0372 32.2465 25.9166 32.126C25.796 32.0054 25.7283 31.8419 25.7283 31.6714C25.7283 31.5009 25.796 31.3374 25.9166 31.2168C26.0372 31.0963 26.2007 31.0285 26.3712 31.0285H33.0569C33.2274 31.0285 33.3909 31.0963 33.5115 31.2168C33.632 31.3374 33.6997 31.5009 33.6997 31.6714C33.6997 31.8419 33.632 32.0054 33.5115 32.126C33.3909 32.2465 33.2274 32.3143 33.0569 32.3143ZM33.0569 28.9714H26.3712C26.2007 28.9714 26.0372 28.9037 25.9166 28.7831C25.796 28.6625 25.7283 28.499 25.7283 28.3285C25.7283 28.158 25.796 27.9945 25.9166 27.874C26.0372 27.7534 26.2007 27.6857 26.3712 27.6857H33.0569C33.2274 27.6857 33.3909 27.7534 33.5115 27.874C33.632 27.9945 33.6997 28.158 33.6997 28.3285C33.6997 28.499 33.632 28.6625 33.5115 28.7831C33.3909 28.9037 33.2274 28.9714 33.0569 28.9714ZM33.0569 25.6285H26.3712C26.2007 25.6285 26.0372 25.5608 25.9166 25.4402C25.796 25.3197 25.7283 25.1562 25.7283 24.9857C25.7283 24.8152 25.796 24.6517 25.9166 24.5311C26.0372 24.4106 26.2007 24.3428 26.3712 24.3428H33.0569C33.2274 24.3428 33.3909 24.4106 33.5115 24.5311C33.632 24.6517 33.6997 24.8152 33.6997 24.9857C33.6997 25.1562 33.632 25.3197 33.5115 25.4402C33.3909 25.5608 33.2274 25.6285 33.0569 25.6285Z" fill="white"/>
</svg>
