<svg width="78" height="78" viewBox="0 0 78 78" fill="none" xmlns="http://www.w3.org/2000/svg">
<rect opacity="0.2" width="78" height="78" rx="39" fill="url(#paint0_linear_1536_178)"/>
<g clip-path="url(#clip0_1536_178)">
<path d="M50.3753 51.3125V48.8125H49.4378C50.0003 48.8125 50.4378 48.375 50.4378 47.8125C50.4378 47.25 50.0003 46.8125 49.4378 46.8125H49.1253V38.375H49.4378C50.0003 38.375 50.4378 37.9375 50.4378 37.375C50.4378 36.8125 50.0003 36.375 49.4378 36.375H50.8128V34.3125H52.1253C54.1253 34.3125 54.7503 31.5625 53.0003 30.6875L39.8753 24.1875C39.3128 23.9375 38.6878 23.9375 38.1878 24.1875L25.0628 30.6875C23.2503 31.5625 23.8753 34.3125 25.9378 34.3125H27.2503V36.375H28.6253C28.0628 36.375 27.6253 36.8125 27.6253 37.375C27.6253 37.9375 28.0628 38.375 28.6253 38.375H28.9378V46.75H28.5628C28.0003 46.75 27.5628 47.1875 27.5628 47.75C27.5628 48.3125 28.0003 48.75 28.5628 48.75H27.6253V51.25H24.0003V54H54.0003V51.3125H50.3753ZM37.6253 46.8125H37.3128C36.7503 46.8125 36.3128 47.25 36.3128 47.8125C36.3128 48.375 36.7503 48.8125 37.3128 48.8125H31.8753C32.4378 48.8125 32.8753 48.375 32.8753 47.8125C32.8753 47.25 32.4378 46.8125 31.8753 46.8125H31.5628V38.375H31.8753C32.4378 38.375 32.8753 37.9375 32.8753 37.375C32.8753 36.8125 32.4378 36.375 31.8753 36.375H37.3128C36.7503 36.375 36.3128 36.8125 36.3128 37.375C36.3128 37.9375 36.7503 38.375 37.3128 38.375H37.6253V46.8125ZM35.5628 29.125C35.5628 27.25 37.1253 25.6875 39.0003 25.6875C40.8753 25.6875 42.4378 27.25 42.4378 29.125C42.4378 31.0625 40.8753 32.5625 39.0003 32.5625C37.1253 32.5625 35.5628 31.0625 35.5628 29.125ZM46.3753 46.8125H46.0628C45.5003 46.8125 45.0628 47.25 45.0628 47.8125C45.0628 48.375 45.5003 48.8125 46.0628 48.8125H40.6253C41.1878 48.8125 41.6253 48.375 41.6253 47.8125C41.6253 47.25 41.1878 46.8125 40.6253 46.8125H40.3128V38.375H40.6253C41.1878 38.375 41.6253 37.9375 41.6253 37.375C41.6253 36.8125 41.1878 36.375 40.6253 36.375H46.0628C45.5003 36.375 45.0628 36.8125 45.0628 37.375C45.0628 37.9375 45.5003 38.375 46.0628 38.375H46.3753V46.8125Z" fill="url(#paint1_linear_1536_178)"/>
<path d="M39.1875 28.8125V27.9375C39.4375 28 39.6875 28.0625 39.875 28.1875L40.1875 27.75C39.875 27.5625 39.5625 27.4375 39.1875 27.375V27.1875H38.875V27.4375C38.5625 27.4375 38.3125 27.5625 38.125 27.75C37.9375 27.9375 37.8125 28.125 37.8125 28.4375C37.8125 28.75 37.875 28.9375 38.0625 29.0625C38.25 29.1875 38.5 29.3125 38.875 29.375V30.25C38.5625 30.1875 38.3125 30.0625 38.0625 29.8125L37.75 30.25C38.125 30.5625 38.5 30.75 38.9375 30.75V31.125H39.25V30.75C39.5625 30.75 39.8125 30.625 40.0625 30.4375C40.25 30.25 40.375 30.0625 40.375 29.75C40.375 29.5 40.3125 29.25 40.125 29.125C39.875 29.0625 39.5625 28.9375 39.1875 28.8125ZM38.875 28.75C38.6875 28.6875 38.5625 28.625 38.5 28.5625C38.4375 28.5 38.375 28.4375 38.375 28.3125C38.375 28.1875 38.4375 28.125 38.5 28.0625C38.5625 28 38.6875 27.9375 38.8125 27.9375V28.75H38.875ZM39.5625 30.125C39.5 30.1875 39.375 30.25 39.1875 30.25V29.4375C39.375 29.5 39.5 29.5625 39.625 29.625C39.6875 29.6875 39.75 29.75 39.75 29.875C39.6875 30 39.625 30.0625 39.5625 30.125Z" fill="url(#paint2_linear_1536_178)"/>
</g>
<defs>
<linearGradient id="paint0_linear_1536_178" x1="34.4118" y1="0" x2="34.4118" y2="78" gradientUnits="userSpaceOnUse">
<stop stop-color="#0047FF" stop-opacity="0.8"/>
<stop offset="1" stop-color="#0047FF" stop-opacity="0"/>
</linearGradient>
<linearGradient id="paint1_linear_1536_178" x1="39.009" y1="24" x2="39.009" y2="54" gradientUnits="userSpaceOnUse">
<stop stop-color="#0047FF"/>
<stop offset="1" stop-color="#0085FF"/>
</linearGradient>
<linearGradient id="paint2_linear_1536_178" x1="39.0625" y1="27.1875" x2="39.0625" y2="31.125" gradientUnits="userSpaceOnUse">
<stop stop-color="#0047FF"/>
<stop offset="1" stop-color="#0085FF"/>
</linearGradient>
<clipPath id="clip0_1536_178">
<rect width="30" height="30" fill="white" transform="translate(24 24)"/>
</clipPath>
</defs>
</svg>
