<svg width="78" height="78" viewBox="0 0 78 78" fill="none" xmlns="http://www.w3.org/2000/svg">
<rect opacity="0.2" width="78" height="78" rx="39" fill="url(#paint0_linear_1536_175)"/>
<path d="M52.125 24H25.875C24.8125 24 24 24.8125 24 25.875V40.1875C24 41.25 24.8125 42.0625 25.875 42.0625H38.125V47.5625C37.0625 45.0625 34.625 43.375 31.6875 43.5C31.5625 47.3125 34.375 50.3125 38.125 50.4375V54H39.9375V51.6875C43.5625 51.4375 46.3125 48.5 46.1875 44.75C43.4375 44.6875 41.0625 46.125 39.9375 48.375V42.0625H52.125C53.1875 42.0625 54 41.25 54 40.1875V25.875C54 24.8125 53.1875 24 52.125 24ZM52.125 37.0625C50.375 37.0625 49 38.4375 49 40.1875H29C29 38.4375 27.625 37.0625 25.875 37.0625V29C27.625 29 29 27.625 29 25.875H49C49 27.625 50.375 29 52.125 29V37.0625Z" fill="url(#paint1_linear_1536_175)"/>
<path d="M39.375 33.5V35C39.625 35 39.875 34.875 40 34.75C40.1875 34.625 40.25 34.4375 40.25 34.25C40.25 34.0625 40.1875 33.875 40.0625 33.75C39.9375 33.6875 39.6875 33.5625 39.375 33.5Z" fill="url(#paint2_linear_1536_175)"/>
<path d="M38 31.5625C38 31.75 38.0625 31.875 38.1875 32C38.3125 32.125 38.5 32.1875 38.8125 32.3125V30.875C38.5625 30.875 38.375 31 38.1875 31.125C38.0625 31.1875 38 31.375 38 31.5625Z" fill="url(#paint3_linear_1536_175)"/>
<path d="M39 28.25C36.375 28.25 34.25 30.375 34.25 33C34.25 35.625 36.375 37.75 39 37.75C41.625 37.75 43.75 35.625 43.75 33C43.75 30.375 41.625 28.25 39 28.25ZM40.75 35.375C40.375 35.6875 39.9375 35.875 39.375 35.875V36.5H38.8125V35.875C38.0625 35.8125 37.375 35.5 36.75 34.9375L37.375 34.1875C37.875 34.625 38.3125 34.8125 38.8125 34.9375V33.3125C38.1875 33.1875 37.6875 32.9375 37.4375 32.6875C37.125 32.4375 37 32.0625 37 31.5625C37 31.0625 37.1875 30.6875 37.5 30.375C37.8125 30.0625 38.3125 29.875 38.8125 29.875V29.5H39.375V29.9375C40 30 40.5625 30.1875 41.125 30.5625L40.5625 31.3125C40.1875 31.0625 39.8125 30.875 39.375 30.8125V32.375C40 32.5 40.5 32.75 40.8125 33C41.125 33.25 41.25 33.625 41.25 34.125C41.25 34.6875 41.0625 35.0625 40.75 35.375Z" fill="url(#paint4_linear_1536_175)"/>
<path d="M47.875 35.5C49.2557 35.5 50.375 34.3807 50.375 33C50.375 31.6193 49.2557 30.5 47.875 30.5C46.4943 30.5 45.375 31.6193 45.375 33C45.375 34.3807 46.4943 35.5 47.875 35.5Z" fill="url(#paint5_linear_1536_175)"/>
<path d="M30.125 35.5C31.5057 35.5 32.625 34.3807 32.625 33C32.625 31.6193 31.5057 30.5 30.125 30.5C28.7443 30.5 27.625 31.6193 27.625 33C27.625 34.3807 28.7443 35.5 30.125 35.5Z" fill="url(#paint6_linear_1536_175)"/>
<defs>
<linearGradient id="paint0_linear_1536_175" x1="34.4118" y1="0" x2="34.4118" y2="78" gradientUnits="userSpaceOnUse">
<stop stop-color="#0047FF" stop-opacity="0.8"/>
<stop offset="1" stop-color="#0047FF" stop-opacity="0"/>
</linearGradient>
<linearGradient id="paint1_linear_1536_175" x1="39" y1="24" x2="39" y2="54" gradientUnits="userSpaceOnUse">
<stop stop-color="#0047FF"/>
<stop offset="1" stop-color="#0085FF"/>
</linearGradient>
<linearGradient id="paint2_linear_1536_175" x1="39.8125" y1="33.5" x2="39.8125" y2="35" gradientUnits="userSpaceOnUse">
<stop stop-color="#0047FF"/>
<stop offset="1" stop-color="#0085FF"/>
</linearGradient>
<linearGradient id="paint3_linear_1536_175" x1="38.4063" y1="30.875" x2="38.4063" y2="32.3125" gradientUnits="userSpaceOnUse">
<stop stop-color="#0047FF"/>
<stop offset="1" stop-color="#0085FF"/>
</linearGradient>
<linearGradient id="paint4_linear_1536_175" x1="39" y1="28.25" x2="39" y2="37.75" gradientUnits="userSpaceOnUse">
<stop stop-color="#0047FF"/>
<stop offset="1" stop-color="#0085FF"/>
</linearGradient>
<linearGradient id="paint5_linear_1536_175" x1="47.875" y1="30.5" x2="47.875" y2="35.5" gradientUnits="userSpaceOnUse">
<stop stop-color="#0047FF"/>
<stop offset="1" stop-color="#0085FF"/>
</linearGradient>
<linearGradient id="paint6_linear_1536_175" x1="30.125" y1="30.5" x2="30.125" y2="35.5" gradientUnits="userSpaceOnUse">
<stop stop-color="#0047FF"/>
<stop offset="1" stop-color="#0085FF"/>
</linearGradient>
</defs>
</svg>
