<svg width="78" height="78" viewBox="0 0 78 78" fill="none" xmlns="http://www.w3.org/2000/svg">
<rect opacity="0.2" width="78" height="78" rx="39" fill="url(#paint0_linear_1536_179)"/>
<path d="M35.4375 34.625C35.4375 34.9375 35.5625 35.1875 35.75 35.375C35.9375 35.5625 36.3125 35.75 36.875 35.9375V33.4375C36.4375 33.5 36.125 33.625 35.875 33.8125C35.5625 34.0625 35.4375 34.3125 35.4375 34.625Z" fill="url(#paint1_linear_1536_179)"/>
<path d="M53.0625 39.25H50.125C50.25 38.5625 50.3125 37.875 50.3125 37.125C50.3125 29.875 44.4375 24 37.1875 24C29.9375 24 24 29.875 24 37.1875C24 44.5 29.875 50.375 37.1875 50.375C38.25 50.375 39.25 50.25 40.1875 50C42.1875 52.25 45.375 53.75 45.875 53.9375C46 54 46.125 54 46.25 54C46.375 54 46.5 54 46.625 53.9375C47.375 53.5625 54 50.5 54 46.25V40.1875C54 39.6875 53.5625 39.25 53.0625 39.25ZM37.1875 47.875C31.3125 47.875 26.5 43.0625 26.5 37.1875C26.5 31.3125 31.3125 26.5 37.1875 26.5C43.0625 26.5 47.875 31.3125 47.875 37.1875C47.875 37.9375 47.8125 38.625 47.625 39.3125H45.9375C46.125 38.625 46.1875 37.9375 46.1875 37.1875C46.1875 32.1875 42.125 28.125 37.125 28.125C32.125 28.125 28.125 32.1875 28.125 37.1875C28.125 42.1875 32.1875 46.25 37.1875 46.25C37.625 46.25 38.125 46.1875 38.5625 46.125V46.25C38.5625 46.75 38.6875 47.25 38.8125 47.6875C38.25 47.8125 37.6875 47.875 37.1875 47.875ZM39.4375 39.25C39.375 39.25 39.3125 39.25 39.25 39.25C39.25 38.9375 39.125 38.6875 38.9375 38.5C38.75 38.3125 38.3125 38.125 37.75 37.9375V40.5625C38.0625 40.5625 38.3125 40.4375 38.5 40.375V42C38.25 42.0625 38.0625 42.125 37.75 42.125V43.1875H36.8125V42.125C35.5 42 34.3125 41.4375 33.25 40.5625L34.3125 39.3125C35.125 40 35.9375 40.4375 36.8125 40.5625V37.75C35.75 37.5 34.9375 37.125 34.4375 36.75C33.9375 36.3125 33.6875 35.6875 33.6875 34.875C33.6875 34.0625 34 33.375 34.5625 32.8125C35.125 32.3125 35.9375 32 36.8125 31.9375V31.1875H37.75V31.9375C38.8125 32 39.8125 32.375 40.75 33L39.8125 34.3125C39.1875 33.875 38.5 33.5625 37.75 33.5V36.25H37.8125C38.9375 36.5 39.75 36.875 40.25 37.3125C40.75 37.75 41.0625 38.375 41.0625 39.25V39.3125H39.4375V39.25ZM52.125 46.25C52.125 48.625 48.1875 51.0625 46.25 52C44.3125 51.0625 40.375 48.625 40.375 46.25V41.125H52.125V46.25Z" fill="url(#paint2_linear_1536_179)"/>
<path d="M44.0626 46.4375C44.1876 46.5625 44.2501 46.6875 44.1876 46.875L43.9376 48.4375C43.8751 48.8125 44.3126 49.125 44.6251 48.9375L46.0001 48.1875C46.1251 48.125 46.3126 48.125 46.4376 48.1875L47.8126 48.9375C48.1876 49.125 48.5626 48.8125 48.5001 48.4375L48.2501 46.875C48.2501 46.6875 48.2501 46.5625 48.3751 46.4375L49.5001 45.375C49.8126 45.0625 49.6251 44.625 49.2501 44.5625L47.7501 44.3125C47.5626 44.3125 47.4376 44.1875 47.3751 44.0625L46.6876 42.6875C46.5001 42.3125 46.0001 42.3125 45.8126 42.6875L45.1251 44.0625C45.0626 44.1875 44.9376 44.3125 44.7501 44.3125L43.1876 44.5625C42.8126 44.625 42.6251 45.125 42.9376 45.375L44.0626 46.4375Z" fill="url(#paint3_linear_1536_179)"/>
<defs>
<linearGradient id="paint0_linear_1536_179" x1="34.4118" y1="0" x2="34.4118" y2="78" gradientUnits="userSpaceOnUse">
<stop stop-color="#0047FF" stop-opacity="0.8"/>
<stop offset="1" stop-color="#0047FF" stop-opacity="0"/>
</linearGradient>
<linearGradient id="paint1_linear_1536_179" x1="36.1562" y1="33.4375" x2="36.1562" y2="35.9375" gradientUnits="userSpaceOnUse">
<stop stop-color="#0047FF"/>
<stop offset="1" stop-color="#0085FF"/>
</linearGradient>
<linearGradient id="paint2_linear_1536_179" x1="39" y1="24" x2="39" y2="54" gradientUnits="userSpaceOnUse">
<stop stop-color="#0047FF"/>
<stop offset="1" stop-color="#0085FF"/>
</linearGradient>
<linearGradient id="paint3_linear_1536_179" x1="46.2188" y1="42.4062" x2="46.2188" y2="48.9935" gradientUnits="userSpaceOnUse">
<stop stop-color="#0047FF"/>
<stop offset="1" stop-color="#0085FF"/>
</linearGradient>
</defs>
</svg>
