<svg width="78" height="78" viewBox="0 0 78 78" fill="none" xmlns="http://www.w3.org/2000/svg">
<rect opacity="0.2" width="78" height="78" rx="39" fill="url(#paint0_linear_1536_174)"/>
<g clip-path="url(#clip0_1536_174)">
<path d="M31.7692 38.1609H27.1538C26.5169 38.1609 26 38.5838 26 39.1049V47.6014C26 48.1226 26.5169 48.5455 27.1538 48.5455H31.7692C32.4062 48.5455 32.9231 48.1226 32.9231 47.6014V39.1049C32.9231 38.5838 32.4062 38.1609 31.7692 38.1609Z" fill="url(#paint1_linear_1536_174)"/>
<path d="M40.9997 34.3846H36.3843C35.7474 34.3846 35.2305 34.8076 35.2305 35.3287V47.6014C35.2305 48.1225 35.7474 48.5455 36.3843 48.5455H40.9997C41.6366 48.5455 42.1535 48.1225 42.1535 47.6014V35.3287C42.1535 34.8076 41.6366 34.3846 40.9997 34.3846Z" fill="url(#paint2_linear_1536_174)"/>
<path d="M50.2311 24H45.6158C44.9788 24 44.4619 24.4229 44.4619 24.9441V47.6014C44.4619 48.1225 44.9788 48.5455 45.6158 48.5455H50.2311C50.8681 48.5455 51.385 48.1225 51.385 47.6014V24.9441C51.385 24.4229 50.8681 24 50.2311 24Z" fill="url(#paint3_linear_1536_174)"/>
</g>
<defs>
<linearGradient id="paint0_linear_1536_174" x1="34.4118" y1="0" x2="34.4118" y2="78" gradientUnits="userSpaceOnUse">
<stop stop-color="#0047FF" stop-opacity="0.8"/>
<stop offset="1" stop-color="#0047FF" stop-opacity="0"/>
</linearGradient>
<linearGradient id="paint1_linear_1536_174" x1="29.4615" y1="38.1609" x2="29.4615" y2="48.5455" gradientUnits="userSpaceOnUse">
<stop stop-color="#0047FF"/>
<stop offset="1" stop-color="#0085FF"/>
</linearGradient>
<linearGradient id="paint2_linear_1536_174" x1="38.692" y1="34.3846" x2="38.692" y2="48.5455" gradientUnits="userSpaceOnUse">
<stop stop-color="#0047FF"/>
<stop offset="1" stop-color="#0085FF"/>
</linearGradient>
<linearGradient id="paint3_linear_1536_174" x1="47.9235" y1="24" x2="47.9235" y2="48.5455" gradientUnits="userSpaceOnUse">
<stop stop-color="#0047FF"/>
<stop offset="1" stop-color="#0085FF"/>
</linearGradient>
<clipPath id="clip0_1536_174">
<rect width="25.3846" height="30" fill="white" transform="translate(26 24)"/>
</clipPath>
</defs>
</svg>
