<svg width="42" height="25" viewBox="0 0 42 25" fill="none" xmlns="http://www.w3.org/2000/svg">
<g clip-path="url(#clip0_1249_304)">
<path d="M39.5537 -0.141663H2.44673C0.6902 -0.141663 0 0.542597 0 2.28565V22.7148C0 24.4569 0.6902 25.1417 2.44673 25.1417H39.5537C41.3103 25.1417 42.0005 24.4569 42.0005 22.7148V2.28565C42 0.542597 41.3098 -0.141663 39.5537 -0.141663ZM33.4759 22.7144H8.5246C7.68507 19.8079 5.37693 17.5176 2.44673 16.6857V8.31482C5.37693 7.48195 7.68507 5.1926 8.5246 2.28565H33.4759C34.3154 5.1926 36.6231 7.48241 39.5528 8.31482V16.6852H39.5533C36.6235 17.5181 34.3154 19.8074 33.4759 22.7144Z" fill="#fff"/>
<path d="M20.9999 4.91481C16.7775 4.91481 13.3545 8.31018 13.3545 12.4995C13.3545 16.6889 16.7775 20.0847 20.9999 20.0847C25.2223 20.0847 28.6458 16.6889 28.6458 12.4995C28.6458 8.31018 25.2223 4.91481 20.9999 4.91481ZM24.043 8.85555L23.343 10.1972C23.2884 10.3023 23.1881 10.3204 23.0985 10.2801C22.7597 10.1319 21.9468 9.81481 21.1637 9.81481C20.7157 9.81481 19.9648 9.91527 19.9648 10.5903C19.9648 10.7759 19.9648 11.2116 21.2738 11.6065C23.0266 12.137 23.9156 13.0796 23.9156 14.4093C23.9156 15.5065 23.1984 16.675 21.6444 16.9768V18.0102C21.6444 18.1287 21.5842 18.1884 21.4652 18.1884H20.5332C20.4142 18.1884 20.354 18.1287 20.354 18.0102V17.0273C19.3236 16.9278 18.3978 16.5463 18.0342 16.3796C17.9446 16.338 17.9003 16.2491 17.9554 16.144L18.6535 14.8014C18.7081 14.6968 18.808 14.6787 18.898 14.7185C19.2364 14.8671 20.0507 15.1852 20.8347 15.1852C21.2822 15.1852 22.0336 15.0847 22.0336 14.4093C22.0336 14.2236 22.0336 13.788 20.7246 13.3935C18.9713 12.863 18.0828 11.9199 18.0828 10.5903C18.0828 9.49305 18.8 8.32453 20.3536 8.02314V6.98888C20.3536 6.87083 20.4138 6.81111 20.5328 6.81111H21.4647C21.5837 6.81111 21.6439 6.87083 21.6439 6.98888V7.97268C22.6743 8.07175 23.6002 8.4537 23.9642 8.6199C24.0547 8.66111 24.0981 8.75046 24.043 8.85555Z" fill="#fff"/>
</g>
<defs>
<clipPath id="clip0_1249_304">
<rect width="42" height="25" fill="white"/>
</clipPath>
</defs>
</svg>
