<svg width="83" height="67" viewBox="0 0 83 67" fill="none" xmlns="http://www.w3.org/2000/svg">
<circle cx="66" cy="49.5" r="17" fill="#D6E6F4"/>
<g clip-path="url(#clip0_1273_215)">
<path d="M19.3088 42.217H12.8328C12.7583 42.217 12.6845 42.202 12.6159 42.1726C12.5473 42.1433 12.4852 42.1003 12.4334 42.0463C12.382 41.9925 12.3418 41.9289 12.3151 41.8592C12.2884 41.7896 12.2758 41.7152 12.2781 41.6405L13.1101 15.5019C13.1145 15.3563 13.1748 15.2183 13.2784 15.1169C13.3819 15.0156 13.5205 14.9589 13.6648 14.959H18.4795C18.6238 14.9589 18.7624 15.0156 18.866 15.1169C18.9695 15.2183 19.0299 15.3563 19.0342 15.5019L19.8662 41.6405C19.8684 41.7154 19.8557 41.79 19.8289 41.8599C19.802 41.9297 19.7615 41.9934 19.7098 42.0472C19.658 42.1009 19.5961 42.1437 19.5277 42.1728C19.4593 42.202 19.3858 42.217 19.3115 42.217H19.3088ZM13.4041 41.0977H18.7347L17.9442 16.0783H14.1973L13.4041 41.0977Z" fill="#263B48"/>
<path d="M32.083 42.217H25.6043C25.53 42.217 25.4565 42.202 25.3881 42.1728C25.3197 42.1437 25.2578 42.1009 25.206 42.0472C25.1543 41.9934 25.1138 41.9297 25.0869 41.8599C25.06 41.79 25.0473 41.7154 25.0496 41.6405L25.8816 15.5019C25.8859 15.3563 25.9463 15.2183 26.0498 15.1169C26.1534 15.0156 26.292 14.9589 26.4363 14.959H31.2565C31.4008 14.9589 31.5394 15.0156 31.643 15.1169C31.7465 15.2183 31.8069 15.3563 31.8112 15.5019L32.6432 41.6405C32.6455 41.7154 32.6328 41.79 32.6059 41.8599C32.579 41.9297 32.5385 41.9934 32.4868 42.0472C32.435 42.1009 32.3731 42.1437 32.3047 42.1728C32.2363 42.202 32.1628 42.217 32.0885 42.217H32.083ZM26.1784 41.0977H31.5089L30.7157 16.0783H26.9716L26.1784 41.0977Z" fill="#263B48"/>
<path d="M58.1671 42.217H51.6912C51.6169 42.217 51.5434 42.202 51.475 42.1728C51.4066 42.1436 51.3447 42.1009 51.2929 42.0472C51.2412 41.9934 51.2007 41.9297 51.1738 41.8599C51.147 41.79 51.1343 41.7154 51.1365 41.6405L51.9685 15.5019C51.9728 15.3563 52.0332 15.2183 52.1367 15.1169C52.2403 15.0156 52.3789 14.9589 52.5232 14.959H57.3434C57.4877 14.9589 57.6263 15.0156 57.7299 15.1169C57.8334 15.2183 57.8938 15.3563 57.8981 15.5019L58.7301 41.6405C58.7324 41.7152 58.7198 41.7896 58.6932 41.8592C58.6665 41.9289 58.6262 41.9925 58.5748 42.0463C58.5221 42.1014 58.4587 42.1449 58.3885 42.1743C58.3184 42.2037 58.243 42.2182 58.1671 42.217ZM52.2653 41.0977H57.5958L56.8026 16.0783H53.0557L52.2653 41.0977Z" fill="#263B48"/>
<path d="M45.3955 42.217H38.9168C38.8425 42.217 38.769 42.202 38.7006 42.1728C38.6322 42.1437 38.5703 42.1009 38.5185 42.0472C38.4668 41.9934 38.4263 41.9297 38.3994 41.8599C38.3725 41.79 38.3598 41.7154 38.3621 41.6405L39.1941 15.5019C39.1984 15.3563 39.2588 15.2183 39.3623 15.1169C39.4659 15.0156 39.6045 14.9589 39.7488 14.959H44.569C44.7133 14.9589 44.8519 15.0156 44.9555 15.1169C45.059 15.2183 45.1194 15.3563 45.1237 15.5019L45.9557 41.6405C45.958 41.7154 45.9453 41.79 45.9184 41.8599C45.8915 41.9297 45.851 41.9934 45.7993 42.0472C45.7475 42.1009 45.6856 42.1437 45.6172 42.1728C45.5488 42.202 45.4753 42.217 45.401 42.217H45.3955ZM39.4909 41.0977H44.8214L44.0282 16.0783H40.2841L39.4909 41.0977Z" fill="#263B48"/>
<path d="M61.4066 48.5243H9.59326C9.44615 48.5243 9.30506 48.4653 9.20104 48.3604C9.09701 48.2554 9.03857 48.1131 9.03857 47.9646V41.6573C9.03857 41.5089 9.09701 41.3665 9.20104 41.2616C9.30506 41.1566 9.44615 41.0977 9.59326 41.0977H61.4066C61.5537 41.0977 61.6948 41.1566 61.7989 41.2616C61.9029 41.3665 61.9613 41.5089 61.9613 41.6573V47.9646C61.9613 48.0381 61.947 48.1109 61.9191 48.1788C61.8912 48.2467 61.8504 48.3084 61.7989 48.3604C61.7473 48.4123 61.6862 48.4535 61.6189 48.4817C61.5516 48.5098 61.4795 48.5243 61.4066 48.5243ZM10.1479 47.405H60.8519V42.217H10.1479V47.405Z" fill="#263B48"/>
<path d="M65.9411 55.0583H5.05859C4.91148 55.0583 4.77039 54.9993 4.66637 54.8944C4.56235 54.7894 4.50391 54.6471 4.50391 54.4987V47.9647C4.50391 47.8163 4.56235 47.6739 4.66637 47.5689C4.77039 47.464 4.91148 47.405 5.05859 47.405H65.9411C66.0882 47.405 66.2293 47.464 66.3333 47.5689C66.4373 47.6739 66.4958 47.8163 66.4958 47.9647V54.4987C66.4958 54.6471 66.4373 54.7894 66.3333 54.8944C66.2293 54.9993 66.0882 55.0583 65.9411 55.0583ZM5.61328 53.939H65.3864V48.5243H5.61328V53.939Z" fill="#263B48"/>
<path d="M65.9415 16.0785H5.05898C4.93402 16.0783 4.81276 16.0356 4.71485 15.9573C4.61695 15.8789 4.54814 15.7695 4.51957 15.6468C4.491 15.524 4.50435 15.3951 4.55745 15.281C4.61056 15.1669 4.7003 15.0742 4.81214 15.0179L35.2534 -0.338994C35.3301 -0.377449 35.4146 -0.397461 35.5002 -0.397461C35.5859 -0.397461 35.6704 -0.377449 35.7471 -0.338994L66.1883 15.0179C66.3002 15.0742 66.3899 15.1669 66.443 15.281C66.4961 15.3951 66.5094 15.524 66.4809 15.6468C66.4523 15.7695 66.3835 15.8789 66.2856 15.9573C66.1877 16.0356 66.0664 16.0783 65.9415 16.0785ZM7.42195 14.9592H63.5924L35.5002 0.788711L7.42195 14.9592Z" fill="#263B48"/>
<path d="M35.5001 12.368C34.6126 12.368 33.745 12.1024 33.007 11.6049C32.2691 11.1074 31.6939 10.4003 31.3543 9.57299C31.0146 8.74568 30.9258 7.83533 31.0989 6.95706C31.2721 6.07879 31.6995 5.27205 32.327 4.63885C32.9546 4.00565 33.7542 3.57444 34.6247 3.39974C35.4951 3.22504 36.3974 3.31471 37.2174 3.65739C38.0374 4.00007 38.7382 4.58039 39.2313 5.32495C39.7244 6.06951 39.9875 6.94488 39.9875 7.84035C39.9861 9.04069 39.5128 10.1914 38.6716 11.0402C37.8303 11.889 36.6898 12.3665 35.5001 12.368ZM35.5001 4.43205C34.832 4.43205 34.1789 4.63195 33.6234 5.00646C33.0679 5.38097 32.6349 5.91327 32.3792 6.53605C32.1235 7.15884 32.0566 7.84413 32.187 8.50528C32.3173 9.16642 32.6391 9.77372 33.1115 10.2504C33.5839 10.727 34.1858 11.0516 34.8411 11.1832C35.4964 11.3147 36.1756 11.2472 36.7928 10.9892C37.4101 10.7312 37.9377 10.2944 38.3089 9.7339C38.6801 9.17341 38.8782 8.51445 38.8782 7.84035C38.8767 6.93687 38.5203 6.07082 37.8871 5.43196C37.254 4.7931 36.3956 4.43353 35.5001 4.43205Z" fill="#263B48"/>
</g>
<defs>
<clipPath id="clip0_1273_215">
<rect width="71" height="55" fill="white"/>
</clipPath>
</defs>
</svg>
