<svg width="70" height="80" viewBox="0 0 70 80" fill="none" xmlns="http://www.w3.org/2000/svg">
<rect width="70" height="80" rx="20" fill="#D6E6F4" fill-opacity="0.33"/>
<path d="M53.98 28.5013L35.2704 18.0701C35.1028 17.9766 34.8972 17.9766 34.7296 18.0701L16.02 28.5013C15.3906 28.8519 15 29.5053 15 30.2064V31.4797C15 31.7673 15.2414 32 15.5398 32H54.4602C54.7586 32 55 31.7673 55 31.4797V30.2064C55 29.5053 54.6094 28.8519 53.98 28.5013ZM35 28.1649C33.127 28.1649 31.6031 26.6965 31.6031 24.8908C31.6031 23.085 33.127 21.6166 35 21.6166C36.873 21.6166 38.3969 23.085 38.3969 24.8908C38.3969 26.6965 36.873 28.1649 35 28.1649Z" fill="#395EAB"/>
<path d="M31.1553 55.0937C30.9963 55.2525 30.9553 55.4812 31.0513 55.6771C31.1472 55.873 31.3618 56 31.5986 56H38.4013C38.6382 56 38.8528 55.8729 38.9487 55.6771C39.0447 55.4812 39.0037 55.2526 38.8447 55.0937L37.3873 53.6422V36.3578L38.8447 34.9063C39.0037 34.7475 39.0447 34.5188 38.9487 34.3229C38.8528 34.127 38.6382 34 38.4013 34H31.5986C31.3618 34 31.1472 34.127 31.0513 34.3229C30.9553 34.5188 30.9963 34.7474 31.1553 34.9063L32.6127 36.3578V53.6422L31.1553 55.0937Z" fill="#18E0D5"/>
<path d="M42.1359 55.0937C41.9967 55.2525 41.9609 55.4812 42.0448 55.6771C42.1288 55.873 42.3166 56 42.5238 56H48.4762C48.6834 56 48.8712 55.8729 48.9552 55.6771C49.0391 55.4812 49.0033 55.2526 48.8641 55.0937L47.5889 53.6422V36.3578L48.8641 34.9063C49.0033 34.7475 49.0391 34.5188 48.9552 34.3229C48.8712 34.127 48.6834 34 48.4762 34H42.5238C42.3166 34 42.1288 34.127 42.0448 34.3229C41.9609 34.5188 41.9967 34.7474 42.1359 34.9063L43.4111 36.3578V53.6422L42.1359 55.0937Z" fill="#395EAB"/>
<path d="M21.1359 55.0937C20.9967 55.2525 20.9609 55.4812 21.0448 55.6771C21.1288 55.873 21.3166 56 21.5238 56H27.4762C27.6834 56 27.8712 55.8729 27.9552 55.6771C28.0391 55.4812 28.0033 55.2526 27.8641 55.0937L26.5889 53.6422V36.3578L27.8641 34.9063C28.0033 34.7475 28.0391 34.5188 27.9552 34.3229C27.8712 34.127 27.6834 34 27.4762 34H21.5238C21.3166 34 21.1288 34.127 21.0448 34.3229C20.9609 34.5188 20.9967 34.7474 21.1359 34.9063L22.4111 36.3578V53.6422L21.1359 55.0937Z" fill="#395EAB"/>
<path d="M54.4602 57H15.5398C15.2414 57 15 57.2527 15 57.565V61.435C15 61.7473 15.2414 62 15.5398 62H54.4602C54.7586 62 55 61.7473 55 61.435V57.565C55 57.2527 54.7586 57 54.4602 57Z" fill="#395EAB"/>
</svg>
