<svg width="70" height="80" viewBox="0 0 70 80" fill="none" xmlns="http://www.w3.org/2000/svg">
<rect width="70" height="80" rx="20" fill="#D6E6F4" fill-opacity="0.33"/>
<path d="M20.4116 60.0928C19.6522 60.3959 18.8189 60.3834 18.0668 60.0605C17.5147 59.822 17.0574 59.4355 16.7324 58.948C16.9668 59.0147 17.2085 59.0615 17.4595 59.0824C17.5585 59.0907 17.6574 59.0949 17.7564 59.0949H21.7033C21.3699 59.5313 20.9303 59.8855 20.4116 60.0928Z" fill="#395EAB"/>
<path d="M51.8574 60.0926C51.098 60.3958 50.2647 60.3833 49.5116 60.0604C49.0178 59.8489 48.6105 59.5093 48.2949 59.0937H52.2439C52.6095 59.0937 52.9543 59.0229 53.2855 58.9229C52.9418 59.4458 52.4428 59.8583 51.8574 60.0926Z" fill="#395EAB"/>
<path d="M37.6273 33.4126C38.1094 33.4126 38.5002 33.0218 38.5002 32.5397C38.5002 32.0576 38.1094 31.6667 37.6273 31.6667C37.1452 31.6667 36.7544 32.0576 36.7544 32.5397C36.7544 33.0218 37.1452 33.4126 37.6273 33.4126Z" fill="#18E0D5"/>
<path d="M32.7904 36.2053C33.2725 36.2053 33.6633 35.8145 33.6633 35.3324C33.6633 34.8503 33.2725 34.4595 32.7904 34.4595C32.3083 34.4595 31.9175 34.8503 31.9175 35.3324C31.9175 35.8145 32.3083 36.2053 32.7904 36.2053Z" fill="#18E0D5"/>
<path d="M32.0419 38.999C32.524 38.999 32.9148 38.6082 32.9148 38.1261C32.9148 37.644 32.524 37.2532 32.0419 37.2532C31.5598 37.2532 31.1689 37.644 31.1689 38.1261C31.1689 38.6082 31.5598 38.999 32.0419 38.999Z" fill="#18E0D5"/>
<path d="M32.7904 41.7927C33.2725 41.7927 33.6633 41.4019 33.6633 40.9198C33.6633 40.4377 33.2725 40.0469 32.7904 40.0469C32.3083 40.0469 31.9175 40.4377 31.9175 40.9198C31.9175 41.4019 32.3083 41.7927 32.7904 41.7927Z" fill="#18E0D5"/>
<path d="M34.8363 43.8374C35.3184 43.8374 35.7092 43.4466 35.7092 42.9645C35.7092 42.4824 35.3184 42.0916 34.8363 42.0916C34.3542 42.0916 33.9634 42.4824 33.9634 42.9645C33.9634 43.4466 34.3542 43.8374 34.8363 43.8374Z" fill="#18E0D5"/>
<path d="M37.4595 43.7125C37.4595 43.6187 37.5334 43.5437 37.6272 43.5437C37.722 43.5437 37.7959 43.6187 37.7959 43.7125C37.797 43.9 37.4595 43.9 37.4595 43.7125Z" fill="#395EAB"/>
<path d="M40.2529 42.9646C40.2529 42.8709 40.3279 42.7959 40.4217 42.7959C40.5154 42.7959 40.5904 42.8709 40.5904 42.9646C40.5904 43.1511 40.2529 43.1511 40.2529 42.9646Z" fill="#395EAB"/>
<path d="M42.4667 41.7927C42.9488 41.7927 43.3396 41.4019 43.3396 40.9198C43.3396 40.4377 42.9488 40.0469 42.4667 40.0469C41.9846 40.0469 41.5938 40.4377 41.5938 40.9198C41.5938 41.4019 41.9846 41.7927 42.4667 41.7927Z" fill="#18E0D5"/>
<path d="M43.2167 38.999C43.6988 38.999 44.0896 38.6082 44.0896 38.1261C44.0896 37.644 43.6988 37.2532 43.2167 37.2532C42.7346 37.2532 42.3438 37.644 42.3438 38.1261C42.3438 38.6082 42.7346 38.999 43.2167 38.999Z" fill="#18E0D5"/>
<path d="M42.6353 35.3323C42.6353 35.5198 42.2988 35.5198 42.2988 35.3323C42.2988 35.2386 42.3728 35.1636 42.4665 35.1636C42.5613 35.1636 42.6353 35.2396 42.6353 35.3323Z" fill="#395EAB"/>
<path d="M40.4217 34.1604C40.9038 34.1604 41.2947 33.7696 41.2947 33.2875C41.2947 32.8054 40.9038 32.4146 40.4217 32.4146C39.9396 32.4146 39.5488 32.8054 39.5488 33.2875C39.5488 33.7696 39.9396 34.1604 40.4217 34.1604Z" fill="#18E0D5"/>
<path d="M34.6748 38.126C34.6748 39.7542 35.9988 41.0802 37.6279 41.0802C39.2571 41.0802 40.5821 39.7542 40.5821 38.126C40.5821 36.4969 39.2581 35.1719 37.6279 35.1719C35.9988 35.1719 34.6748 36.4969 34.6748 38.126Z" fill="#18E0D5"/>
<path d="M37.6272 32.3708C37.722 32.3708 37.7959 32.4458 37.7959 32.5396C37.7959 32.7271 37.4595 32.7271 37.4595 32.5396C37.4595 32.4458 37.5345 32.3708 37.6272 32.3708Z" fill="#18E0D5"/>
<path d="M34.8363 34.1604C35.3184 34.1604 35.7092 33.7696 35.7092 33.2875C35.7092 32.8054 35.3184 32.4146 34.8363 32.4146C34.3542 32.4146 33.9634 32.8054 33.9634 33.2875C33.9634 33.7696 34.3542 34.1604 34.8363 34.1604Z" fill="#18E0D5"/>
<path d="M34.8362 33.1187C34.93 33.1187 35.0039 33.1937 35.0039 33.2874C35.0039 33.4749 34.6675 33.4749 34.6675 33.2874C34.6675 33.1947 34.7414 33.1187 34.8362 33.1187Z" fill="#18E0D5"/>
<path d="M32.623 35.3323C32.623 35.2386 32.697 35.1636 32.7908 35.1636C32.8855 35.1636 32.9595 35.2386 32.9595 35.3323C32.9595 35.5198 32.623 35.5198 32.623 35.3323Z" fill="#18E0D5"/>
<path d="M31.873 38.126C31.873 38.0323 31.948 37.9573 32.0418 37.9573C32.1355 37.9573 32.2105 38.0323 32.2105 38.126C32.2105 38.3135 31.873 38.3135 31.873 38.126Z" fill="#18E0D5"/>
<path d="M32.623 40.9197C32.623 40.826 32.697 40.751 32.7908 40.751C32.8855 40.751 32.9595 40.826 32.9595 40.9197C32.9595 41.1062 32.623 41.1062 32.623 40.9197Z" fill="#18E0D5"/>
<path d="M34.6675 42.9646C34.6675 42.8709 34.7414 42.7959 34.8362 42.7959C34.93 42.7959 35.0039 42.8709 35.0039 42.9646C35.0039 43.1511 34.6675 43.1511 34.6675 42.9646Z" fill="#18E0D5"/>
<path d="M37.6273 44.5854C38.1094 44.5854 38.5002 44.1946 38.5002 43.7125C38.5002 43.2304 38.1094 42.8396 37.6273 42.8396C37.1452 42.8396 36.7544 43.2304 36.7544 43.7125C36.7544 44.1946 37.1452 44.5854 37.6273 44.5854Z" fill="#18E0D5"/>
<path d="M40.4217 43.8374C40.9038 43.8374 41.2947 43.4466 41.2947 42.9645C41.2947 42.4824 40.9038 42.0916 40.4217 42.0916C39.9396 42.0916 39.5488 42.4824 39.5488 42.9645C39.5488 43.4466 39.9396 43.8374 40.4217 43.8374Z" fill="#18E0D5"/>
<path d="M42.2988 40.9197C42.2988 40.826 42.3728 40.751 42.4665 40.751C42.5613 40.751 42.6353 40.826 42.6353 40.9197C42.6353 41.1062 42.2988 41.1062 42.2988 40.9197Z" fill="#18E0D5"/>
<path d="M43.3854 38.126C43.3854 38.3135 43.0479 38.3135 43.0479 38.126C43.0479 38.0323 43.1218 37.9573 43.2166 37.9573C43.3104 37.9573 43.3854 38.0323 43.3854 38.126Z" fill="#18E0D5"/>
<path d="M42.4667 36.2053C42.9488 36.2053 43.3396 35.8145 43.3396 35.3324C43.3396 34.8503 42.9488 34.4595 42.4667 34.4595C41.9846 34.4595 41.5938 34.8503 41.5938 35.3324C41.5938 35.8145 41.9846 36.2053 42.4667 36.2053Z" fill="#18E0D5"/>
<path d="M40.2529 33.2874C40.2529 33.1937 40.3279 33.1187 40.4217 33.1187C40.5154 33.1187 40.5904 33.1937 40.5904 33.2874C40.5904 33.4749 40.2529 33.4749 40.2529 33.2874Z" fill="#18E0D5"/>
<path d="M39.5394 38.1259C39.5394 39.1801 38.6831 40.0384 37.6269 40.0384C36.5727 40.0384 35.7144 39.1801 35.7144 38.1259C35.7144 37.253 36.305 36.5228 37.106 36.2947V36.7686C37.106 37.0551 37.3404 37.2895 37.6269 37.2895C37.9154 37.2895 38.1477 37.0551 38.1477 36.7686V36.2947C38.9498 36.5228 39.5394 37.253 39.5394 38.1259Z" fill="#18E0D5"/>
<path d="M54.8394 55.2387L52.1394 22.0824C52.0301 20.7397 50.8895 19.6897 49.5436 19.6897H20.4561C19.1103 19.6897 17.9697 20.7397 17.8603 22.0824L15.1603 55.2366C15.0457 56.6668 16.1134 57.9262 17.5457 58.0439C17.6165 58.0501 17.6863 58.0522 17.7561 58.0522H52.2426C53.679 58.0522 54.8467 56.8845 54.8467 55.448C54.8478 55.3772 54.8457 55.3074 54.8394 55.2387ZM51.3707 55.1449C51.3634 55.1428 51.3551 55.1428 51.3488 55.1449H18.6519C18.5051 55.1449 18.3676 55.0834 18.2697 54.9762C18.1707 54.8699 18.1197 54.7262 18.1332 54.5814L20.6988 23.0741C20.7207 22.8032 20.9457 22.5959 21.2176 22.5959H48.7853C49.0572 22.5959 49.2832 22.8032 49.304 23.0741L51.8572 54.4366C51.879 54.4959 51.8915 54.5584 51.8915 54.6241C51.8915 54.9105 51.6572 55.1449 51.3707 55.1449Z" fill="#395EAB"/>
<path d="M48.3033 23.6375H21.697L19.2168 54.1031H50.7866L48.3033 23.6375ZM26.0408 44.2177C26.1751 44.4697 26.0772 44.7854 25.823 44.9218C25.746 44.9625 25.6626 44.9812 25.5803 44.9812C25.3939 44.9812 25.2126 44.8812 25.121 44.7041C22.9418 40.5864 22.9418 35.6666 25.121 31.5489C25.2553 31.2947 25.573 31.1989 25.8251 31.3312C26.0793 31.4677 26.1772 31.7833 26.0428 32.0354C24.023 35.8489 24.023 40.4031 26.0408 44.2177ZM37.6272 46.3635C33.0866 46.3635 29.3908 42.6666 29.3908 38.125C29.3908 33.5822 33.0866 29.8875 37.6272 29.8875C42.1699 29.8875 45.8647 33.5822 45.8647 38.125C45.8658 42.6677 42.171 46.3635 37.6272 46.3635Z" fill="#395EAB"/>
</svg>
