<svg width="70" height="80" viewBox="0 0 70 80" fill="none" xmlns="http://www.w3.org/2000/svg">
<rect width="70" height="80" rx="20" fill="#D6E6F4" fill-opacity="0.33"/>
<path d="M33.9252 35.8854C31.4343 36.6348 28.0339 37.0646 24.5416 37.0646C16.4054 37.0646 11.4092 34.9434 11.4092 33.4225V30.3136C13.8173 32.1438 19.3025 33.1125 24.5416 33.1125C29.7808 33.1125 35.2664 32.1438 37.6747 30.3135V31.8332C36.1787 32.9297 34.905 34.3045 33.9252 35.8854Z" fill="#395EAB"/>
<path d="M11.4092 40.7366C13.8173 42.5669 19.3025 43.5355 24.5416 43.5355C27.1226 43.5355 29.5983 43.3067 31.7894 42.8921C31.7826 43.0744 31.7618 43.2531 31.7618 43.4371C31.7618 44.5766 31.9089 45.6802 32.1604 46.744C29.9252 47.2184 27.2613 47.4877 24.5416 47.4877C16.4054 47.4877 11.4092 45.3664 11.4092 43.8456V40.7366H11.4092Z" fill="#395EAB"/>
<path d="M31.8936 41.5927C29.7014 42.0347 27.1787 42.2756 24.5416 42.2756C16.4054 42.2756 11.4092 40.1555 11.4092 38.6347V35.5251C13.8173 37.3559 19.3025 38.3246 24.5416 38.3246C27.6791 38.3246 30.6535 38.0009 33.1016 37.411C32.498 38.7131 32.0837 40.1167 31.8936 41.5927Z" fill="#395EAB"/>
<path d="M24.5416 24.5696C32.6785 24.5696 37.6747 26.6908 37.6747 28.2117C37.6747 29.7325 32.6785 31.8525 24.5416 31.8525C16.4054 31.8525 11.4092 29.7325 11.4092 28.2117C11.4092 26.6909 16.4054 24.5696 24.5416 24.5696Z" fill="#395EAB"/>
<path d="M24.5416 52.6986C16.4054 52.6986 11.4092 50.5786 11.4092 49.0578V45.9482C13.8173 47.779 19.3025 48.7477 24.5416 48.7477C27.3771 48.7477 30.1644 48.4629 32.5009 47.9602C32.9128 49.2003 33.4817 50.3694 34.1966 51.4348C31.6792 52.2401 28.2272 52.6986 24.5416 52.6986Z" fill="#395EAB"/>
<path d="M46.5 31C39.6073 31 34 36.6073 34 43.5006C34 50.3927 39.6073 56 46.5 56C53.3927 56 59 50.3927 59 43.5006C59 36.6074 53.3927 31 46.5 31ZM46.5 55.1767C40.0612 55.1767 34.8233 49.9383 34.8233 43.5006C34.8233 37.0617 40.0612 31.8233 46.5 31.8233C52.9388 31.8233 58.1767 37.0617 58.1767 43.5006C58.1767 49.9383 52.9388 55.1767 46.5 55.1767Z" fill="#395EAB" stroke="#395EAB" stroke-width="1.2"/>
<path d="M46.5039 34C44.6247 33.9992 42.7874 34.5558 41.2245 35.5994C39.6617 36.643 38.4434 38.1266 37.7239 39.8627C37.0044 41.5987 36.8159 43.5092 37.1824 45.3524C37.5488 47.1956 38.4537 48.8887 39.7825 50.2175C41.1113 51.5463 42.8044 52.4512 44.6476 52.8176C46.4908 53.1841 48.4012 52.9956 50.1373 52.2761C51.8734 51.5566 53.357 50.3383 54.4006 48.7755C55.4442 47.2126 56.0008 45.3753 56 43.4961C55.999 40.9779 54.9981 38.5631 53.2175 36.7825C51.4369 35.0019 49.0221 34.001 46.5039 34ZM48.9192 45.6639C48.7693 45.9333 48.5564 46.1624 48.2987 46.3315C48.0043 46.5043 47.6831 46.6265 47.3483 46.6928C47.2822 46.6992 47.2166 46.7097 47.1519 46.7243V47.227C47.1519 47.3919 47.2305 47.7532 46.6257 47.7532H46.2329C45.8402 47.7532 45.6596 47.6197 45.6596 47.2937V46.7989C45.6596 46.7989 45.2668 46.7596 44.9605 46.7007C44.7523 46.6707 44.5544 46.5913 44.3832 46.469C44.0847 46.2766 44.2301 44.7999 44.666 45.063C44.8243 45.1718 44.9926 45.2651 45.1687 45.3419C45.5012 45.462 45.8519 45.5244 46.2055 45.5265C46.385 45.5284 46.5642 45.5099 46.7396 45.4715C46.8792 45.4445 47.0125 45.3911 47.1323 45.3144C47.2274 45.2604 47.3061 45.1817 47.3601 45.0866C47.412 44.9986 47.4392 44.8982 47.4386 44.796C47.442 44.6553 47.3993 44.5174 47.3169 44.4033C47.2243 44.2839 47.1129 44.1804 46.987 44.0969C46.833 43.9991 46.6715 43.9138 46.5039 43.8417C46.3154 43.7553 46.1112 43.6689 45.8874 43.5746C45.4021 43.3974 44.9688 43.1017 44.6267 42.7146C44.3433 42.3687 44.1941 41.9323 44.2065 41.4853C44.196 41.1498 44.2717 40.8172 44.4264 40.5192C44.5726 40.2521 44.7798 40.0234 45.0312 39.8516C45.2151 39.7058 45.4187 39.5868 45.636 39.4981C45.691 39.4981 45.6871 39.4471 45.6871 39.4314V38.8227C45.6871 38.7205 45.7852 38.5831 45.9973 38.5831H46.8809C47.0577 38.5831 47.1676 38.6734 47.1676 38.7991V39.3057C47.1676 39.3217 47.1737 39.3371 47.1846 39.3488C47.1956 39.3605 47.2106 39.3675 47.2265 39.3685C47.3836 39.3685 47.8196 39.4 48.012 39.4314C48.279 39.4622 48.5422 39.5201 48.7974 39.6042C48.8443 39.624 48.8846 39.6566 48.9138 39.6983C48.9429 39.74 48.9598 39.789 48.9624 39.8398V40.7195C48.9549 40.7619 48.9381 40.8022 48.9131 40.8373C48.8882 40.8724 48.8558 40.9016 48.8182 40.9226C48.7806 40.9437 48.7388 40.9561 48.6958 40.959C48.6528 40.9619 48.6097 40.9552 48.5697 40.9394H48.495C48.3503 40.8729 48.2006 40.8177 48.0473 40.7745C47.8987 40.7366 47.7479 40.7078 47.5957 40.6881C47.4541 40.6656 47.311 40.6537 47.1676 40.6527C46.9972 40.6516 46.8272 40.6701 46.661 40.7077C46.5219 40.7322 46.3886 40.7829 46.2683 40.857C46.1712 40.9139 46.0881 40.9917 46.0248 41.0847C45.968 41.1737 45.9393 41.2777 45.9423 41.3832C45.9409 41.4988 45.9737 41.6122 46.0366 41.7092C46.1083 41.8164 46.2004 41.9084 46.3076 41.9802C46.442 42.0773 46.5853 42.1614 46.7356 42.2315C46.9006 42.31 47.093 42.4004 47.3051 42.4868C47.5766 42.5972 47.8392 42.7285 48.0905 42.8795C48.3087 43.0024 48.5073 43.1573 48.6796 43.339C48.8491 43.5052 48.9827 43.7043 49.0723 43.9241C49.1689 44.1744 49.2143 44.4415 49.2059 44.7096C49.1904 45.0465 49.0919 45.3743 48.9192 45.6639Z" fill="#18E0D5"/>
</svg>
