<svg width="70" height="80" viewBox="0 0 70 80" fill="none" xmlns="http://www.w3.org/2000/svg">
<rect width="70" height="80" rx="20" fill="#D6E6F4" fill-opacity="0.33"/>
<path d="M27.0455 19.2046V24.7728C27.0455 25.1137 26.8183 25.341 26.4774 25.341H20.9092L27.0455 19.2046Z" fill="#395EAB"/>
<path d="M47.0456 18.4092H29.091C28.7501 18.4092 28.5229 18.4092 28.2956 18.5228V24.7728C28.2956 25.6819 27.5001 26.4774 26.591 26.4774H20.2274C20.1138 26.7046 20.1138 27.0455 20.1138 27.2728V58.7501C20.1138 60.341 21.3638 61.591 22.9547 61.591H47.0456C48.6365 61.591 49.8865 60.341 49.8865 58.7501V21.2501C49.8865 19.6592 48.6365 18.4092 47.0456 18.4092ZM33.0683 25.9092H43.0683C43.4092 25.9092 43.6365 26.1365 43.6365 26.4774C43.6365 26.8183 43.4092 27.0455 43.0683 27.0455H33.0683C32.7274 27.0455 32.5001 26.8183 32.5001 26.4774C32.5001 26.1365 32.7274 25.9092 33.0683 25.9092ZM26.932 31.591H43.0683C43.4092 31.591 43.6365 31.8183 43.6365 32.1592C43.6365 32.5001 43.4092 32.7274 43.0683 32.7274H26.932C26.591 32.7274 26.3638 32.5001 26.3638 32.1592C26.3638 31.8183 26.591 31.591 26.932 31.591ZM26.3638 37.841C26.3638 37.5001 26.591 37.2728 26.932 37.2728H43.0683C43.4092 37.2728 43.6365 37.5001 43.6365 37.841C43.6365 38.1819 43.4092 38.4092 43.0683 38.4092H26.932C26.591 38.4092 26.3638 38.1819 26.3638 37.841ZM41.0229 57.2728C38.5229 57.2728 36.4774 55.2274 36.4774 52.7274C36.4774 50.2274 38.5229 48.1819 41.0229 48.1819C43.5229 48.1819 45.5683 50.2274 45.5683 52.7274C45.5683 55.341 43.5229 57.2728 41.0229 57.2728Z" fill="#395EAB"/>
<path d="M41.0021 48C40.013 47.9996 39.046 48.2925 38.2234 48.8418C37.4009 49.391 36.7597 50.1719 36.381 51.0856C36.0023 51.9993 35.9031 53.0048 36.096 53.9749C36.2888 54.945 36.7651 55.8361 37.4645 56.5355C38.1639 57.2349 39.055 57.7112 40.0251 57.904C40.9952 58.0969 42.0007 57.9977 42.9144 57.619C43.8281 57.2403 44.609 56.5991 45.1582 55.7766C45.7075 54.954 46.0004 53.987 46 52.9979C45.9995 51.6726 45.4727 50.4016 44.5355 49.4645C43.5984 48.5273 42.3274 48.0005 41.0021 48ZM42.2733 54.1389C42.1944 54.2807 42.0823 54.4012 41.9467 54.4903C41.7918 54.5812 41.6227 54.6455 41.4465 54.6804C41.4117 54.6838 41.3772 54.6893 41.3431 54.697V54.9616C41.3431 55.0484 41.3845 55.2385 41.0661 55.2385H40.8594C40.6528 55.2385 40.5577 55.1683 40.5577 54.9967V54.7363C40.5577 54.7363 40.351 54.7156 40.1897 54.6846C40.0802 54.6688 39.976 54.627 39.8859 54.5626C39.7288 54.4613 39.8053 53.6842 40.0347 53.8227C40.118 53.8799 40.2066 53.929 40.2993 53.9694C40.4743 54.0326 40.6589 54.0655 40.845 54.0666C40.9395 54.0676 41.0338 54.0579 41.1261 54.0376C41.1996 54.0234 41.2697 53.9953 41.3328 53.9549C41.3828 53.9266 41.4243 53.8851 41.4527 53.8351C41.48 53.7887 41.4943 53.7359 41.494 53.6821C41.4958 53.608 41.4733 53.5354 41.4299 53.4754C41.3812 53.4126 41.3226 53.3581 41.2563 53.3142C41.1753 53.2627 41.0903 53.2178 41.0021 53.1798C40.9029 53.1344 40.7954 53.0889 40.6776 53.0393C40.4221 52.946 40.1941 52.7904 40.0141 52.5866C39.8649 52.4046 39.7863 52.1749 39.7929 51.9396C39.7874 51.763 39.8272 51.588 39.9086 51.4312C39.9856 51.2906 40.0946 51.1702 40.227 51.0798C40.3237 51.003 40.4309 50.9404 40.5453 50.8938C40.5742 50.8938 40.5721 50.8669 40.5721 50.8586V50.5382C40.5721 50.4845 40.6238 50.4122 40.7354 50.4122H41.2005C41.2935 50.4122 41.3514 50.4597 41.3514 50.5258V50.7925C41.3514 50.8009 41.3546 50.809 41.3603 50.8152C41.3661 50.8213 41.374 50.825 41.3824 50.8255C41.4651 50.8255 41.6945 50.8421 41.7958 50.8586C41.9363 50.8748 42.0748 50.9053 42.2092 50.9496C42.2338 50.96 42.255 50.9772 42.2704 50.9991C42.2857 51.021 42.2946 51.0468 42.296 51.0736V51.5366C42.2921 51.5589 42.2832 51.5801 42.2701 51.5986C42.2569 51.6171 42.2399 51.6324 42.2201 51.6435C42.2003 51.6546 42.1783 51.6611 42.1557 51.6626C42.1331 51.6642 42.1104 51.6606 42.0893 51.6523H42.05C41.9739 51.6173 41.8951 51.5883 41.8144 51.5655C41.7361 51.5456 41.6568 51.5304 41.5767 51.52C41.5022 51.5082 41.4268 51.502 41.3514 51.5014C41.2617 51.5009 41.1722 51.5106 41.0847 51.5304C41.0115 51.5433 40.9414 51.5699 40.878 51.6089C40.827 51.6389 40.7832 51.6798 40.7499 51.7288C40.72 51.7756 40.7049 51.8304 40.7065 51.8859C40.7057 51.9467 40.723 52.0064 40.7561 52.0575C40.7939 52.1139 40.8423 52.1623 40.8987 52.2001C40.9695 52.2512 41.0449 52.2955 41.124 52.3324C41.2108 52.3737 41.3121 52.4212 41.4237 52.4667C41.5667 52.5248 41.7049 52.594 41.8371 52.6734C41.952 52.7381 42.0565 52.8196 42.1472 52.9153C42.2364 53.0027 42.3067 53.1075 42.3539 53.2232C42.4047 53.3549 42.4286 53.4955 42.4241 53.6366C42.416 53.8139 42.3642 53.9865 42.2733 54.1389Z" fill="#18E0D5"/>
</svg>
