<svg width="46" height="44" viewBox="0 0 46 44" fill="none" xmlns="http://www.w3.org/2000/svg">
<rect x="12" y="22" width="7" height="14" fill="white"/>
<rect x="26" y="22" width="7" height="14" fill="white"/>
<path d="M5 36.5L3 38V41.5L5.5 43L39.5 43.5L42 42.5L43 40.5V38L41 36.5H5Z" fill="#D3F3F2"/>
<path d="M44.2114 20.6096C44.7042 19.1664 44.2466 17.6352 43.0498 16.7024L25.0275 2.60476C23.7603 1.60156 21.965 1.60156 20.6979 2.60476L2.67545 16.7024C1.47865 17.6352 1.02105 19.1664 1.51385 20.6096C2.00665 22.0528 3.30905 22.968 4.84025 22.968H4.89305C4.89305 22.9856 4.87545 23.0032 4.87545 23.0208V35.5168C3.15065 35.9392 1.88345 37.3648 1.88345 39.0896V40.1984C1.88345 42.24 3.69625 43.912 5.93145 43.912H39.7938C42.029 43.912 43.8418 42.24 43.8418 40.1984V39.0896C43.8418 37.312 42.469 35.816 40.6562 35.464V23.0384C40.6562 23.0208 40.6386 23.0032 40.6386 22.9856H40.8675C42.4162 22.968 43.7186 22.0352 44.2114 20.6096ZM3.20345 20.0288C3.00985 19.4656 3.06265 18.656 3.78425 18.0752L21.8066 3.97756C22.1234 3.73116 22.5107 3.60796 22.8802 3.60796C23.2675 3.60796 23.6371 3.73116 23.9538 3.97756L41.9762 18.0752C42.6978 18.6384 42.7506 19.448 42.557 20.0288C42.3634 20.592 41.8178 21.208 40.9026 21.208H4.85785C3.94265 21.208 3.41465 20.6096 3.20345 20.0288ZM25.2034 35.376H20.3811V23.056C20.3986 23.0384 20.4515 22.9856 20.5747 22.9856H25.0098C25.1154 22.9856 25.1858 23.0384 25.2034 23.056V35.376ZM18.621 22.968C18.621 22.9856 18.6034 23.0032 18.6034 23.0208V35.376H13.2003V23.0208C13.2003 23.0032 13.1826 22.9856 13.1826 22.968H18.621ZM6.65305 23.056C6.67065 23.0384 6.72345 22.9856 6.84665 22.9856H11.2818C11.3699 22.9856 11.4403 23.0208 11.4403 23.056V35.3936H6.63545L6.65305 23.056ZM42.0994 39.0896V40.1984C42.0994 41.272 41.0786 42.152 39.8114 42.152H5.94905C4.68185 42.152 3.66105 41.272 3.66105 40.1984V39.0896C3.66105 38.3328 4.17145 37.6992 4.89305 37.3824V37.6464L6.01945 37.136H13.2179H18.621H26.9634H32.3314H39.8114C41.0786 37.136 42.0994 38.016 42.0994 39.0896ZM34.0914 23.056C34.109 23.0384 34.1618 22.9856 34.285 22.9856H38.7202C38.8258 22.9856 38.8962 23.0208 38.9138 23.056V35.3936H34.0914V23.056ZM32.3314 23.0208V35.376H26.9634V23.0208C26.9634 23.0032 26.9459 22.9856 26.9459 22.968H32.3491C32.3491 22.9856 32.3314 23.0032 32.3314 23.0208Z" fill="black"/>
</svg>
