<svg width="56" height="44" viewBox="0 0 56 44" fill="none" xmlns="http://www.w3.org/2000/svg">
<g clip-path="url(#clip0_1250_659)">
<path d="M9 34C9 32.8954 9.89543 32 11 32H55V37C55 39.7614 52.7614 42 50 42H14C11.2386 42 9 39.7614 9 37V34Z" fill="white"/>
<rect x="44" y="30" width="11" height="4" fill="white"/>
<rect x="46" y="27" width="9" height="4" fill="white"/>
<path d="M47 12C51.4183 12 55 15.5817 55 20V28H47V12Z" fill="white"/>
<circle cx="24" cy="17" r="7" fill="#D3F3F2"/>
<path d="M48.7805 10.94H48.0205V10.08V8.51999V8.03999L47.9805 8.05999C47.7405 4.19999 44.6605 1.13999 40.8005 0.899986L40.8205 0.859985H40.3605H38.7805H8.98055H7.24055H6.92054V0.899986C2.86054 1.07999 -0.399453 4.37998 -0.439453 8.47998V8.55999V10.56V24.18V25.46V26.26L-0.359455 26.24C0.0405449 30.1 3.28055 33.12 7.24055 33.12H7.64054H8.00055V35.54C8.00055 39.76 11.4405 43.2 15.6605 43.2H48.7605C52.9805 43.2 56.4205 39.76 56.4205 35.54V18.6C56.4405 14.38 53.0005 10.94 48.7805 10.94ZM40.8205 31.04C40.8205 30.66 40.8605 30.28 40.9205 29.94C40.9405 29.82 41.0005 29.72 41.0205 29.6C41.0805 29.38 41.1405 29.14 41.2205 28.94C41.2805 28.8 41.3605 28.7 41.4205 28.56C41.5205 28.38 41.6005 28.18 41.7205 28.02C41.8005 27.9 41.9005 27.78 42.0005 27.68C42.1205 27.52 42.2405 27.36 42.3805 27.22C42.4805 27.12 42.6005 27.02 42.7205 26.92C42.8605 26.8 43.0005 26.66 43.1605 26.56C43.2805 26.48 43.4205 26.4 43.5605 26.34C43.7205 26.24 43.9005 26.14 44.0805 26.06C44.2205 26 44.3805 25.96 44.5205 25.9C44.7005 25.84 44.8805 25.76 45.0805 25.72C45.2405 25.68 45.4005 25.68 45.5605 25.66C45.7205 25.64 45.8605 25.62 46.0205 25.62C45.9005 28.48 43.6605 30.8 40.8205 31.04ZM46.0205 8.39999C45.9805 8.39999 45.9205 8.41998 45.8805 8.41998C42.8805 8.41998 40.4405 5.97998 40.4405 2.97998C40.4405 2.93998 40.4605 2.89999 40.4605 2.85999C43.4805 2.89999 45.9405 5.35999 46.0205 8.39999ZM38.4405 2.83998C38.4405 2.87998 38.4405 2.91998 38.4405 2.95998C38.4405 3.47998 38.5005 3.97998 38.6005 4.45998C38.9805 6.35998 40.1005 7.97999 41.6405 9.05999C41.6805 9.07999 41.7005 9.11998 41.7205 9.13998C41.9805 9.31998 42.2805 9.45998 42.5605 9.59998C42.7205 9.67998 42.8605 9.77998 43.0005 9.83998C43.2005 9.91998 43.4405 9.97999 43.6605 10.04C43.9205 10.12 44.1605 10.22 44.4405 10.26C44.6405 10.3 44.8405 10.3 45.0405 10.32C45.3205 10.36 45.6005 10.4 45.8805 10.4C45.9005 10.4 45.9205 10.4 45.9605 10.4C45.9805 10.4 46.0005 10.4 46.0205 10.4V23.58C45.7805 23.58 45.5605 23.64 45.3405 23.66C45.1205 23.68 44.8806 23.7 44.6605 23.74C44.4006 23.8 44.1605 23.9 43.9005 23.98C43.7005 24.04 43.4805 24.1 43.2805 24.18C43.0405 24.28 42.8005 24.42 42.5805 24.56C42.4005 24.66 42.2205 24.76 42.0405 24.86C41.8205 25.02 41.6205 25.2 41.4005 25.38C41.2405 25.52 41.0805 25.62 40.9405 25.76C40.7405 25.96 40.5805 26.18 40.4005 26.42C40.2805 26.56 40.1405 26.7 40.0405 26.86C39.8805 27.1 39.7405 27.38 39.6205 27.64C39.5405 27.8 39.4405 27.94 39.3605 28.12C39.2405 28.42 39.1605 28.74 39.0605 29.06C39.0205 29.2 38.9605 29.34 38.9205 29.5C38.8205 29.98 38.7605 30.48 38.7605 30.98C38.7605 31 38.7605 31 38.7605 31.02H10.0005C10.0005 31 10.0005 31 10.0005 30.98C10.0005 30.44 9.94055 29.94 9.84055 29.44C9.80055 29.2 9.70055 29 9.64054 28.76C9.56054 28.5 9.50055 28.26 9.40055 28.02C9.28055 27.74 9.12054 27.48 8.96054 27.22C8.86054 27.06 8.78055 26.9 8.68055 26.76C8.48055 26.48 8.26055 26.24 8.04055 25.98C7.94055 25.88 7.86055 25.76 7.74055 25.66C7.50055 25.42 7.22054 25.2 6.94054 25C6.82054 24.92 6.72054 24.82 6.60054 24.74C6.32054 24.56 6.02055 24.4 5.72055 24.26C5.56055 24.18 5.40055 24.12 5.24055 24.06C4.96055 23.96 4.66055 23.86 4.36055 23.78C4.14055 23.72 3.92055 23.68 3.70055 23.64C3.44055 23.6 3.18055 23.58 2.90055 23.56C2.78055 23.56 2.68055 23.52 2.56055 23.52C2.28055 23.52 2.00055 23.56 1.70055 23.58C1.66055 23.58 1.60055 23.58 1.56055 23.58V10.84C1.64055 10.84 1.72054 10.82 1.80054 10.82C1.86054 10.82 1.92055 10.84 2.00055 10.84C2.20055 10.84 2.38055 10.8 2.56055 10.78C2.82055 10.76 3.06054 10.74 3.30054 10.7C3.58054 10.66 3.84054 10.56 4.10054 10.48C4.30054 10.42 4.48055 10.38 4.68055 10.3C5.02055 10.16 5.34055 9.99998 5.66055 9.81998C5.76055 9.75998 5.86054 9.71999 5.94054 9.65998C6.34054 9.41998 6.70055 9.13998 7.04055 8.81998C7.06055 8.79998 7.06055 8.79998 7.08055 8.77998C8.14055 7.77998 8.90055 6.49999 9.24055 5.03999C9.24055 4.99999 9.26054 4.95998 9.28054 4.91998C9.38054 4.41998 9.44054 3.89999 9.44054 3.37999C9.44054 3.15999 9.44054 2.95999 9.42054 2.73999H38.4405V2.83998ZM7.24055 2.83998H7.36055C7.38055 3.05998 7.44054 3.25998 7.44054 3.47998C7.44054 6.47998 5.00055 8.91998 2.00055 8.91998C1.84055 8.91998 1.70055 8.87999 1.56055 8.85999V8.51999C1.56055 5.39999 4.10055 2.83998 7.24055 2.83998ZM7.24055 31.06C4.20055 31.06 1.72055 28.68 1.56055 25.68C1.58055 25.68 1.60054 25.68 1.62054 25.66C1.98054 25.6 2.34055 25.58 2.70055 25.58C2.90055 25.58 3.12055 25.62 3.32055 25.64C3.48055 25.66 3.64054 25.68 3.78054 25.72C4.04054 25.78 4.30055 25.86 4.54055 25.96C4.62055 25.98 4.68055 26.02 4.74055 26.04C5.02055 26.16 5.30055 26.3 5.54055 26.48C5.56055 26.5 5.60054 26.52 5.62054 26.54C5.88054 26.72 6.14055 26.92 6.36055 27.16C6.38055 27.18 6.40054 27.2 6.42054 27.22C6.64054 27.44 6.84055 27.68 7.02055 27.96C7.06055 28.02 7.08054 28.06 7.12054 28.12C7.28054 28.36 7.42055 28.6 7.52055 28.88C7.58055 29.02 7.62055 29.16 7.66055 29.28C7.72055 29.48 7.80055 29.68 7.86055 29.9C7.94055 30.26 7.98055 30.64 7.98055 31.04C7.98055 31.06 7.98055 31.06 7.98055 31.08H7.24055V31.06ZM54.4405 35.48C54.4405 38.6 51.9005 41.14 48.7805 41.14H15.6605C12.5405 41.14 10.0005 38.6 10.0005 35.48V33.06H39.1205H40.3405H41.1805L41.1605 32.98C44.8605 32.58 47.7605 29.56 47.9805 25.82H48.0205V25.4V23.8V12.94H48.7805C51.9005 12.94 54.4405 15.48 54.4405 18.6V35.48Z" fill="black"/>
<path d="M23.7807 25.52C28.5007 25.52 32.3407 21.68 32.3407 16.96C32.3407 12.24 28.5007 8.39996 23.7807 8.39996C19.0607 8.39996 15.2207 12.24 15.2207 16.96C15.2207 21.68 19.0607 25.52 23.7807 25.52ZM23.7807 10.4C27.4007 10.4 30.3407 13.34 30.3407 16.96C30.3407 20.58 27.4007 23.52 23.7807 23.52C20.1607 23.52 17.2207 20.58 17.2207 16.96C17.2207 13.34 20.1807 10.4 23.7807 10.4Z" fill="black"/>
<path d="M23.801 18.7199C23.561 18.7199 23.381 18.6399 23.241 18.4999C23.121 18.3599 23.041 18.1399 23.041 17.8799H22.041C22.041 18.3399 22.161 18.7199 22.421 18.9999C22.681 19.2799 22.961 19.4399 23.421 19.4999V19.8799H24.101V19.4999C24.521 19.4599 24.821 19.3199 25.061 19.0799C25.301 18.8399 25.421 18.5199 25.421 18.1399C25.421 17.9399 25.381 17.7399 25.321 17.5999C25.261 17.4399 25.161 17.2999 25.041 17.1799C24.921 17.0599 24.781 16.9399 24.601 16.8599C24.421 16.7599 24.201 16.6599 23.921 16.5399C23.641 16.4199 23.461 16.3199 23.361 16.2199C23.261 16.1199 23.201 15.9799 23.201 15.7999C23.201 15.6199 23.261 15.4599 23.361 15.3599C23.461 15.2599 23.601 15.1999 23.801 15.1999C23.981 15.1999 24.141 15.2599 24.261 15.3999C24.381 15.5399 24.421 15.7399 24.421 16.0199H25.421C25.421 15.5799 25.301 15.1999 25.081 14.9199C24.861 14.6399 24.621 14.4799 24.201 14.4199V14.0599H23.441V14.4199C23.041 14.4599 22.841 14.5999 22.601 14.8599C22.361 15.0999 22.221 15.4199 22.221 15.8199C22.221 16.0399 22.261 16.2399 22.321 16.3999C22.401 16.5599 22.501 16.6999 22.621 16.8199C22.741 16.9399 22.901 17.0399 23.081 17.1399C23.261 17.2399 23.481 17.3199 23.721 17.4199C23.961 17.5199 24.141 17.6199 24.261 17.7199C24.361 17.8399 24.421 17.9799 24.421 18.1599C24.421 18.3399 24.361 18.4799 24.241 18.5999C24.161 18.6599 24.001 18.7199 23.801 18.7199Z" fill="black"/>
</g>
<defs>
<clipPath id="clip0_1250_659">
<rect width="56" height="44" fill="white"/>
</clipPath>
</defs>
</svg>
