<svg width="37" height="44" viewBox="0 0 37 44" fill="none" xmlns="http://www.w3.org/2000/svg">
<path d="M34.0004 21.5C34.0004 28.9558 26.9562 39 19.5004 39C12.0445 39 2.50036 30.4558 2.50036 23C4 4 -3.49942 14.5 18.0004 5C38.0001 13 34.5001 6.5 34.0004 21.5Z" fill="#D3F3F2"/>
<path d="M24.1706 18.8999C24.5714 19.3007 24.5714 19.9304 24.1706 20.3312L16.8996 27.6022C16.7278 27.774 16.4415 27.8885 16.2125 27.8885C16.1553 27.8885 16.098 27.8885 16.0408 27.8885C15.869 27.8312 15.6973 27.774 15.5255 27.6022L12.4339 24.5106C12.0331 24.1099 12.0331 23.4801 12.4339 23.0793C12.8346 22.6785 13.4644 22.6785 13.8652 23.0793L16.2125 25.4267L22.7393 18.8999C23.14 18.4991 23.7698 18.4991 24.1706 18.8999ZM34.8767 17.5831V17.8121V17.8694L34.8195 23.0793C34.8195 23.0793 34.8195 23.0793 34.8195 23.1366C34.8195 23.7663 34.8195 24.2816 34.7622 24.8541C34.6477 27.4305 33.7317 29.8923 31.8996 32.3542C29.8386 35.1595 27.0332 37.4496 23.3118 39.4534C22.1668 40.026 21.0217 40.5412 19.8767 41.0565C19.5904 41.171 19.3041 41.2855 19.0751 41.4C18.7889 41.5145 18.5026 41.5718 18.2163 41.5718C17.9873 41.5718 17.7583 41.5145 17.5293 41.4573C12.8919 39.7397 9.28501 37.4496 6.36514 34.5298C4.07506 32.2397 2.701 29.7778 2.07123 27.1442C1.78497 25.9992 1.67046 24.8541 1.67046 23.7663C1.61321 20.6175 1.67046 17.4686 1.67046 14.377C1.67046 13.2892 1.67046 12.1441 1.67046 11.0563C1.67046 9.73955 2.24299 9.10977 3.55979 9.05252C8.02546 8.76626 12.2621 7.10595 16.9568 3.89982C18.0446 3.15554 18.5026 3.15554 19.6477 3.89982C23.1973 6.36167 26.3462 7.85023 29.6668 8.59451C30.5256 8.76627 31.3844 8.88077 32.3004 8.99527C32.5867 9.05253 32.9302 9.05252 33.2164 9.10978C34.5905 9.28153 34.8767 10.1976 34.8767 10.9418C34.8767 12.6594 34.8767 14.4342 34.8767 16.1518V17.5831ZM32.8729 15.751C32.8729 14.0907 32.8729 12.4877 32.8729 10.8273C32.5867 10.7701 32.3577 10.7701 32.0714 10.7128C31.1554 10.5983 30.1821 10.4838 29.2088 10.2548C25.6591 9.45329 22.1668 7.85023 18.4454 5.27388C18.3881 5.21663 18.3309 5.15938 18.2736 5.15938C18.2164 5.21663 18.1591 5.27388 18.1018 5.27388C13.0637 8.70901 8.48348 10.4838 3.67429 10.8273C3.67429 11.9151 3.67429 13.0602 3.67429 14.148C3.67429 17.2396 3.67429 20.3885 3.67429 23.5373C3.67429 24.5106 3.7888 25.4839 4.01781 26.5144C4.53308 28.8045 5.79262 30.9229 7.79645 32.984C10.4873 35.7321 13.9224 37.8504 18.2163 39.4534H18.2736C18.5599 39.3389 18.8461 39.2244 19.0751 39.1099C20.1629 38.6519 21.308 38.1366 22.3385 37.6214C25.7736 35.7893 28.35 33.671 30.2393 31.1519C31.7851 29.0335 32.5867 26.9152 32.7012 24.7396C32.7012 24.2243 32.7584 23.7091 32.7584 23.0793V22.9076L32.8157 17.8121V17.7549V17.5831V15.751H32.8729Z" fill="black"/>
</svg>
