<svg width="44" height="44" viewBox="0 0 44 44" fill="none" xmlns="http://www.w3.org/2000/svg">
<g clip-path="url(#clip0_1250_652)">
<circle cx="22" cy="22" r="12" fill="#D3F3F2"/>
<path d="M8.83301 22C8.83301 28.0246 12.9115 33.2369 18.7669 34.6754C19.7992 34.9293 20.8484 35.0477 21.8807 35.0477C22.913 35.0477 23.9622 34.9123 25.0115 34.6754C30.8499 33.2539 34.9453 28.0416 34.9453 22C34.9453 14.8077 29.0899 8.95233 21.8976 8.95233C14.7053 8.95233 8.83301 14.8077 8.83301 22ZM33.2361 22C33.2361 27.2462 29.6822 31.7816 24.6053 33.0339C22.7945 33.4739 20.9669 33.4739 19.1561 33.0339C14.0792 31.7816 10.5253 27.2462 10.5253 22C10.5253 15.7385 15.6192 10.6446 21.8807 10.6446C28.1422 10.6446 33.2361 15.7385 33.2361 22Z" fill="black"/>
<path d="M42.3746 4.99232L41.4438 10.4246C41.3931 10.6954 41.2069 10.7631 41.1054 10.78C41.0208 10.7969 40.7669 10.8139 40.6146 10.5431C36.0792 3.11385 27.5331 -0.930764 18.8515 0.236928C9.01923 1.55693 1.13307 9.69693 0.0838437 19.58C-1.06693 30.4954 6.04077 40.6662 16.6346 43.2723C18.3777 43.6954 20.1377 43.9154 21.8808 43.9154C23.6238 43.9154 25.4008 43.6954 27.1269 43.2723C32.6438 41.9185 37.3485 38.5338 40.4115 33.7108L38.99 32.7969C36.1638 37.2477 31.8146 40.3785 26.7377 41.6138C23.5223 42.3923 20.2562 42.3923 17.0408 41.6138C7.27615 39.2277 0.71 29.8185 1.75923 19.7492C2.72385 10.6277 10.0008 3.13077 19.0715 1.91231C27.0931 0.846159 34.9792 4.56924 39.1592 11.4231C39.6331 12.2015 40.5131 12.6077 41.4269 12.4385C42.3069 12.2692 42.9669 11.5923 43.1192 10.6954L44.05 5.26308L42.3746 4.99232Z" fill="black"/>
<path d="M21.4738 17.9215V18.4123C20.8984 18.463 20.6277 18.6661 20.2892 19.0215C19.9507 19.36 19.7646 19.8 19.7646 20.3415C19.7646 20.663 19.8154 20.9169 19.9169 21.1538C20.0184 21.3738 20.1538 21.5769 20.34 21.7461C20.5261 21.9153 20.7292 22.0677 20.983 22.1861C21.2369 22.3215 21.5415 22.44 21.88 22.5753C22.2354 22.7107 22.4723 22.8461 22.6246 22.9984C22.7769 23.1507 22.8446 23.3538 22.8446 23.6246C22.8446 23.8784 22.76 24.0815 22.6077 24.2169C22.4554 24.3523 22.2184 24.4369 21.9477 24.4369C21.6092 24.4369 21.3554 24.3353 21.1692 24.1323C20.983 23.9292 20.8984 23.6415 20.8984 23.2523H19.5107C19.5107 23.9123 19.6969 24.4369 20.0523 24.8261C20.4077 25.2153 20.7969 25.4523 21.44 25.52V26.0446H22.3877V25.503C22.98 25.4353 23.3861 25.2492 23.7246 24.9107C24.063 24.5723 24.2323 24.1323 24.2323 23.5907C24.2323 23.303 24.1815 23.0492 24.0969 22.8292C24.0123 22.6092 23.8769 22.423 23.7077 22.2369C23.5384 22.0677 23.3354 21.9153 23.0815 21.78C22.8277 21.6446 22.523 21.4923 22.1338 21.34C21.7446 21.1877 21.4907 21.0353 21.3554 20.883C21.22 20.7307 21.1523 20.5446 21.1523 20.2907C21.1523 20.0369 21.22 19.8169 21.3723 19.6815C21.5077 19.5292 21.7107 19.4615 21.9815 19.4615C22.2523 19.4615 22.4554 19.563 22.6246 19.7492C22.7769 19.9353 22.8615 20.223 22.8615 20.6123H24.2492C24.2492 19.9861 24.0969 19.4784 23.7754 19.0892C23.4538 18.7 23.1323 18.463 22.5569 18.3784V17.8707H21.4738V17.9215Z" fill="black"/>
</g>
<defs>
<clipPath id="clip0_1250_652">
<rect width="44" height="44" fill="white"/>
</clipPath>
</defs>
</svg>
