<svg width="60" height="44" viewBox="0 0 60 44" fill="none" xmlns="http://www.w3.org/2000/svg">
<g clip-path="url(#clip0_1250_666)">
<circle cx="44.5" cy="17.5" r="13.5" fill="#D3F3F2"/>
<rect x="17" y="29" width="10" height="14" fill="white"/>
<path d="M44.4972 2.42957C39.9824 2.42957 35.9459 4.43826 33.2102 7.61391L25.0989 2.56348C23.0137 1.26261 20.2972 1.26261 18.2119 2.56348L14.2902 5.01218V4.30435C14.2902 3.17566 13.3719 2.2574 12.2432 2.2574H9.18237C8.05368 2.2574 7.13542 3.17566 7.13542 4.30435V9.33565C7.13542 9.43131 7.09716 9.50783 7.02064 9.56522L4.80151 10.9426C2.88846 12.1478 1.75977 14.2139 1.75977 16.4713V37.8591C1.75977 41.4365 4.66759 44.3635 8.26411 44.3635H15.1511H28.1598H35.0276C38.6241 44.3635 41.5511 41.4365 41.5511 37.84V32.0817C42.5076 32.273 43.4832 32.3687 44.4972 32.3687C52.7424 32.3687 59.4572 25.6539 59.4572 17.4087C59.4572 9.14435 52.7424 2.42957 44.4972 2.42957ZM17.0641 42.4313V30.8383C17.0641 29.8052 17.9059 28.9444 18.958 28.9444H24.3719C25.405 28.9444 26.2659 29.7861 26.2659 30.8383V42.4313H17.0641ZM39.638 37.8209C39.638 40.3652 37.5719 42.4313 35.0276 42.4313H28.1598V30.8383C28.1598 28.7339 26.4572 27.0313 24.3528 27.0313H18.9389C16.8345 27.0313 15.1319 28.7339 15.1319 30.8383V42.4313H8.24498C5.71976 42.4313 3.65368 40.3652 3.65368 37.84V16.4522C3.65368 14.8644 4.45716 13.4104 5.81542 12.5496L8.01542 11.1722C8.66585 10.7704 9.04846 10.0817 9.04846 9.33565L9.18237 4.18957L12.3772 4.32348V6.42783L12.4154 7.07827L12.9128 7.34609C13.3911 7.61392 13.965 7.48 14.8067 6.94435L19.2259 4.18957C20.6989 3.27131 22.6119 3.27131 24.085 4.18957L32.0241 9.14435C30.4554 11.5165 29.5372 14.3478 29.5372 17.3896C29.5372 23.9322 33.765 29.4991 39.638 31.527V37.8209ZM44.4972 30.4365C37.3041 30.4365 31.4502 24.5826 31.4502 17.3896C31.4502 10.1965 37.3041 4.34261 44.4972 4.34261C51.6902 4.34261 57.5441 10.1965 57.5441 17.3896C57.5441 24.5826 51.6902 30.4365 44.4972 30.4365Z" fill="black"/>
<path d="M44.6123 14.5774C44.9184 14.5774 45.1479 14.6922 45.3393 14.9026C45.5114 15.113 45.6071 15.4382 45.6071 15.8782H47.1758C47.1758 15.1704 47.0036 14.5965 46.6401 14.1565C46.2766 13.7165 45.9132 13.4487 45.2627 13.353V12.7791H44.0575V13.3339C43.4071 13.3913 43.101 13.6209 42.7184 14.0226C42.3358 14.4052 42.1253 14.9026 42.1253 15.5148C42.1253 15.8782 42.1827 16.1652 42.2975 16.433C42.4123 16.6817 42.5653 16.9113 42.7758 17.1026C42.9862 17.2939 43.2158 17.4661 43.5027 17.6C43.7897 17.753 44.134 17.8869 44.5166 18.04C44.9184 18.193 45.1862 18.3461 45.3584 18.5182C45.5306 18.6904 45.6071 18.92 45.6071 19.2261C45.6071 19.513 45.5114 19.7426 45.3393 19.8956C45.1671 20.0487 44.8993 20.1443 44.5932 20.1443C44.2106 20.1443 43.9236 20.0295 43.7132 19.8C43.5027 19.5704 43.4071 19.2452 43.4071 18.8052H41.8384C41.8384 19.5513 42.0488 20.1443 42.4506 20.5843C42.8523 21.0243 43.2923 21.2922 44.0192 21.3687V21.9617H45.0906V21.3495C45.7601 21.273 46.2193 21.0626 46.6019 20.68C46.9845 20.2974 47.1758 19.8 47.1758 19.1878C47.1758 18.8626 47.1184 18.5756 47.0227 18.3269C46.9271 18.0782 46.774 17.8678 46.5827 17.6574C46.3914 17.4661 46.1619 17.2939 45.8749 17.1409C45.5879 16.9878 45.2436 16.8156 44.8036 16.6435C44.3636 16.4713 44.0766 16.2991 43.9236 16.1269C43.7706 15.9548 43.694 15.7443 43.694 15.4574C43.694 15.1704 43.7706 14.9217 43.9427 14.7687C44.0958 14.673 44.3253 14.5774 44.6123 14.5774Z" fill="black"/>
</g>
<defs>
<clipPath id="clip0_1250_666">
<rect width="59.3043" height="44" fill="white"/>
</clipPath>
</defs>
</svg>
