<svg width="56" height="56" viewBox="0 0 56 56" fill="none" xmlns="http://www.w3.org/2000/svg">
<rect width="56" height="56" rx="8" fill="#F0DDF4"/>
<path d="M36 36.333V38H34V36.667L26.582 37.903C26.5104 37.9149 26.4371 37.9111 26.3671 37.8918C26.2971 37.8725 26.2322 37.8382 26.1768 37.7913C26.1214 37.7444 26.0769 37.6859 26.0464 37.6201C26.0159 37.5543 26 37.4826 26 37.41V36H22V38H20V36H19C18.7348 36 18.4804 35.8946 18.2929 35.7071C18.1054 35.5196 18 35.2652 18 35V20C18 19.7348 18.1054 19.4804 18.2929 19.2929C18.4804 19.1053 18.7348 19 19 19H26V17.59C26 17.5174 26.0159 17.4457 26.0464 17.3799C26.0769 17.314 26.1214 17.2556 26.1768 17.2087C26.2322 17.1618 26.2971 17.1275 26.3671 17.1082C26.4371 17.0889 26.5104 17.0851 26.582 17.097L37.164 18.861C37.3975 18.8998 37.6097 19.0202 37.7627 19.2007C37.9158 19.3813 37.9999 19.6103 38 19.847V22H39V24H38V31H39V33H38V35.153C37.9999 35.3897 37.9158 35.6187 37.7627 35.7992C37.6097 35.9798 37.3975 36.1002 37.164 36.139L36 36.333ZM20 21V34H26V21H20ZM28 35.64L36 34.306V20.694L28 19.361V35.639V35.64ZM32.5 30C31.672 30 31 28.88 31 27.5C31 26.12 31.672 25 32.5 25C33.328 25 34 26.12 34 27.5C34 28.88 33.328 30 32.5 30Z" fill="#B455C8"/>
</svg>
