<svg width="56" height="56" viewBox="0 0 56 56" fill="none" xmlns="http://www.w3.org/2000/svg">
<rect width="56" height="56" rx="8" fill="#D1F5FD"/>
<path d="M35 37H21C20.7348 37 20.4804 36.8947 20.2929 36.7071C20.1054 36.5196 20 36.2653 20 36V27H17L27.327 17.612C27.5111 17.4445 27.7511 17.3517 28 17.3517C28.2489 17.3517 28.4889 17.4445 28.673 17.612L39 27H36V36C36 36.2653 35.8946 36.5196 35.7071 36.7071C35.5196 36.8947 35.2652 37 35 37ZM22 35H34V25.157L28 19.703L22 25.157V35Z" fill="#18CDF6"/>
</svg>
