<svg width="78" height="78" viewBox="0 0 78 78" fill="none" xmlns="http://www.w3.org/2000/svg">
<rect opacity="0.4" width="78" height="78" rx="8" fill="url(#paint0_linear_1536_168)"/>
<path d="M54.75 21H23.25C21.975 21 21 21.975 21 23.25V40.425C21 41.7 21.975 42.675 23.25 42.675H37.95V49.275C36.675 46.275 33.75 44.25 30.225 44.4C30.075 48.975 33.45 52.575 37.95 52.725V57H40.125V54.225C44.475 53.925 47.775 50.4 47.625 45.9C44.325 45.825 41.475 47.55 40.125 50.25V42.675H54.75C56.025 42.675 57 41.7 57 40.425V23.25C57 21.975 56.025 21 54.75 21ZM54.75 36.675C52.65 36.675 51 38.325 51 40.425H27C27 38.325 25.35 36.675 23.25 36.675V27C25.35 27 27 25.35 27 23.25H51C51 25.35 52.65 27 54.75 27V36.675Z" fill="url(#paint1_linear_1536_168)"/>
<path d="M39.4502 32.4V34.2C39.7502 34.2 40.0502 34.05 40.2002 33.9C40.4252 33.75 40.5002 33.525 40.5002 33.3C40.5002 33.075 40.4252 32.85 40.2752 32.7C40.1252 32.625 39.8252 32.475 39.4502 32.4Z" fill="url(#paint2_linear_1536_168)"/>
<path d="M37.7998 30.075C37.7998 30.3 37.8748 30.45 38.0248 30.6C38.1748 30.75 38.3998 30.825 38.7748 30.975V29.25C38.4748 29.25 38.2498 29.4 38.0248 29.55C37.8748 29.625 37.7998 29.85 37.7998 30.075Z" fill="url(#paint3_linear_1536_168)"/>
<path d="M38.9998 26.1C35.8498 26.1 33.2998 28.65 33.2998 31.8C33.2998 34.95 35.8498 37.5 38.9998 37.5C42.1498 37.5 44.6998 34.95 44.6998 31.8C44.6998 28.65 42.1498 26.1 38.9998 26.1ZM41.0998 34.65C40.6498 35.025 40.1248 35.25 39.4498 35.25V36H38.7748V35.25C37.8748 35.175 37.0498 34.8 36.2998 34.125L37.0498 33.225C37.6498 33.75 38.1748 33.975 38.7748 34.125V32.175C38.0248 32.025 37.4248 31.725 37.1248 31.425C36.7498 31.125 36.5998 30.675 36.5998 30.075C36.5998 29.475 36.8248 29.025 37.1998 28.65C37.5748 28.275 38.1748 28.05 38.7748 28.05V27.6H39.4498V28.125C40.1998 28.2 40.8748 28.425 41.5498 28.875L40.8748 29.775C40.4248 29.475 39.9748 29.25 39.4498 29.175V31.05C40.1998 31.2 40.7998 31.5 41.1748 31.8C41.5498 32.1 41.6998 32.55 41.6998 33.15C41.6998 33.825 41.4748 34.275 41.0998 34.65Z" fill="url(#paint4_linear_1536_168)"/>
<path d="M49.6504 34.8C51.3072 34.8 52.6504 33.4569 52.6504 31.8C52.6504 30.1432 51.3072 28.8 49.6504 28.8C47.9935 28.8 46.6504 30.1432 46.6504 31.8C46.6504 33.4569 47.9935 34.8 49.6504 34.8Z" fill="url(#paint5_linear_1536_168)"/>
<path d="M28.3496 34.8C30.0065 34.8 31.3496 33.4569 31.3496 31.8C31.3496 30.1432 30.0065 28.8 28.3496 28.8C26.6928 28.8 25.3496 30.1432 25.3496 31.8C25.3496 33.4569 26.6928 34.8 28.3496 34.8Z" fill="url(#paint6_linear_1536_168)"/>
<defs>
<linearGradient id="paint0_linear_1536_168" x1="34.4118" y1="0" x2="34.4118" y2="78" gradientUnits="userSpaceOnUse">
<stop stop-color="#0047FF" stop-opacity="0.8"/>
<stop offset="1" stop-color="#0047FF" stop-opacity="0"/>
</linearGradient>
<linearGradient id="paint1_linear_1536_168" x1="39" y1="21" x2="39" y2="57" gradientUnits="userSpaceOnUse">
<stop stop-color="#0047FF"/>
<stop offset="1" stop-color="#0085FF"/>
</linearGradient>
<linearGradient id="paint2_linear_1536_168" x1="39.9752" y1="32.4" x2="39.9752" y2="34.2" gradientUnits="userSpaceOnUse">
<stop stop-color="#0047FF"/>
<stop offset="1" stop-color="#0085FF"/>
</linearGradient>
<linearGradient id="paint3_linear_1536_168" x1="38.2873" y1="29.25" x2="38.2873" y2="30.975" gradientUnits="userSpaceOnUse">
<stop stop-color="#0047FF"/>
<stop offset="1" stop-color="#0085FF"/>
</linearGradient>
<linearGradient id="paint4_linear_1536_168" x1="38.9998" y1="26.1" x2="38.9998" y2="37.5" gradientUnits="userSpaceOnUse">
<stop stop-color="#0047FF"/>
<stop offset="1" stop-color="#0085FF"/>
</linearGradient>
<linearGradient id="paint5_linear_1536_168" x1="49.6504" y1="28.8" x2="49.6504" y2="34.8" gradientUnits="userSpaceOnUse">
<stop stop-color="#0047FF"/>
<stop offset="1" stop-color="#0085FF"/>
</linearGradient>
<linearGradient id="paint6_linear_1536_168" x1="28.3496" y1="28.8" x2="28.3496" y2="34.8" gradientUnits="userSpaceOnUse">
<stop stop-color="#0047FF"/>
<stop offset="1" stop-color="#0085FF"/>
</linearGradient>
</defs>
</svg>
