<svg width="78" height="78" viewBox="0 0 78 78" fill="none" xmlns="http://www.w3.org/2000/svg">
<rect opacity="0.4" width="78" height="78" rx="8" fill="url(#paint0_linear_1536_172)"/>
<path d="M34.7251 33.75C34.7251 34.125 34.8751 34.425 35.1001 34.65C35.3251 34.875 35.7751 35.1 36.4501 35.325V32.325C35.9251 32.4 35.5501 32.55 35.2501 32.775C34.8751 33.075 34.7251 33.375 34.7251 33.75Z" fill="url(#paint1_linear_1536_172)"/>
<path d="M55.875 39.3H52.35C52.5 38.475 52.575 37.65 52.575 36.75C52.575 28.05 45.525 21 36.825 21C28.125 21 21 28.05 21 36.825C21 45.6 28.05 52.65 36.825 52.65C38.1 52.65 39.3 52.5 40.425 52.2C42.825 54.9 46.65 56.7 47.25 56.925C47.4 57 47.55 57 47.7 57C47.85 57 48 57 48.15 56.925C49.05 56.475 57 52.8 57 47.7V40.425C57 39.825 56.475 39.3 55.875 39.3ZM36.825 49.65C29.775 49.65 24 43.875 24 36.825C24 29.775 29.775 24 36.825 24C43.875 24 49.65 29.775 49.65 36.825C49.65 37.725 49.575 38.55 49.35 39.375H47.325C47.55 38.55 47.625 37.725 47.625 36.825C47.625 30.825 42.75 25.95 36.75 25.95C30.75 25.95 25.95 30.825 25.95 36.825C25.95 42.825 30.825 47.7 36.825 47.7C37.35 47.7 37.95 47.625 38.475 47.55V47.7C38.475 48.3 38.625 48.9 38.775 49.425C38.1 49.575 37.425 49.65 36.825 49.65ZM39.525 39.3C39.45 39.3 39.375 39.3 39.3 39.3C39.3 38.925 39.15 38.625 38.925 38.4C38.7 38.175 38.175 37.95 37.5 37.725V40.875C37.875 40.875 38.175 40.725 38.4 40.65V42.6C38.1 42.675 37.875 42.75 37.5 42.75V44.025H36.375V42.75C34.8 42.6 33.375 41.925 32.1 40.875L33.375 39.375C34.35 40.2 35.325 40.725 36.375 40.875V37.5C35.1 37.2 34.125 36.75 33.525 36.3C32.925 35.775 32.625 35.025 32.625 34.05C32.625 33.075 33 32.25 33.675 31.575C34.35 30.975 35.325 30.6 36.375 30.525V29.625H37.5V30.525C38.775 30.6 39.975 31.05 41.1 31.8L39.975 33.375C39.225 32.85 38.4 32.475 37.5 32.4V35.7H37.575C38.925 36 39.9 36.45 40.5 36.975C41.1 37.5 41.475 38.25 41.475 39.3V39.375H39.525V39.3ZM54.75 47.7C54.75 50.55 50.025 53.475 47.7 54.6C45.375 53.475 40.65 50.55 40.65 47.7V41.55H54.75V47.7Z" fill="url(#paint2_linear_1536_172)"/>
<path d="M45.075 47.925C45.225 48.075 45.3 48.225 45.225 48.45L44.925 50.325C44.85 50.775 45.375 51.15 45.75 50.925L47.4 50.025C47.55 49.95 47.775 49.95 47.925 50.025L49.575 50.925C50.025 51.15 50.475 50.775 50.4 50.325L50.1 48.45C50.1 48.225 50.1 48.075 50.25 47.925L51.6 46.65C51.975 46.275 51.75 45.75 51.3 45.675L49.5 45.375C49.275 45.375 49.125 45.225 49.05 45.075L48.225 43.425C48 42.975 47.4 42.975 47.175 43.425L46.35 45.075C46.275 45.225 46.125 45.375 45.9 45.375L44.025 45.675C43.575 45.75 43.35 46.35 43.725 46.65L45.075 47.925Z" fill="url(#paint3_linear_1536_172)"/>
<defs>
<linearGradient id="paint0_linear_1536_172" x1="34.4118" y1="0" x2="34.4118" y2="78" gradientUnits="userSpaceOnUse">
<stop stop-color="#0047FF" stop-opacity="0.8"/>
<stop offset="1" stop-color="#0047FF" stop-opacity="0"/>
</linearGradient>
<linearGradient id="paint1_linear_1536_172" x1="35.5876" y1="32.325" x2="35.5876" y2="35.325" gradientUnits="userSpaceOnUse">
<stop stop-color="#0047FF"/>
<stop offset="1" stop-color="#0085FF"/>
</linearGradient>
<linearGradient id="paint2_linear_1536_172" x1="39" y1="21" x2="39" y2="57" gradientUnits="userSpaceOnUse">
<stop stop-color="#0047FF"/>
<stop offset="1" stop-color="#0085FF"/>
</linearGradient>
<linearGradient id="paint3_linear_1536_172" x1="47.6625" y1="43.0875" x2="47.6625" y2="50.9923" gradientUnits="userSpaceOnUse">
<stop stop-color="#0047FF"/>
<stop offset="1" stop-color="#0085FF"/>
</linearGradient>
</defs>
</svg>
