<svg width="60" height="60" viewBox="0 0 60 60" fill="none" xmlns="http://www.w3.org/2000/svg">
<rect width="60" height="60" rx="15" fill="#F2FAFF"/>
<rect x="15" y="15" width="30" height="30" rx="5" fill="#6C71F1"/>
<g clip-path="url(#clip0_1536_164)">
<path d="M28.5546 33.7182C28.4548 33.7182 28.374 33.798 28.374 33.8965V34.7886C28.374 34.8876 28.4548 34.9671 28.5546 34.9671H29.0062H30.9934H31.4452C31.5449 34.9671 31.6257 34.8876 31.6257 34.7886V33.8965C31.6257 33.798 31.5449 33.7182 31.4452 33.7182H30.9934V29.1689H31.4452C31.5449 29.1689 31.6257 29.089 31.6257 28.9904V28.0983C31.6257 27.9996 31.5449 27.9198 31.4452 27.9198H30.9934H29.0062H28.5546C28.4548 27.9198 28.374 27.9996 28.374 28.0983V28.9904C28.374 29.089 28.4548 29.1689 28.5546 29.1689H29.0062V33.7182H28.5546Z" fill="white"/>
<path d="M22.7749 35.5913V36.3051C22.7749 36.404 22.8555 36.4834 22.9556 36.4834H37.0444C37.1447 36.4834 37.2251 36.404 37.2251 36.3051V35.5913C37.2251 35.4923 37.1447 35.4128 37.0444 35.4128H22.9556C22.8555 35.4128 22.7749 35.4927 22.7749 35.5913Z" fill="white"/>
<path d="M23.6778 33.7182C23.5779 33.7182 23.4971 33.798 23.4971 33.8965V34.7886C23.4971 34.8876 23.5779 34.9671 23.6778 34.9671H24.1294H26.1164H26.5681C26.6678 34.9671 26.7486 34.8876 26.7486 34.7886V33.8965C26.7486 33.798 26.6678 33.7182 26.5681 33.7182H26.1164V29.1689H26.5681C26.6678 29.1689 26.7486 29.089 26.7486 28.9904V28.0983C26.7486 27.9996 26.6678 27.9198 26.5681 27.9198H26.1164H24.1294H23.6778C23.5779 27.9198 23.4971 27.9996 23.4971 28.0983V28.9904C23.4971 29.089 23.5779 29.1689 23.6778 29.1689H24.1294V33.7182H23.6778Z" fill="white"/>
<path d="M33.4322 33.7182C33.3323 33.7182 33.2515 33.798 33.2515 33.8965V34.7886C33.2515 34.8876 33.3323 34.9671 33.4322 34.9671H33.8838H35.8708H36.3224C36.4223 34.9671 36.5032 34.8876 36.5032 34.7886V33.8965C36.5032 33.798 36.4223 33.7182 36.3224 33.7182H35.8708V29.1689H36.3224C36.4223 29.1689 36.5032 29.089 36.5032 28.9904V28.0983C36.5032 27.9996 36.4223 27.9198 36.3224 27.9198H35.8708H33.8838H33.4322C33.3323 27.9198 33.2515 27.9996 33.2515 28.0983V28.9904C33.2515 29.089 33.3323 29.1689 33.4322 29.1689H33.8838V33.7182H33.4322Z" fill="white"/>
<path d="M37.6768 36.9296H22.3233C22.2234 36.9296 22.1426 37.0092 22.1426 37.1081V37.8217C22.1426 37.9201 22.2234 38 22.3233 38H37.6768C37.7768 38 37.8575 37.9201 37.8575 37.8215V37.1079C37.8575 37.0092 37.7768 36.9296 37.6768 36.9296Z" fill="white"/>
<path d="M22.6846 27.4741H37.3156C37.4155 27.4741 37.4963 27.3943 37.4963 27.2956V25.8775C37.4966 25.779 37.4243 25.6629 37.3352 25.6185L30.1615 22.0332C30.0722 21.9888 29.928 21.9888 29.8389 22.0332L22.6652 25.6185C22.5761 25.6629 22.5039 25.7788 22.5039 25.8775V27.2956C22.5039 27.3943 22.5847 27.4741 22.6846 27.4741ZM30.0002 23.0554C31.0211 23.0554 31.849 23.8729 31.849 24.8814C31.849 25.8899 31.0211 26.7073 30.0002 26.7073C28.979 26.7073 28.1514 25.8897 28.1514 24.8814C28.1514 23.8727 28.979 23.0554 30.0002 23.0554Z" fill="white"/>
<ellipse cx="29.8145" cy="25.0588" rx="2.14412" ry="2.11765" fill="white"/>
</g>
<defs>
<clipPath id="clip0_1536_164">
<rect width="18" height="16" fill="white" transform="translate(21 22)"/>
</clipPath>
</defs>
</svg>
