<svg width="60" height="60" viewBox="0 0 60 60" fill="none" xmlns="http://www.w3.org/2000/svg">
<rect width="60" height="60" rx="15" fill="#F2FAFF"/>
<rect x="15" y="15" width="30" height="30" rx="5" fill="#5CDC98"/>
<path d="M28.0449 25.4266H31.9549C34.1615 23.5542 35.1647 22.7264 34.5089 22.0214C33.8047 21.264 32.9767 22.4794 32.0431 22.268C31.1095 22.0568 31.0213 21 29.9999 21C28.9785 21 28.8903 22.0568 27.9569 22.268C27.0233 22.4794 26.1955 21.264 25.4911 22.0214C24.8353 22.7264 25.8385 23.5542 28.0449 25.4266Z" fill="white"/>
<path d="M32.0126 26.3424H27.9874C26.664 27.5188 23.4834 30.6996 23.4834 34.1036C23.4834 37.4854 27.1466 39 30 39C32.8536 39 36.5166 37.4854 36.5166 34.104C36.5166 30.6998 33.3364 27.519 32.0126 26.3424ZM31.87 30.2268L31.4398 31.0578C31.4066 31.1226 31.345 31.1336 31.2896 31.109C31.0822 31.017 30.5824 30.8208 30.1012 30.8208C29.8262 30.8208 29.365 30.8834 29.365 31.3008C29.365 31.416 29.365 31.6856 30.1688 31.9304C31.246 32.2584 31.7916 32.8422 31.7916 33.6658C31.7916 34.3452 31.351 35.0686 30.3966 35.255V35.8956C30.3966 35.9684 30.3592 36.0054 30.2864 36.0054H29.714C29.641 36.0054 29.6038 35.9682 29.6038 35.8956V35.2866C28.9708 35.225 28.4022 34.9886 28.1788 34.8854C28.1236 34.86 28.0968 34.8046 28.1302 34.7396L28.5592 33.9082C28.5928 33.8434 28.654 33.8322 28.7096 33.8568C28.9174 33.949 29.4176 34.1458 29.8994 34.1458C30.1744 34.1458 30.6356 34.0832 30.6356 33.6656C30.6356 33.5504 30.6356 33.2806 29.8318 33.0362C28.7548 32.708 28.209 32.124 28.209 31.3006C28.209 30.6214 28.6492 29.8978 29.604 29.7112V29.0706C29.604 28.9978 29.6412 28.9606 29.7142 28.9606H30.2864C30.3594 28.9606 30.3966 28.9978 30.3966 29.0706V29.68C31.0294 29.7412 31.5984 29.9778 31.8216 30.0812C31.8764 30.1066 31.9036 30.1622 31.87 30.2268Z" fill="white"/>
</svg>
