<svg width="60" height="60" viewBox="0 0 60 60" fill="none" xmlns="http://www.w3.org/2000/svg">
<rect width="60" height="60" rx="15" fill="#F2FAFF"/>
<rect x="15" y="15" width="30" height="30" rx="5" fill="#54D7F9"/>
<path d="M30 20.8334L36.8475 22.355C37.2283 22.44 37.5 22.7775 37.5 23.1684V31.4909C37.5 33.1625 36.6642 34.7242 35.2733 35.6509L30 39.1667L24.7267 35.6509C23.335 34.7234 22.5 33.1625 22.5 31.4917V23.1684C22.5 22.7775 22.7717 22.44 23.1525 22.355L30 20.8334ZM33.71 26.8517L29.585 30.9759L27.2283 28.6192L26.05 29.7975L29.5858 33.3334L34.8892 28.03L33.71 26.8517Z" fill="white"/>
</svg>
