<svg width="60" height="60" viewBox="0 0 60 60" fill="none" xmlns="http://www.w3.org/2000/svg">
<rect width="60" height="60" rx="15" fill="#F2FAFF"/>
<rect x="15" y="15" width="30" height="30" rx="5" fill="#5BAEFF"/>
<g clip-path="url(#clip0_1536_162)">
<path d="M38.9296 29.1219L36.03 26.7485V22.2953C36.03 22.1893 35.943 22.1033 35.8354 22.1033H33.0476C32.9402 22.1033 32.853 22.1893 32.853 22.2953V24.148L30.2994 22.0575C30.134 21.9221 29.866 21.9221 29.7006 22.0575L21.0704 29.1219C20.9876 29.1898 20.9762 29.3108 21.045 29.3921L21.9142 30.4263C21.983 30.508 22.1056 30.5193 22.188 30.4514L30 24.057L37.8122 30.4514C37.8946 30.5193 38.0172 30.508 38.086 30.4263L38.9552 29.3921C39.0238 29.3108 39.0126 29.1898 38.9296 29.1219Z" fill="white"/>
<path d="M29.9998 25.1421L23.114 30.7787C23.0314 30.8468 22.9644 30.9875 22.9644 31.0935V36.4519C22.9644 36.877 23.1336 37.044 23.5644 37.044H36.4352C36.866 37.044 37.0352 36.877 37.0352 36.4519V31.0933C37.0352 30.9874 36.9682 30.8466 36.8858 30.7785L29.9998 25.1421Z" fill="white"/>
</g>
<defs>
<clipPath id="clip0_1536_162">
<rect width="20" height="15" fill="white" transform="translate(20 22)"/>
</clipPath>
</defs>
</svg>
