<svg width="78" height="78" viewBox="0 0 78 78" fill="none" xmlns="http://www.w3.org/2000/svg">
<rect opacity="0.2" width="78" height="78" rx="39" fill="url(#paint0_linear_1536_180)"/>
<path d="M47.625 27H45.5V27.6875C45.5 28.125 45.375 28.5 45.1875 28.8125H47.625V52.1875H30.375V28.8125H32.8125C32.625 28.5 32.5 28.0625 32.5 27.6875V27H30.375C29.375 27 28.5625 27.8125 28.5625 28.8125V52.1875C28.5625 53.1875 29.375 54 30.375 54H47.6875C48.6875 54 49.5 53.1875 49.5 52.1875V28.8125C49.4375 27.8125 48.625 27 47.625 27Z" fill="url(#paint1_linear_1536_180)"/>
<path d="M34.9375 28.875H43.125C43.8125 28.875 44.3125 28.3125 44.3125 27.6875V26.3125C44.3125 25.625 43.75 25.125 43.125 25.125H41.625L41.25 24.625C41.0625 24.25 40.625 24 40.1875 24H37.75C37.3125 24 36.9375 24.25 36.6875 24.625L36.375 25.125H34.875C34.1875 25.125 33.6875 25.6875 33.6875 26.3125V27.625C33.6875 28.3125 34.25 28.875 34.9375 28.875Z" fill="url(#paint2_linear_1536_180)"/>
<path d="M43.3125 31.9375H34.6875V33.4375H43.3125V31.9375Z" fill="url(#paint3_linear_1536_180)"/>
<path d="M46 35.25H32V36.75H46V35.25Z" fill="url(#paint4_linear_1536_180)"/>
<path d="M46 38.5625H32V40.0625H46V38.5625Z" fill="url(#paint5_linear_1536_180)"/>
<path d="M46 41.875H32V43.375H46V41.875Z" fill="url(#paint6_linear_1536_180)"/>
<path d="M46 45.25H32V46.75H46V45.25Z" fill="url(#paint7_linear_1536_180)"/>
<path d="M40 48.5625H32V50.0625H40V48.5625Z" fill="url(#paint8_linear_1536_180)"/>
<defs>
<linearGradient id="paint0_linear_1536_180" x1="34.4118" y1="0" x2="34.4118" y2="78" gradientUnits="userSpaceOnUse">
<stop stop-color="#0047FF" stop-opacity="0.8"/>
<stop offset="1" stop-color="#0047FF" stop-opacity="0"/>
</linearGradient>
<linearGradient id="paint1_linear_1536_180" x1="39.0312" y1="27" x2="39.0312" y2="54" gradientUnits="userSpaceOnUse">
<stop stop-color="#0047FF"/>
<stop offset="1" stop-color="#0085FF"/>
</linearGradient>
<linearGradient id="paint2_linear_1536_180" x1="39" y1="24" x2="39" y2="28.875" gradientUnits="userSpaceOnUse">
<stop stop-color="#0047FF"/>
<stop offset="1" stop-color="#0085FF"/>
</linearGradient>
<linearGradient id="paint3_linear_1536_180" x1="39" y1="31.9375" x2="39" y2="33.4375" gradientUnits="userSpaceOnUse">
<stop stop-color="#0047FF"/>
<stop offset="1" stop-color="#0085FF"/>
</linearGradient>
<linearGradient id="paint4_linear_1536_180" x1="39" y1="35.25" x2="39" y2="36.75" gradientUnits="userSpaceOnUse">
<stop stop-color="#0047FF"/>
<stop offset="1" stop-color="#0085FF"/>
</linearGradient>
<linearGradient id="paint5_linear_1536_180" x1="39" y1="38.5625" x2="39" y2="40.0625" gradientUnits="userSpaceOnUse">
<stop stop-color="#0047FF"/>
<stop offset="1" stop-color="#0085FF"/>
</linearGradient>
<linearGradient id="paint6_linear_1536_180" x1="39" y1="41.875" x2="39" y2="43.375" gradientUnits="userSpaceOnUse">
<stop stop-color="#0047FF"/>
<stop offset="1" stop-color="#0085FF"/>
</linearGradient>
<linearGradient id="paint7_linear_1536_180" x1="39" y1="45.25" x2="39" y2="46.75" gradientUnits="userSpaceOnUse">
<stop stop-color="#0047FF"/>
<stop offset="1" stop-color="#0085FF"/>
</linearGradient>
<linearGradient id="paint8_linear_1536_180" x1="36" y1="48.5625" x2="36" y2="50.0625" gradientUnits="userSpaceOnUse">
<stop stop-color="#0047FF"/>
<stop offset="1" stop-color="#0085FF"/>
</linearGradient>
</defs>
</svg>
