<svg width="70" height="80" viewBox="0 0 70 80" fill="none" xmlns="http://www.w3.org/2000/svg">
<rect width="70" height="80" rx="20" fill="#D6E6F4" fill-opacity="0.33"/>
<path d="M34.5 38.5L36.5 40.5L35.5 57L28 53.5L22.5 43.5V38.5L34 38V23.5L41 22.5L46.5 26L49 32.5L47 38.5H34.5Z" fill="#18E0D5"/>
<path d="M50.7438 27.8459C50.6879 27.5541 50.5101 27.1097 50.3488 26.8584C50.3488 26.8584 45.9479 20 34.5 20C23.0548 20 18.6505 26.8584 18.6505 26.8584C18.4887 27.1097 18.3115 27.5541 18.255 27.8459C18.255 27.8459 17.4035 32.2935 18.8124 38.6681C20.1099 44.5286 23.6967 52.9292 33.4335 59.6665C33.7539 59.8886 34.1275 60 34.5 60C34.8725 60 35.2439 59.8886 35.567 59.6665C45.3005 52.9292 48.889 44.5286 50.1854 38.6681C51.5986 32.293 50.7438 27.8459 50.7438 27.8459ZM22.6883 38.3784H34.5V23.7838C42.6507 23.7838 46.2803 27.827 47.0007 28.7486C47.1186 29.5984 47.4889 33.1 46.4334 37.8622C46.3966 38.0303 46.3517 38.2059 46.3094 38.3784H34.5V55.7497C26.9033 50.0692 23.8766 43.3114 22.6883 38.3784Z" fill="#395EAB"/>
</svg>
