<svg width="70" height="80" viewBox="0 0 70 80" fill="none" xmlns="http://www.w3.org/2000/svg">
<rect width="70" height="80" rx="20" fill="#D6E6F4" fill-opacity="0.33"/>
<path d="M36.2297 32.5C36.1926 32.4963 36.1582 32.4788 36.1332 32.4511C36.1083 32.4233 36.0946 32.3873 36.0947 32.35V30.97C36.096 30.9359 36.1101 30.9036 36.1342 30.8794C36.1583 30.8553 36.1907 30.8412 36.2247 30.84C39.9047 30.665 42.9997 29.23 45.0097 26.765C47.0197 24.3 47.7747 20.895 47.0097 17.31L46.8797 16.665C46.8718 16.6356 46.8551 16.6094 46.8319 16.5897C46.8086 16.5701 46.78 16.558 46.7497 16.555L46.1297 16.5C42.7597 16.35 39.8597 17.355 37.7347 19.425C36.2379 20.9315 35.1874 22.823 34.6997 24.89C34.6973 24.9071 34.6898 24.923 34.6781 24.9356C34.6664 24.9483 34.6511 24.9571 34.6343 24.9609C34.6175 24.9647 34.5999 24.9633 34.5839 24.9569C34.5679 24.9505 34.5543 24.9394 34.5447 24.925C34.167 24.3931 33.7061 23.9254 33.1797 23.54C32.0626 22.7717 30.7904 22.258 29.453 22.0351C28.1157 21.8122 26.7457 21.8856 25.4397 22.25C25.4132 22.2571 25.3903 22.2738 25.3755 22.297C25.3607 22.3201 25.3551 22.3479 25.3597 22.375C25.4997 23.255 26.6597 30.115 33.9997 30.755C34.0338 30.7597 34.065 30.7764 34.0879 30.802C34.1108 30.8277 34.1239 30.8606 34.1247 30.895L34.0997 32.335C34.1062 32.37 34.0996 32.4061 34.0812 32.4365C34.0627 32.467 34.0337 32.4895 33.9997 32.5C29.9889 32.7913 26.2475 34.627 23.5628 37.6209C20.878 40.6148 19.4592 44.5333 19.6049 48.5521C19.7507 52.5708 21.4496 56.3763 24.3442 59.1678C27.2388 61.9593 31.1034 63.5192 35.1247 63.5192C39.1461 63.5192 43.0107 61.9593 45.9053 59.1678C48.7999 56.3763 50.4988 52.5708 50.6445 48.5521C50.7903 44.5333 49.3715 40.6148 46.6867 37.6209C44.0019 34.627 40.2605 32.7913 36.2497 32.5H36.2297ZM39.1147 20.85C40.7402 19.3212 42.8934 18.4793 45.1247 18.5C45.1589 18.4985 45.1924 18.5101 45.2184 18.5324C45.2444 18.5546 45.261 18.586 45.2647 18.62C45.4574 19.8265 45.4002 21.0598 45.0966 22.2432C44.793 23.4267 44.2494 24.5352 43.4997 25.5C41.8797 27.5 39.3347 28.665 36.2997 28.84C36.2827 28.8414 36.2656 28.8392 36.2495 28.8335C36.2334 28.8278 36.2187 28.8187 36.2064 28.8069C36.1941 28.7951 36.1845 28.7808 36.1782 28.7649C36.1718 28.7491 36.169 28.732 36.1697 28.715C36.2697 25.34 37.2847 22.63 39.1147 20.845V20.85ZM33.8497 28.73C31.2247 28.3 28.6547 26.88 27.7147 23.97C27.7094 23.9542 27.7077 23.9373 27.7098 23.9208C27.7119 23.9042 27.7177 23.8883 27.7269 23.8743C27.736 23.8603 27.7483 23.8486 27.7626 23.8401C27.777 23.8315 27.7931 23.8264 27.8097 23.825C29.3015 23.7295 30.7769 24.181 31.9597 25.095C33.0455 25.9558 33.7812 27.1819 34.0297 28.545C34.0351 28.57 34.0342 28.5959 34.0272 28.6204C34.0201 28.645 34.0071 28.6674 33.9893 28.6857C33.9715 28.704 33.9494 28.7176 33.9251 28.7254C33.9007 28.7331 33.8748 28.7347 33.8497 28.73ZM34.9997 61.5C32.3148 61.501 29.6899 60.7054 27.4572 59.2141C25.2245 57.7227 23.4845 55.6025 22.4572 53.1218C21.43 50.6412 21.1617 47.9115 21.6864 45.2783C22.211 42.6451 23.505 40.2267 25.4046 38.3292C27.3042 36.4317 29.724 35.1404 32.3578 34.6187C34.9916 34.0969 37.7209 34.3682 40.2005 35.3982C42.68 36.4282 44.7983 38.1706 46.2872 40.4049C47.7761 42.6393 48.5687 45.265 48.5647 47.95C48.5594 51.5446 47.1281 54.9903 44.5849 57.5307C42.0417 60.0711 38.5944 61.4987 34.9997 61.5Z" fill="#395EAB"/>
<path d="M35.0004 35.8601C32.6078 35.8591 30.2687 36.5678 28.2789 37.8964C26.2891 39.225 24.7381 41.114 23.822 43.3242C22.906 45.5345 22.666 47.9668 23.1326 50.3135C23.5991 52.6602 24.7511 54.8157 26.4429 56.5076C28.1348 58.1994 30.2903 59.3514 32.637 59.8179C34.9837 60.2845 37.416 60.0445 39.6263 59.1285C41.8365 58.2124 43.7255 56.6614 45.0541 54.6716C46.3827 52.6818 47.0914 50.3427 47.0904 47.9501C47.0891 44.744 45.8149 41.6697 43.5479 39.4026C41.2808 37.1356 38.2065 35.8614 35.0004 35.8601ZM38.0754 50.7101C37.8846 51.0531 37.6135 51.3447 37.2854 51.5601C36.9107 51.7801 36.5016 51.9356 36.0754 52.0201C35.9913 52.0281 35.9078 52.0415 35.8254 52.0601V52.7001C35.8254 52.9101 35.9254 53.3701 35.1554 53.3701H34.6554C34.1554 53.3701 33.9254 53.2001 33.9254 52.7851V52.1551C33.9254 52.1551 33.4254 52.1051 33.0354 52.0301C32.7703 51.9919 32.5183 51.8908 32.3004 51.7351C31.9204 51.4901 32.1054 49.6101 32.6604 49.9451C32.8619 50.0835 33.0762 50.2024 33.3004 50.3001C33.7238 50.453 34.1702 50.5325 34.6204 50.5351C34.849 50.5375 35.0771 50.5141 35.3004 50.4651C35.4782 50.4307 35.6479 50.3628 35.8004 50.2651C35.9215 50.1964 36.0217 50.0962 36.0904 49.9751C36.1565 49.8631 36.1911 49.7352 36.1904 49.6051C36.1947 49.426 36.1403 49.2504 36.0354 49.1051C35.9176 48.9531 35.7757 48.8214 35.6154 48.7151C35.4194 48.5906 35.2137 48.4819 35.0004 48.3901C34.7604 48.2801 34.5004 48.1701 34.2154 48.0501C33.5976 47.8244 33.0459 47.448 32.6104 46.9551C32.2495 46.5148 32.0596 45.9592 32.0754 45.3901C32.0621 44.9629 32.1585 44.5394 32.3554 44.1601C32.5415 43.8201 32.8053 43.5288 33.1254 43.3101C33.3595 43.1245 33.6187 42.973 33.8954 42.8601C33.9654 42.8601 33.9604 42.7951 33.9604 42.7751V42.0001C33.9604 41.8701 34.0854 41.6951 34.3554 41.6951H35.4804C35.7054 41.6951 35.8454 41.8101 35.8454 41.9701V42.6151C35.8454 42.6355 35.8531 42.6551 35.867 42.67C35.881 42.6848 35.9001 42.6938 35.9204 42.6951C36.1204 42.6951 36.6754 42.7351 36.9204 42.7751C37.2603 42.8143 37.5954 42.888 37.9204 42.9951C37.98 43.0204 38.0313 43.0619 38.0685 43.1149C38.1056 43.168 38.1271 43.2304 38.1304 43.2951V44.4151C38.1209 44.4691 38.0995 44.5203 38.0677 44.5651C38.036 44.6098 37.9947 44.6469 37.9468 44.6737C37.8989 44.7005 37.8457 44.7163 37.791 44.72C37.7363 44.7237 37.6814 44.7152 37.6304 44.6951H37.5354C37.3512 44.6104 37.1606 44.5402 36.9654 44.4851C36.7761 44.4369 36.5841 44.4001 36.3904 44.3751C36.2101 44.3464 36.0279 44.3314 35.8454 44.3301C35.6284 44.3287 35.412 44.3522 35.2004 44.4001C35.0232 44.4313 34.8536 44.4958 34.7004 44.5901C34.5768 44.6626 34.4709 44.7616 34.3904 44.8801C34.3181 44.9934 34.2815 45.1258 34.2854 45.2601C34.2835 45.4073 34.3253 45.5517 34.4054 45.6751C34.4967 45.8116 34.6139 45.9288 34.7504 46.0201C34.9215 46.1438 35.104 46.2509 35.2954 46.3401C35.5054 46.4401 35.7504 46.5551 36.0204 46.6651C36.3661 46.8057 36.7005 46.9729 37.0204 47.1651C37.2982 47.3216 37.551 47.5188 37.7704 47.7501C37.9861 47.9617 38.1563 48.2153 38.2704 48.4951C38.3933 48.8137 38.4511 49.1538 38.4404 49.4951C38.4207 49.924 38.2953 50.3414 38.0754 50.7101Z" fill="#18E0D5"/>
</svg>
