<svg width="70" height="80" viewBox="0 0 70 80" fill="none" xmlns="http://www.w3.org/2000/svg">
<rect width="70" height="80" rx="20" fill="#D6E6F4" fill-opacity="0.33"/>
<path d="M38.9062 30.0632L35 26.9382L31.0938 30.0632V37.6562H38.9062V30.0632Z" fill="#395EAB"/>
<path d="M49.0625 20.4688H20.9375C20.5063 20.4688 20.1562 20.8188 20.1562 21.25V58.75C20.1562 59.182 20.5063 59.5312 20.9375 59.5312H49.0625C49.4945 59.5312 49.8438 59.182 49.8438 58.75V21.25C49.8438 20.8188 49.4945 20.4688 49.0625 20.4688ZM26.6992 31.5773L34.5117 25.3273C34.7969 25.0992 35.2023 25.0992 35.4875 25.3273L38.9062 28.0625V27.5C38.9062 27.0687 39.2555 26.7188 39.6875 26.7188C40.1195 26.7188 40.4688 27.0687 40.4688 27.5V29.3117L43.3008 31.5773C43.6375 31.8469 43.6922 32.3383 43.4227 32.675C43.268 32.8688 43.0414 32.9688 42.8117 32.9688C42.6406 32.9688 42.4688 32.9125 42.3242 32.7977L40.4688 31.3133V38.4375C40.4688 38.8687 40.1195 39.2188 39.6875 39.2188H30.3125C29.8813 39.2188 29.5312 38.8687 29.5312 38.4375V31.3125L27.6758 32.7969C27.3398 33.0656 26.8469 33.0117 26.5781 32.675C26.3078 32.3383 26.3625 31.8469 26.6992 31.5773ZM42.8125 53.2812H27.1875C26.7562 53.2812 26.4062 52.932 26.4062 52.5C26.4062 52.068 26.7562 51.7188 27.1875 51.7188H42.8125C43.2445 51.7188 43.5938 52.068 43.5938 52.5C43.5938 52.932 43.2445 53.2812 42.8125 53.2812ZM42.8125 47.0312H27.1875C26.7562 47.0312 26.4062 46.682 26.4062 46.25C26.4062 45.818 26.7562 45.4688 27.1875 45.4688H42.8125C43.2445 45.4688 43.5938 45.818 43.5938 46.25C43.5938 46.682 43.2445 47.0312 42.8125 47.0312Z" fill="#395EAB"/>
</svg>
