<svg width="56" height="56" viewBox="0 0 56 56" fill="none" xmlns="http://www.w3.org/2000/svg">
<rect width="56" height="56" rx="8" fill="#FEEDD9"/>
<path d="M18 36H38V38H18V36ZM20 28H22V35H20V28ZM25 28H27V35H25V28ZM29 28H31V35H29V28ZM34 28H36V35H34V28ZM18 23L28 18L38 23V27H18V23ZM20 24.236V25H36V24.236L28 20.236L20 24.236ZM28 24C27.7348 24 27.4804 23.8946 27.2929 23.7071C27.1054 23.5196 27 23.2652 27 23C27 22.7348 27.1054 22.4804 27.2929 22.2929C27.4804 22.1054 27.7348 22 28 22C28.2652 22 28.5196 22.1054 28.7071 22.2929C28.8946 22.4804 29 22.7348 29 23C29 23.2652 28.8946 23.5196 28.7071 23.7071C28.5196 23.8946 28.2652 24 28 24Z" fill="#FCA440"/>
</svg>
