<svg width="56" height="56" viewBox="0 0 56 56" fill="none" xmlns="http://www.w3.org/2000/svg">
<rect width="56" height="56" rx="8" fill="#CCF4E6"/>
<path d="M28 38C22.477 38 18 33.523 18 28C18 22.477 22.477 18 28 18C33.523 18 38 22.477 38 28C38 33.523 33.523 38 28 38ZM28 36C30.1217 36 32.1566 35.1571 33.6569 33.6569C35.1571 32.1566 36 30.1217 36 28C36 25.8783 35.1571 23.8434 33.6569 22.3431C32.1566 20.8429 30.1217 20 28 20C25.8783 20 23.8434 20.8429 22.3431 22.3431C20.8429 23.8434 20 25.8783 20 28C20 30.1217 20.8429 32.1566 22.3431 33.6569C23.8434 35.1571 25.8783 36 28 36ZM24.5 30H30C30.1326 30 30.2598 29.9473 30.3536 29.8536C30.4473 29.7598 30.5 29.6326 30.5 29.5C30.5 29.3674 30.4473 29.2402 30.3536 29.1464C30.2598 29.0527 30.1326 29 30 29H26C25.337 29 24.7011 28.7366 24.2322 28.2678C23.7634 27.7989 23.5 27.163 23.5 26.5C23.5 25.837 23.7634 25.2011 24.2322 24.7322C24.7011 24.2634 25.337 24 26 24H27V22H29V24H31.5V26H26C25.8674 26 25.7402 26.0527 25.6464 26.1464C25.5527 26.2402 25.5 26.3674 25.5 26.5C25.5 26.6326 25.5527 26.7598 25.6464 26.8536C25.7402 26.9473 25.8674 27 26 27H30C30.663 27 31.2989 27.2634 31.7678 27.7322C32.2366 28.2011 32.5 28.837 32.5 29.5C32.5 30.163 32.2366 30.7989 31.7678 31.2678C31.2989 31.7366 30.663 32 30 32H29V34H27V32H24.5V30Z" fill="#00CA83"/>
</svg>
