<svg width="56" height="56" viewBox="0 0 56 56" fill="none" xmlns="http://www.w3.org/2000/svg">
<rect width="56" height="56" rx="8" fill="#CCF4E6"/>
<path d="M27 16L34.298 18.28C34.5015 18.3435 34.6794 18.4705 34.8057 18.6423C34.932 18.8141 35.0001 19.0218 35 19.235V21H37C37.2652 21 37.5196 21.1054 37.7071 21.2929C37.8946 21.4804 38 21.7348 38 22V30C38 30.2652 37.8946 30.5196 37.7071 30.7071C37.5196 30.8946 37.2652 31 37 31L33.78 31.001C33.393 31.511 32.923 31.961 32.38 32.331L27 36L21.62 32.332C20.8125 31.7815 20.1518 31.042 19.6951 30.1779C19.2385 29.3138 18.9999 28.3513 19 27.374V19.235C19.0001 19.0219 19.0683 18.8145 19.1946 18.6429C19.3208 18.4713 19.4986 18.3445 19.702 18.281L27 16ZM27 18.094L21 19.97V27.374C20.9999 27.9862 21.1402 28.5903 21.4104 29.1397C21.6805 29.6892 22.0731 30.1692 22.558 30.543L22.747 30.679L27 33.58L30.782 31H26C25.7348 31 25.4804 30.8946 25.2929 30.7071C25.1054 30.5196 25 30.2652 25 30V22C25 21.7348 25.1054 21.4804 25.2929 21.2929C25.4804 21.1054 25.7348 21 26 21H33V19.97L27 18.094ZM27 26V29H36V26H27ZM27 24H36V23H27V24Z" fill="#00CA83"/>
</svg>
