<svg width="56" height="56" viewBox="0 0 56 56" fill="none" xmlns="http://www.w3.org/2000/svg">
<rect width="56" height="56" rx="8" fill="#FEEDD9"/>
<path d="M33 32H35V20H25V22H33V32ZM33 34V37C33 37.552 32.55 38 31.993 38H20.007C19.8751 38.0008 19.7444 37.9755 19.6223 37.9256C19.5002 37.8757 19.3892 37.8022 19.2957 37.7093C19.2021 37.6164 19.1278 37.5059 19.0771 37.3841C19.0263 37.2624 19.0001 37.1319 19 37L19.003 23C19.003 22.448 19.453 22 20.01 22H23V19C23 18.7348 23.1054 18.4804 23.2929 18.2929C23.4804 18.1054 23.7348 18 24 18H36C36.2652 18 36.5196 18.1054 36.7071 18.2929C36.8946 18.4804 37 18.7348 37 19V33C37 33.2652 36.8946 33.5196 36.7071 33.7071C36.5196 33.8946 36.2652 34 36 34H33ZM21.003 24L21 36H31V24H21.003ZM23 32H27.5C27.6326 32 27.7598 31.9473 27.8536 31.8536C27.9473 31.7598 28 31.6326 28 31.5C28 31.3674 27.9473 31.2402 27.8536 31.1464C27.7598 31.0527 27.6326 31 27.5 31H24.5C23.837 31 23.2011 30.7366 22.7322 30.2678C22.2634 29.7989 22 29.163 22 28.5C22 27.837 22.2634 27.2011 22.7322 26.7322C23.2011 26.2634 23.837 26 24.5 26H25V25H27V26H29V28H24.5C24.3674 28 24.2402 28.0527 24.1464 28.1464C24.0527 28.2402 24 28.3674 24 28.5C24 28.6326 24.0527 28.7598 24.1464 28.8536C24.2402 28.9473 24.3674 29 24.5 29H27.5C28.163 29 28.7989 29.2634 29.2678 29.7322C29.7366 30.2011 30 30.837 30 31.5C30 32.163 29.7366 32.7989 29.2678 33.2678C28.7989 33.7366 28.163 34 27.5 34H27V35H25V34H23V32Z" fill="#FCA440"/>
</svg>
